<svg height="512" viewBox="0 0 64 64" width="512" xmlns="http://www.w3.org/2000/svg"><g id="flat"><path d="m25 7h14v14h-14z" fill="#ffd782"/><g fill="#5a6470"><path d="m29 10h2v2h-2z"/><path d="m33 10h2v2h-2z"/><path d="m36 18h-2a2 2 0 0 0 -4 0h-2a4 4 0 0 1 8 0z"/></g><path d="m24 10h1a0 0 0 0 1 0 0v6a0 0 0 0 1 0 0h-1a3 3 0 0 1 -3-3 3 3 0 0 1 3-3z" fill="#f9bb4b"/><path d="m42 10h1a0 0 0 0 1 0 0v6a0 0 0 0 1 0 0h-1a3 3 0 0 1 -3-3 3 3 0 0 1 3-3z" fill="#f9bb4b" transform="matrix(-1 0 0 -1 82 26)"/><path d="m25 3h14v4h-14z" fill="#5a6470"/><path d="m19 28-4 6-5-4h-4a2 2 0 0 0 -2 2 2 2 0 0 0 2 2h2l8 6 6-9z" fill="#ffd782"/><path d="m38 25h-12l-7 3 5 5v14h16v-14l5-5z" fill="#195c85"/><path d="m45 28 4 6 5-4h4a2 2 0 0 1 2 2 2 2 0 0 1 -2 2h-2l-8 6-6-9z" fill="#ffd782"/><path d="m24 47h8v14h-8z" fill="#32b1cc"/><path d="m24 47-5 2-3 5a2.19 2.19 0 0 0 1 3c2 1 4-3 4-3h4a3 3 0 0 0 3-3v-4z" fill="#f4f4e6"/><path d="m20.197 51.5h3.606v2h-3.606z" fill="#d8d7ba" transform="matrix(.555 -.832 .832 .555 -33.886 41.683)"/><path d="m32 47h8v14h-8z" fill="#53cfe0"/><path d="m40 47 5 2 3 5a2.19 2.19 0 0 1 -1 3c-2 1-4-3-4-3h-4a3 3 0 0 1 -3-3v-4z" fill="#f4f4e6"/><path d="m41 50.697h2v3.606h-2z" fill="#d8d7ba" transform="matrix(.832 -.555 .555 .832 -22.068 32.115)"/><path d="m59 44a1 1 0 0 1 -.707-.293l-2-2 1.414-1.414 1.293 1.293 1.293-1.293 1.414 1.414-2 2a1 1 0 0 1 -.707.293z" fill="#66342e"/><path d="m16 23a1 1 0 0 1 -.707-.293l-2-2 1.414-1.414 1.293 1.293 1.293-1.293 1.414 1.414-2 2a1 1 0 0 1 -.707.293z" fill="#66342e"/><path d="m9 26a1 1 0 0 1 -.707-.293l-2-2 1.414-1.414 1.293 1.293 1.293-1.293 1.414 1.414-2 2a1 1 0 0 1 -.707.293z" fill="#66342e"/><path d="m52.379 57.068a14.036 14.036 0 0 1 -1.489-.074l.219-1.988c1.374.151 4.474.082 5.288-1.09a1.479 1.479 0 0 0 .189-1.1 5.019 5.019 0 0 1 -5.293-1.111 2.757 2.757 0 0 1 -.64-2.978 2.973 2.973 0 0 1 2.632-1.894c.872-.06 2.509.281 4.031 2.688a7.778 7.778 0 0 0 .684-3.521h2c0 2.855-.78 4.56-1.675 5.573a3.728 3.728 0 0 1 -.288 3.488c-1.194 1.713-3.925 2.007-5.658 2.007zm1.054-8.237h-.053a.974.974 0 0 0 -.861.619.743.743 0 0 0 .188.842 3.011 3.011 0 0 0 3.139.667c-.767-1.347-1.646-2.128-2.413-2.128z" fill="#50b4f8"/><path d="m28 25 4 6 4-6z" fill="#ffd782"/><path d="m31 34h2v2h-2z" fill="#f4f4e6"/><path d="m31 38h2v2h-2z" fill="#f4f4e6"/><path d="m31 42h2v2h-2z" fill="#f4f4e6"/></g></svg>