<svg xmlns:dc="http://purl.org/dc/elements/1.1/" xmlns:cc="http://creativecommons.org/ns#" xmlns:rdf="http://www.w3.org/1999/02/22-rdf-syntax-ns#" xmlns:svg="http://www.w3.org/2000/svg" xmlns="http://www.w3.org/2000/svg" height="437" width="470.5199890136719" xml:space="preserve" version="1.1" style=""><rect id="backgroundrect" width="100%" height="100%" x="0" y="0" fill="none" stroke="none"/><metadata id="metadata8"><rdf:RDF><cc:Work rdf:about=""><dc:format>image/svg+xml</dc:format><dc:type rdf:resource="http://purl.org/dc/dcmitype/StillImage"/></cc:Work></rdf:RDF></metadata><defs id="defs6"/><g class="currentLayer" style=""><title>Layer 1</title><g id="g10" class="" opacity="1"><g id="g12" stroke-width="0" opacity="1"><path id="path14" style="fill:#f2f3f1;fill-opacity:1;fill-rule:nonzero;stroke:none" d="M68.90679930412132,404.15733366500615 C160.78133170962852,447.94687988944924 309.7413302053055,447.9479198894387 401.6146626108248,404.158800331658 c91.87466573883918,-43.79053289109978 91.87466573883918,-114.78679884078657 0,-158.5747983985786 c-91.87466573883918,-43.790666224431774 -240.8346642345161,-43.790666224431774 -332.7089299733594,-0.0013333333198682147 c-91.8745324055072,43.78799955779204 -91.8745324055072,114.7855988407987 0.001066666655894572,158.57466506524662 " stroke-width="0" opacity="1"/><path id="path16" style="fill:#e7e7e5;fill-opacity:1;fill-rule:nonzero;stroke:none" d="m379.63732949943704,367.5213340349872 c11.96399987917749,5.7026666090763545 31.36266634994014,5.7026666090763545 43.3279995624375,0 c11.96399987917749,-5.702533275744367 11.96399987917749,-14.947866515710565 0,-20.651999791438772 c-11.965333212497358,-5.701066609092512 -31.36399968326001,-5.701066609092512 -43.3279995624375,0 c-11.965333212497358,5.704133275728209 -11.965333212497358,14.949466515694407 0,20.651999791438772 " stroke-width="0" opacity="1"/><path id="path18" style="fill:#27b6a1;fill-opacity:1;fill-rule:nonzero;stroke:none" d="m61.865599375229266,359.2906674514407 l10.83226655727335,-6.254666603501794 c0,0 8.936533243084721,-6.566666600350957 13.361466531731365,-18.761466477197636 c3.348533299517034,-9.226666573488044 2.8865333041826977,-16.24639983593022 0.4854666617640169,-19.764133133738532 c-2.953599970172069,-4.329199956280106 -10.59479989300482,-3.5729332972508545 -10.898399889938812,5.554666610570981 C75.04893257542622,338.0385343327292 69.80466596172057,350.4734675404842 61.865599375229266,359.2906674514407 " stroke-width="0" opacity="1"/><path id="path20" style="fill:#13af96;fill-opacity:1;fill-rule:nonzero;stroke:none" d="m61.865599375229266,359.2906674514407 c7.93906658649131,-8.817199910956516 13.183333200196971,-21.25213311871146 13.780799860829918,-39.22559960386698 c0.18853333142936557,-5.666666609439912 3.204666634303254,-8.106266584802784 6.172399937665926,-8.106266584802784 c1.8118666483689168,0 3.60626663024756,0.9105333241380037 4.725999952272886,2.5515999742318023 c1.1958666545898016,1.7521333156388208 1.9109333140351252,4.3734666224997305 1.9135999806748616,7.703199922206623 c0.002533333307749608,3.354666632788428 -0.7182666594130073,7.430133258297612 -2.3990666424388785,12.060933211531907 C81.63439917558733,346.469334247588 72.69786593250261,353.0360008479389 72.69786593250261,353.0360008479389 l-10.83226655727335,6.254666603501794 " stroke-width="0" opacity="1"/><path id="path22" style="fill:#ffffff;fill-opacity:1;fill-rule:nonzero;stroke:none" d="m61.86666604188515,359.95733411137485 c-0.21199999785904614,0 -0.4193333290985535,-0.0999999989901161 -0.5489333277897439,-0.28799999709153434 c-0.2093333312193097,-0.3026666636100847 -0.13386666531476873,-0.7171999927571127 0.16866666496332916,-0.9266666573084091 c25.062533080230843,-17.342666491525865 20.207333129262725,-41.50413291418977 20.155733129783826,-41.746799578405785 c-0.0775999992163301,-0.3583999963805761 0.151599998469016,-0.714666659449363 0.5109333281734998,-0.7917333253377458 c0.36253332967216756,-0.08013333252407971 0.714666659449363,0.151599998469016 0.7922666586656931,0.5103999948455525 c0.054133332786649516,0.25053333080323753 5.119199948302023,25.25733307826359 -20.69999979095403,43.123999564497666 c-0.11559999883257421,0.08026666585606652 -0.24799999749548793,0.11879999880025793 -0.37866666284257294,0.11879999880025793 " stroke-width="0" opacity="1"/><path id="path24" style="fill:#27b6a1;fill-opacity:1;fill-rule:nonzero;stroke:none" d="m40.20213292733846,371.7984006584605 c0,0 -3.7709332952512846,-3.0702666356605377 -2.858933304461426,-7.226533260353736 c0.9125333241178061,-4.157333291349093 3.344799966221403,-7.146399927829656 -0.8358666582253838,-12.507866540351733 c-4.1813332911067205,-5.363999945829827 -5.261999946859909,-12.507733207019749 -0.344266663189973,-16.38279983455274 c3.8009332949483197,-2.9957333030799047 9.732799901710019,1.249466654048504 11.87546654673824,-6.687999932458964 c1.5625333175535605,-5.786399941564078 1.029199989606275,-18.59839981217775 8.41146658172062,-22.861466435792394 c7.381199925458449,-4.262399956954709 11.965066545833384,2.1546666449070346 10.831199890617453,10.844266557152162 c-1.01346665643183,7.774533254819572 -2.4410666420147273,15.26146651254357 -1.340533319795503,17.29853315863823 c2.1535999782511404,3.984266626430199 5.855199940869277,3.449466631831058 5.686399942573962,10.753599891401125 c-0.15679999841650202,6.801066597983789 -6.587466600140901,12.430666541131364 -6.587466600140901,12.430666541131364 L40.20213292733846,371.7984006584605 " stroke-width="0" opacity="1"/><path id="path26" style="fill:#ffffff;fill-opacity:1;fill-rule:nonzero;stroke:none" d="m52.59119946888994,365.31040072398173 c-0.33279999663910637,0 -0.6203999937346804,-0.2478666641635011 -0.6614666599866212,-0.5863999940780408 c-1.9083999807273755,-15.798533173786488 2.6395999733431044,-43.0761328983144 6.400533268695377,-51.18386614976904 c0.15413333177676564,-0.3349333299508955 0.5478666611338494,-0.4827999951242805 0.8853333243924946,-0.32399999672797614 c0.3338666632950009,0.1546666651047129 0.4791999951606364,0.5505333277735858 0.32399999672797614,0.8838666577406395 c-3.6953332960147565,7.968266586196424 -8.110399918094377,35.363999642864655 -6.285999936518698,50.46506615702808 c0.04373333289167745,0.36413332965600936 -0.21666666447858487,0.6963999929671685 -0.581733327458502,0.740133325858846 l-0.08066666585202699,0.005199999947486038 " stroke-width="0" opacity="1"/><path id="path28" style="fill:#ffffff;fill-opacity:1;fill-rule:nonzero;stroke:none" d="m52.230666139197574,353.0120008481813 l-0.2926666637110731,-0.06826666597725259 c-4.62599995328277,-2.2609333105005316 -7.558266590336948,-10.295866562690366 -7.681199922428798,-10.636933225912655 c-0.12453333207569124,-0.34533332984586756 0.05519999944254409,-0.7265333259961901 0.40159999594430623,-0.8521333247277759 c0.3467999964977226,-0.12399999874774396 0.7275999926520846,0.0546666661145968 0.8535999913796309,0.4026666626002008 c0.027599999721272046,0.07706666588838282 2.8713333043362,7.863999920582729 7.011999929186941,9.889599900126521 c0.3306666633273172,0.1609333317080935 0.4677333286097697,0.5598666610126632 0.3062666635737289,0.8915999909958752 c-0.11626666549250833,0.23599999761667398 -0.35319999643309,0.3734666628950869 -0.5995999939447361,0.3734666628950869 " stroke-width="0" opacity="1"/><path id="path30" style="fill:#ffffff;fill-opacity:1;fill-rule:nonzero;stroke:none" d="m52.15466613996509,358.3360007944151 c-0.2639999973339065,0 -0.5139999948091967,-0.15893333172829116 -0.6186666604188517,-0.4187999957706062 c-0.13706666528245245,-0.34119999655427613 0.029066666373127083,-0.7291999926359266 0.3707999962553505,-0.8666666579143395 c7.785333254710505,-3.1198666351596356 12.639066539026768,-12.397466541466645 12.686933205210035,-12.490666540525435 c0.16933333162326325,-0.3265333300357257 0.5707999942355826,-0.4571999953828108 0.8979999909312426,-0.2863999971076925 c0.3275999966916203,0.1677333316394214 0.4555999953989689,0.5702666609076353 0.2869333304356398,0.898399990927203 c-0.20573333125566554,0.3989333293045698 -5.133333281492626,9.813599900894033 -13.375599864921968,13.116133200875613 l-0.24839999749144837,0.04799999951525573 " stroke-width="0" opacity="1"/><path id="path32" style="fill:#27b6a1;fill-opacity:1;fill-rule:nonzero;stroke:none" d="m324.32933005798355,286.61066818542434 c0,0 -5.8306666077837015,-9.429333238108013 -6.393333268768089,-19.6946664677734 c-0.5626666609843866,-10.266666562985252 1.6906666495928961,-14.526666519964198 4.781333285047418,-15.750666507603219 c3.090666635454521,-1.2226666543191527 3.3253332997513274,2.5439999743085533 4.922666616953449,4.7773332850878125 c1.5973333172021211,2.2333333107792592 4.826666617922937,0.9546666570256417 6.01866660588512,-5.987999939528152 c1.193333321282052,-6.9413332632339255 5.5706666104094005,-18.706666477751053 14.625333185634446,-20.951999788409122 c10.001333232331477,-2.4773333083151425 4.635999953181782,9.25333323988541 2.126666645189802,13.83066652699299 c-2.511999974631716,4.577333287107581 -4.469333288198255,10.810666557491484 -2.813333304921933,12.50799987368372 c1.6546666499564544,1.6973333161922373 4.221333290702767,-1.4386666521378033 6.68399993249936,1.4679999851749042 c2.9719999699862503,3.5093332978931406 -6.266666603380608,16.126666503806057 -11.569333216496497,19.187999806223477 l-18.382666481023076,10.613333226150987 " stroke-width="0" opacity="1"/><path id="path34" style="fill:#ffffff;fill-opacity:1;fill-rule:nonzero;stroke:none" d="m332.3159966439942,282.6400015588568 l-0.03466666631657358,-0.0013333333198682147 c-0.36799999628362723,-0.018666666478155007 -0.6493333267758206,-0.33333332996705367 -0.6306666602976656,-0.6999999929308126 c1.4679999851749042,-27.30133305762156 14.791999850617971,-46.21066619999258 14.927999849244529,-46.398666198094 c0.21466666449878255,-0.2999999969703483 0.6306666602976656,-0.36799999628362723 0.9293333239481455,-0.15333333178484465 c0.2986666636504801,0.21333333117891434 0.36799999628362723,0.6306666602976656 0.15333333178484465,0.9293333239481455 c-0.13199999866695325,0.18533333146168185 -13.23333319969203,18.797333143502087 -14.679999851749042,45.69333287188371 c-0.01733333315828679,0.3546666630849451 -0.3119999968491622,0.6306666602976656 -0.665333326614239,0.6306666602976656 " stroke-width="0" opacity="1"/><path id="path36" style="fill:#ffffff;fill-opacity:1;fill-rule:nonzero;stroke:none" d="m333.07866330295883,274.76933497167477 l-0.32399999672797614,-0.08266666583182931 c-3.7333332956310006,-2.0666666457957326 -5.801333274746601,-8.198666583869652 -5.887999940538035,-8.458666581243953 c-0.11466666550866647,-0.3493333298054722 0.07333333259275181,-0.726666659328177 0.42399999571809227,-0.8426666581567116 c0.34799999648560404,-0.11999999878813931 0.7279999926480452,0.07466666591262003 0.8426666581567116,0.42266666239822404 c0.018666666478155007,0.05866666607420145 1.9906666465632443,5.898666607096981 5.267999946799316,7.711999922117753 c0.3213333300882397,0.17733333154247255 0.4386666622366426,0.5826666607824098 0.25999999737430185,0.9053333241905177 c-0.12133333210800754,0.21999999777825544 -0.3493333298054722,0.3439999965259994 -0.5826666607824098,0.3439999965259994 " stroke-width="0" opacity="1"/><path id="path38" style="fill:#ffffff;fill-opacity:1;fill-rule:nonzero;stroke:none" d="m333.7319966296942,270.7280016791542 c-0.2986666636504801,0 -0.5706666609035959,-0.19999999798023219 -0.646666660136084,-0.5026666615903169 c-0.09066666575103861,-0.35866666304454975 0.12533333206761219,-0.719999992728836 0.48266666179229367,-0.8093333251600063 c9.623999902808773,-2.43466664207936 12.95733320247931,-7.478666591140816 12.989333202156146,-7.52799992397594 c0.19866666466036398,-0.3093333302094258 0.6119999938195104,-0.3986666626405962 0.9199999907090681,-0.20266666461996863 c0.310666663529294,0.19733333134049574 0.4026666626002008,0.6079999938599059 0.20533333125970504,0.9173333240693317 c-0.14266666522589896,0.2253333310577283 -3.6053332969236522,5.530666610813354 -13.786666527437339,8.103999918159008 l-0.1639999983437904,0.021333333117891436 " stroke-width="0" opacity="1"/><path id="path40" style="fill:#27b6a1;fill-opacity:1;fill-rule:nonzero;stroke:none" d="m179.2893315227192,265.88000172811337 c0,0 -12.78533320421631,-3.1173333018518856 -13.450666530830548,-27.05733306008568 c-0.7186666594089676,-25.841333072365867 3.133333301690304,-55.9879994345862 -11.946666546019202,-58.43866607650398 c-15.078666514389639,-2.4533333085575144 -23.53986642894134,16.037333171374886 -23.34613309756449,37.5226662877313 c0.16973333161922374,18.86533314281537 7.766133254904403,59.798666062769556 48.74213284109437,67.8213326484166 l0.0013333333198682147,-19.847999799558245 " stroke-width="0" opacity="1"/><path id="path42" style="fill:#13af96;fill-opacity:1;fill-rule:nonzero;stroke:none" d="m179.28799818939936,285.7280015276716 c-40.97599958618997,-8.022666585647046 -48.57239950947515,-48.955999505601234 -48.74213284109437,-67.8213326484166 c-0.0026666666397364295,-0.23599999761667398 -0.003733333295631001,-0.47333332855321614 -0.003733333295631001,-0.7093333261698902 c-0.0030666666356968944,-19.895999799073497 7.4418665915124524,-37.03333295933966 20.704533124241582,-37.03333295933966 c0.8573333246752619,0 1.7399999824280201,0.07199999927288359 2.6453333066185376,0.21999999777825544 c10.859999890326607,1.7653333155055162 11.901333213143683,17.895999819271175 11.902666546463552,36.43866629867844 c0,4.399999955565108 -0.05866666607420145,8.934666576436907 -0.05866666607420145,13.446666530870942 c0,2.8746666376358703 0.023999999757627864,5.7399999420326635 0.10266666562985252,8.553333246954598 c0.665333326614239,23.939999758233792 13.450666530830548,27.05733306008568 13.450666530830548,27.05733306008568 l-0.0013333333198682147,19.847999799558245 " stroke-width="0" opacity="1"/><path id="path44" style="fill:#ffffff;fill-opacity:1;fill-rule:nonzero;stroke:none" d="m179.2893315227192,283.26666821919486 l-0.11999999878813931,-0.010666666558945718 c-9.22133324020857,-1.678666649714082 -16.723999831107015,-6.750666598492771 -22.30533310807536,-15.074666514430035 c-16.5653331660427,-24.71199975043749 -11.345333218758638,-70.83999928459824 -9.631999902727982,-78.89866586988173 c0.07599999923248824,-0.359999996364418 0.4293333289975651,-0.5879999940618826 0.7906666586818512,-0.5133333281492626 c0.359999996364418,0.07733333255235646 0.5893333273817508,0.4306666623174333 0.5133333281492626,0.7906666586818512 c-1.694666649552501,7.96799991953245 -6.869333263961042,53.553332792506836 9.435999904707353,77.87866588018255 c5.371999945749036,8.01333325240797 12.583999872916209,12.893333203125636 21.435999783521286,14.505333186846308 c0.3626666630041544,0.06666666599341073 0.602666660580433,0.41466666247901474 0.5359999945870222,0.775999992163301 c-0.05866666607420145,0.3213333300882397 -0.3386666632465265,0.546666661145968 -0.6546666600552934,0.546666661145968 " stroke-width="0" opacity="1"/><path id="path46" style="fill:#27b6a1;fill-opacity:1;fill-rule:nonzero;stroke:none" d="m179.2906648560391,344.7265342651882 c-13.219999866493348,1.7922666485668541 -34.69199964965107,1.7598666488940564 -47.05999952474863,-7.994799919261801 c-12.368666541757493,-9.755733234811753 -9.7957332344078,-18.162399816580844 -5.037999949122049,-21.66919978116624 c4.7578666186177365,-3.507866631241286 8.88999991022132,-7.515599924101164 0.7051999928782986,-15.298533178835907 c-8.184799917343023,-7.782666588070768 -21.341066451146666,-20.28933312843462 -25.595199741518194,-39.05199960562013 c-4.25479995703146,-18.76133314386565 -2.1594666448585604,-30.486666358786728 6.2123999372619725,-34.397332985960205 c8.124533251284978,-3.7919999617052023 10.263599896349556,2.2333333107792592 15.236533179462036,14.661333185270887 c4.971866616456586,12.430666541131364 16.163066503438458,1.7746666487445937 25.7297330734929,5.654666609561097 c9.567999903374309,3.8786666274966364 9.191999907171471,11.55999988325742 9.795999901071772,18.16266648324482 c0.602666660580433,6.60133326666753 3.7626666286681014,8.426666581567117 9.178666573972789,8.426666581567117 c5.4173332786245565,0 10.830666557289508,3.126666635090963 10.831999890609374,9.37999990527289 l0.0026666666397364295,62.126532705927474 " stroke-width="0" opacity="1"/><path id="path48" style="fill:#ffffff;fill-opacity:1;fill-rule:nonzero;stroke:none" d="m179.2906648560391,322.9437344851692 l-0.179999998182209,-0.024933333081535617 c-0.571999994223464,-0.15999999838418574 -14.243999856152136,-4.138533291538951 -34.1413329885455,-22.41746644027628 c-21.196933119268916,-19.471999803355406 -31.205733018191655,-48.66533284186996 -31.304266350529918,-48.957332838921104 c-0.11773333214436336,-0.3493333298054722 0.06986666596109445,-0.7279999926480452 0.4187999957706062,-0.8453333247964481 c0.3499999964654063,-0.11466666550866647 0.7275999926520846,0.07066666595301538 0.8447999914685008,0.4186666624386194 c0.09733333235037968,0.2906666637312708 10.003599898975253,29.16799970543706 30.941999687521722,48.40266617785592 c19.631999801739592,18.033066484553625 33.46266632873258,22.07586644372604 33.59999966067901,22.115999776654075 c0.3546666630849451,0.0999999989901161 0.5599999943446502,0.4666666619538751 0.46133332867440224,0.8227999916906753 c-0.08266666583182931,0.29173333038716537 -0.3493333298054722,0.4849333284360696 -0.6413333268566113,0.4849333284360696 " stroke-width="0" opacity="1"/><path id="path50" style="fill:#ffffff;fill-opacity:1;fill-rule:nonzero;stroke:none" d="m150.50533181340418,305.15573466480737 c-0.2666666639736429,0 -0.5186666614287355,-0.1609333317080935 -0.621333327058588,-0.42399999571809227 c-4.278666623457101,-10.995733222289193 -5.247999947001293,-34.50106631824595 -5.286666613277471,-35.495732974867636 c-0.014666666518550362,-0.36799999628362723 0.2719999972531158,-0.677333326493053 0.639999993536743,-0.6933333263314716 c0.3413333298862629,0.003999999959604645 0.677333326493053,0.2719999972531158 0.6919999930116034,0.6413333268566113 c0.009333333239077504,0.23999999757627863 0.9999999899011609,24.277333088160454 5.1973332808463,35.06386631256232 c0.13333333198682146,0.342799996538118 -0.037333332956310014,0.7291999926359266 -0.3799999961624412,0.862533324622748 l-0.24133333089614684,0.04533333287551931 " stroke-width="0" opacity="1"/><path id="path52" style="fill:#ffffff;fill-opacity:1;fill-rule:nonzero;stroke:none" d="m150.39333181453526,320.97080117176023 c-2.0719999790752053,0 -3.505333297933536,-0.1639999983437904 -3.678666629516404,-0.18439999813777408 c-0.3653333296438908,-0.04266666623578287 -0.6266666603380608,-0.3743999962189946 -0.5826666607824098,-0.7410666591827536 c0.04266666623578287,-0.36413332965600936 0.3719999962432319,-0.6349333269212438 0.7399999925268591,-0.5813333274625416 c0.12399999874774396,0.010533333226958897 12.529333206801612,1.413066652396334 18.227999815918363,-4.39573328894153 c0.2559999974146972,-0.26559999731774836 0.6799999931327894,-0.26559999731774836 0.9426666571468277,-0.010933333222919362 c0.26266666401403826,0.2571999974025786 0.2666666639736429,0.6811999931206708 0.009333333239077504,0.9426666571468277 c-4.170666624547775,4.252133290391724 -11.314666552401668,4.970799949800691 -15.658666508532312,4.970799949800691 " stroke-width="0" opacity="1"/><path id="path54" style="fill:#dadad8;fill-opacity:1;fill-rule:nonzero;stroke:none" d="m116.61453215566193,95.8920034447948 c-6.07239993867581,4.773333285128208 -7.92186658666501,5.814666607945283 -9.020266575572446,-0.5626666609843866 c-1.0978666555794878,-6.37733326892967 2.4535999752214885,-16.102666504048425 8.525999913897298,-20.875999789176635 c6.07239993867581,-4.774666618448077 8.40266658180949,-5.130666614852889 9.500533237388977,1.2466666540767806 c1.098533322239422,6.37733326892967 -2.9338666370380193,15.417333177636165 -9.006266575713829,20.19199979608424 zm24.17746642250232,-27.39999972329181 l-1.4319999855384624,-8.313333249378317 l-7.417866591754825,4.881333284037534 c-0.7431999924945428,-1.4213333189795168 -1.6978666495201844,-2.5626666407867082 -2.8202666381852475,-3.423999965421575 l3.5494666308211738,-9.601333236371014 l-6.608799933258792,-1.4773333184139819 l-4.882799950689389,9.302666572720533 c-1.6177333169961046,0.24933333081535614 -3.3255999664153006,0.7946666586414559 -5.085999948637305,1.6559999832763226 l-2.1130666453271467,-7.011999929186941 l-7.9150665867336825,6.222666603824957 l0.518266661432775,8.26666658318293 c-1.6021333171536467,1.7813333153439346 -3.0682666356807355,3.730666628991264 -4.3759999558074805,5.782666608268446 l-6.539599933957632,-0.3226666634081079 l-4.58493328703083,10.277333229544197 l5.615599943288959,2.3959999758031816 c-0.5926666606814214,2.2106666443414995 -0.9743999901596911,4.4039999555247125 -1.1087999888024074,6.513333267556228 l-7.129199928003357,6.555999933792012 l1.4317333188744887,8.313333249378317 l7.417199925094891,-4.881333284037534 c0.7427999924985823,1.4213333189795168 1.6979999828521712,2.5626666407867082 2.8207999715131944,3.423999965421575 l-3.549999964149121,9.601333236371014 l6.6094665999187265,1.4773333184139819 l6.984399929465669,-6.8093332645669715 c1.618133316992065,-0.24799999749548793 1.2238666543070342,-3.287999966795017 2.9842666365290382,-4.149333291429884 l2.112533311999199,7.011999929186941 l7.915599920061629,-6.222666603824957 l-0.20413333127182368,-3.250666633838707 c1.6021333171536467,-1.7826666486638028 7.651599922727723,-5.715999942275036 8.959333242854466,-7.765333254912482 l1.6418666500857195,-2.71066663929208 l4.583999953706922,-10.277333229544197 l-2.1359999784288797,-3.870666627577427 l-2.369333309405817,-5.038666615781983 l7.1293332613353435,-6.555999933792012 " stroke-width="0" opacity="1"/><path id="path56" style="fill:#f2f3f1;fill-opacity:1;fill-rule:nonzero;stroke:none" d="m126.0625320602481,50.55733723595563 l8.646799912677357,4.985333282987255 l-4.882799950689389,9.303999906040401 l-8.646799912677357,-4.986666616307122 l4.882799950689389,-9.302666572720533 " stroke-width="0" opacity="1"/><path id="path58" style="fill:#f2f3f1;fill-opacity:1;fill-rule:nonzero;stroke:none" d="m148.00666517197115,65.16533708843178 l-7.417333258426878,4.881333284037534 l-8.647199912673319,-4.986666616307122 l7.417866591754825,-4.881333284037534 l8.646666579345371,4.986666616307122 " stroke-width="0" opacity="1"/><path id="path60" style="fill:#dadad8;fill-opacity:1;fill-rule:nonzero;stroke:none" d="m146.81599851732884,88.94267018164169 l-5.615999943284919,-2.3946666424833136 l-8.646399912681398,-4.986666616307122 l5.614399943301078,2.3959999758031816 l8.64799991266524,4.985333282987255 " stroke-width="0" opacity="1"/><path id="path62" style="fill:#dadad8;fill-opacity:1;fill-rule:nonzero;stroke:none" d="m96.58066569131405,116.6533365684628 l8.647466579337292,4.986666616307122 l3.548933297493227,-9.601333236371014 l-8.646399912681398,-4.986666616307122 l-3.549999964149121,9.601333236371014 " stroke-width="0" opacity="1"/><path id="path64" style="fill:#dadad8;fill-opacity:1;fill-rule:nonzero;stroke:none" d="m123.91879874856397,119.170669876374 l-8.647466579337292,-4.986666616307122 l-2.112533311999199,-7.011999929186941 l8.646399912681398,4.986666616307122 l2.1135999786550936,7.011999929186941 " stroke-width="0" opacity="1"/><path id="path66" style="fill:#e7e7e5;fill-opacity:1;fill-rule:nonzero;stroke:none" d="m125.26199873499922,100.87867006110196 c-6.07239993867581,4.773333285128208 -11.885999879965198,3.473333298256699 -12.983866535544687,-2.9039999706729716 c-1.0983999889074352,-6.37733326892967 2.9343999703659667,-15.417333177636165 9.006266575713829,-20.19199979608424 c6.07239993867581,-4.773333285128208 11.884933213309305,-3.474666631576567 12.983599868880713,2.902666637353103 c1.0973333222515407,6.378666602249539 -2.934133303701993,15.418666510956033 -9.005999909049855,20.19333312940411 zm24.1766664225104,-27.39999972329181 l-1.4319999855384624,-8.313333249378317 l-7.417333258426878,4.881333284037534 c-0.7426666591665956,-1.4213333189795168 -1.6986666495121054,-2.5626666407867082 -2.821333304841142,-3.423999965421575 l3.5506666308090553,-9.601333236371014 l-6.60933326658674,-1.47866665173385 l-4.882799950689389,9.303999906040401 c-1.6177333169961046,0.24933333081535614 -3.325999966411261,0.7946666586414559 -5.086399948633265,1.6559999832763226 l-2.112533311999199,-7.011999929186941 l-7.9150665867336825,6.222666603824957 l0.5181333281007882,8.265333249863062 c-1.6014666504937125,1.7826666486638028 -3.0675999690208013,3.731999962311132 -4.3759999558074805,5.783999941588315 l-6.539599933957632,-0.3226666634081079 l-4.584399953702882,10.277333229544197 l5.615199943292999,2.3946666424833136 c-0.5931999940093686,2.211999977661368 -0.9739999901637307,4.4039999555247125 -1.108933322134394,6.5146666008760965 l-7.129599927999317,6.555999933792012 l1.4317333188744887,8.31199991605845 l7.418266591750785,-4.879999950717665 c0.7426666591665956,1.4213333189795168 1.6973333161922373,2.5626666407867082 2.8197333048573,3.423999965421575 l-3.548933297493227,9.601333236371014 l6.608266599930845,1.4773333184139819 l4.882933284021376,-9.302666572720533 c1.617599983664118,-0.24933333081535614 3.325466633083314,-0.7959999919613241 5.085866615305317,-1.6559999832763226 l2.1135999786550936,7.011999929186941 l7.914533253405735,-6.222666603824957 l-0.518266661432775,-8.26666658318293 c1.6021333171536467,-1.7813333153439346 3.0689333023406693,-3.731999962311132 4.3769332891313875,-5.782666608268446 l6.538666600633724,0.3226666634081079 l4.58533328702679,-10.278666562864066 l-5.615999943284919,-2.3946666424833136 c0.5933333273413555,-2.2106666443414995 0.9746666568236649,-4.4039999555247125 1.1079999888104863,-6.513333267556228 l7.130666594655211,-6.555999933792012 " stroke-width="0" opacity="1"/><path id="path68" style="fill:#f2f3f1;fill-opacity:1;fill-rule:nonzero;stroke:none" d="m122.62759876160361,59.49067047907266 l-8.646933246009345,-4.986666616307122 l-7.9150665867336825,6.222666603824957 l8.646933246009345,4.986666616307122 l7.9150665867336825,-6.222666603824957 " stroke-width="0" opacity="1"/><path id="path70" style="fill:#dadad8;fill-opacity:1;fill-rule:nonzero;stroke:none" d="m106.06559892886057,60.72667046659046 l0.518266661432775,8.26666658318293 l8.646799912677357,4.985333282987255 l-0.5181333281007882,-8.265333249863062 l-8.646933246009345,-4.986666616307122 " stroke-width="0" opacity="1"/><path id="path72" style="fill:#f2f3f1;fill-opacity:1;fill-rule:nonzero;stroke:none" d="m110.85466554716322,79.76267027434898 l-8.646799912677357,-4.986666616307122 l-6.539599933957632,-0.3226666634081079 l8.646799912677357,4.986666616307122 l6.539599933957632,0.3226666634081079 " stroke-width="0" opacity="1"/><path id="path74" style="fill:#dadad8;fill-opacity:1;fill-rule:nonzero;stroke:none" d="m95.66826570052822,74.45333699463379 l-4.58493328703083,10.277333229544197 l8.647333246005307,4.986666616307122 l4.584399953702882,-10.277333229544197 l-8.646799912677357,-4.986666616307122 " stroke-width="0" opacity="1"/><path id="path76" style="fill:#f2f3f1;fill-opacity:1;fill-rule:nonzero;stroke:none" d="m104.23693228066132,98.62667008384449 l-8.646799912677357,-4.986666616307122 l-7.129199928003357,6.555999933792012 l8.646399912681398,4.986666616307122 l7.129599927999317,-6.555999933792012 " stroke-width="0" opacity="1"/><path id="path78" style="fill:#dadad8;fill-opacity:1;fill-rule:nonzero;stroke:none" d="m98.53906567153649,113.49466993369498 l-8.646399912681398,-4.985333282987255 l-1.4317333188744887,-8.313333249378317 l8.646399912681398,4.986666616307122 l1.4317333188744887,8.31199991605845 " stroke-width="0" opacity="1"/><path id="path80" style="fill:#f2f3f1;fill-opacity:1;fill-rule:nonzero;stroke:none" d="m134.70933197292547,55.542670518942884 l-8.646799912677357,-4.985333282987255 l6.608799933258792,1.4773333184139819 l8.647333246005307,4.986666616307122 l-6.60933326658674,-1.47866665173385 " stroke-width="0" opacity="1"/><path id="path82" style="fill:#dadad8;fill-opacity:1;fill-rule:nonzero;stroke:none" d="m67.47653265189868,61.78667045588577 c-8.24946658335663,4.762666618569262 -13.377066531573824,1.385333319343075 -13.377066531573824,-8.141333251115318 c0,-9.525333237138524 6.817199931154194,-21.19466645262514 15.067199847838772,-25.9573330711944 c8.24946658335663,-4.762666618569262 13.246933199554686,-1.297333320231773 13.246933199554686,8.226666583586884 c0,9.526666570458394 -6.687599932463003,21.109333120153572 -14.937066515819636,25.871999738722835 zm34.57453298417069,-30.99999968693599 v-12.417333207932682 l-9.881733233539299,4.454666621679705 c-0.5958666606491051,-2.293333310173329 -1.5031999848194253,-4.258666623659077 -2.6693333063761657,-5.8813332739386945 l6.225999937124628,-12.551999873239373 l-7.603599923212467,-4.39066662232603 l-7.7583999216491675,11.669333215486613 c-1.987999979923508,-0.19999999798023219 -4.143733291486437,-0.0026666666397364295 -6.427599935088702,0.627999993657929 l-1.0833333223929242,-10.785333224413987 l-10.75253322474523,6.209333270626275 l-1.0833333223929242,12.035999878450372 c-2.284399976930212,2.0053333130817945 -4.440666621821088,4.298666623255124 -6.428133268416649,6.791999931408685 l-7.7583999216491675,-2.709333305972212 l-7.603599923212467,13.169333200338356 l6.225999937124628,5.363999945829827 c-1.1655999882287933,2.967999970026646 -2.0733333123950737,5.982666606248679 -2.6691999730441784,8.963999909474007 L32.90266633438793,58.29333715783099 v12.415999874612815 l9.881199900211351,-4.454666621679705 c0.5958666606491051,2.293333310173329 1.5035999848153854,4.258666623659077 2.6691999730441784,5.8813332739386945 l-6.225999937124628,12.551999873239373 l7.603599923212467,4.39066662232603 l7.7583999216491675,-11.669333215486613 c1.9874666465955608,0.19999999798023219 4.143733291486437,0.0026666666397364295 6.428133268416649,-0.627999993657929 l1.0833333223929242,10.785333224413987 l10.75253322474523,-6.207999937306408 l1.0833333223929242,-12.035999878450372 c3.2042666343072934,-1.069333322534308 6.632933266348407,-3.5493332974891874 8.620399912943968,-6.0439999389626164 l5.5655999437939006,1.9599999802062753 l7.603599923212467,-13.169333200338356 l-4.6655999528828564,-4.019999959402667 c1.1655999882287933,-2.967999970026646 1.2901333203044845,-7.713333255437622 1.108933322134394,-10.306666562581299 l9.881733233539299,-6.955999929752475 " stroke-width="0" opacity="1"/><path id="path84" style="fill:#f2f3f1;fill-opacity:1;fill-rule:nonzero;stroke:none" d="m96.76973235607137,4.986671029499803 l-8.647333246005307,-4.986666616307122 l-7.7583999216491675,11.669333215486613 l8.646399912681398,4.985333282987255 l7.7593332549730745,-11.667999882166747 " stroke-width="0" opacity="1"/><path id="path86" style="fill:#f2f3f1;fill-opacity:1;fill-rule:nonzero;stroke:none" d="m110.69786554874673,23.356004177324223 l-8.646799912677357,-4.986666616307122 l-9.881733233539299,4.454666621679705 l8.646799912677357,4.986666616307122 l9.881733233539299,-4.454666621679705 " stroke-width="0" opacity="1"/><path id="path88" style="fill:#dadad8;fill-opacity:1;fill-rule:nonzero;stroke:none" d="m70.7473326188674,92.55200347852491 l-8.646799912677357,-4.985333282987255 l-1.0833333223929242,-10.785333224413987 l8.646799912677357,4.986666616307122 l1.0833333223929242,10.783999891094119 " stroke-width="0" opacity="1"/><path id="path90" style="fill:#dadad8;fill-opacity:1;fill-rule:nonzero;stroke:none" d="m39.22706627051883,84.68800355794218 l8.646933246009345,4.987999949626991 l6.225466603796681,-12.553333206559241 l-8.646399912681398,-4.986666616307122 l-6.225999937124628,12.551999873239373 " stroke-width="0" opacity="1"/><path id="path92" style="fill:#e7e7e5;fill-opacity:1;fill-rule:nonzero;stroke:none" d="m76.12399923123597,66.77333707219287 c-8.24946658335663,4.762666618569262 -14.937599849147581,0.9013333242309131 -14.937599849147581,-8.623999912907612 c0,-9.525333237138524 6.688133265790952,-21.107999786833705 14.937599849147581,-25.870666405402968 c8.248933250028683,-4.762666618569262 14.936399849159699,-0.9026666575507812 14.936399849159699,8.622666579587744 c0,9.526666570458394 -6.6874665991310165,21.109333120153572 -14.936399849159699,25.871999738722835 zm34.57386631751075,-30.99999968693599 v-12.417333207932682 l-9.881733233539299,4.454666621679705 c-0.5953333273211577,-2.293333310173329 -1.5035999848153854,-4.258666623659077 -2.668799973048218,-5.8813332739386945 l6.225599937128668,-12.553333206559241 l-7.603199923216507,-4.389333289006163 l-7.7593332549730745,11.667999882166747 c-1.9869333132676132,-0.19866666466036398 -4.14319995815849,-0.0013333333198682147 -6.427066601760755,0.6293333269777972 l-1.0833333223929242,-10.783999891094119 l-10.752666558077216,6.206666603986538 l-1.0833333223929242,12.035999878450372 c-2.283733310270278,2.006666646401663 -4.439999955161154,4.299999956574992 -6.427599935088702,6.793333264728553 l-7.7593332549730745,-2.709333305972212 l-7.60306658988452,13.169333200338356 l6.225466603796681,5.363999945829827 c-1.165066654900846,2.967999970026646 -2.072933312399113,5.982666606248679 -2.668266639720271,8.963999909474007 l-9.881733233539299,6.954666596432607 v12.415999874612815 l9.881733233539299,-4.453333288359836 c0.5953333273211577,2.291999976853461 1.5031999848194253,4.258666623659077 2.668266639720271,5.8813332739386945 l-6.225466603796681,12.553333206559241 l7.60306658988452,4.389333289006163 l7.7593332549730745,-11.667999882166747 c1.9875999799275474,0.19733333134049574 4.143866624818424,0.0013333333198682147 6.427599935088702,-0.6293333269777972 l1.0833333223929242,10.783999891094119 l10.752666558077216,-6.207999937306408 l1.0833333223929242,-12.035999878450372 c2.283866643602265,-2.0053333130817945 4.440133288493142,-4.298666623255124 6.427066601760755,-6.791999931408685 l7.7593332549730745,2.709333305972212 l7.603199923216507,-13.169333200338356 l-6.225599937128668,-5.363999945829827 c1.1651999882328328,-2.967999970026646 2.0734666457270605,-5.982666606248679 2.668799973048218,-8.963999909474007 l9.881733233539299,-6.954666596432607 " stroke-width="0" opacity="1"/><path id="path94" style="fill:#ecedeb;fill-opacity:1;fill-rule:nonzero;stroke:none" d="m54.58906611538047,26.549337478408574 l8.647333246005307,4.986666616307122 l-7.7593332549730745,-2.709333305972212 l-8.646399912681398,-4.986666616307122 l7.7583999216491675,2.709333305972212 " stroke-width="0" opacity="1"/><path id="path96" style="fill:#f2f3f1;fill-opacity:1;fill-rule:nonzero;stroke:none" d="m47.87399951652818,41.99600398908183 l-8.646933246009345,-4.986666616307122 l7.603599923212467,-13.169333200338356 l8.646399912681398,4.986666616307122 l-7.60306658988452,13.169333200338356 " stroke-width="0" opacity="1"/><path id="path98" style="fill:#dadad8;fill-opacity:1;fill-rule:nonzero;stroke:none" d="m39.22706627051883,37.00933737277472 l8.646933246009345,4.986666616307122 l6.225466603796681,5.363999945829827 l-8.646399912681398,-4.986666616307122 l-6.225999937124628,-5.363999945829827 " stroke-width="0" opacity="1"/><path id="path100" style="fill:#f2f3f1;fill-opacity:1;fill-rule:nonzero;stroke:none" d="m42.78386623459929,51.33733722807858 l8.647333246005307,4.986666616307122 l-9.881733233539299,6.954666596432607 l-8.646799912677357,-4.985333282987255 l9.881199900211351,-6.955999929752475 " stroke-width="0" opacity="1"/><path id="path102" style="fill:#dadad8;fill-opacity:1;fill-rule:nonzero;stroke:none" d="m32.90266633438793,58.29333715783099 l8.646799912677357,4.985333282987255 v12.415999874612815 l-8.646799912677357,-4.985333282987255 v-12.415999874612815 " stroke-width="0" opacity="1"/><path id="path104" style="fill:#f2f3f1;fill-opacity:1;fill-rule:nonzero;stroke:none" d="m81.49999917694461,6.5000043475502025 l-8.646933246009345,-4.987999949626991 l-10.75253322474523,6.209333270626275 l8.646799912677357,4.985333282987255 l10.752666558077216,-6.206666603986538 " stroke-width="0" opacity="1"/><path id="path106" style="fill:#dadad8;fill-opacity:1;fill-rule:nonzero;stroke:none" d="m192.4319980566602,362.5693340849966 l125.36666540060888,-72.37999926904602 c1.2746666537940132,-0.7373333258871226 1.2759999871138814,-1.9319999804890429 0.0013333333198682147,-2.6693333063761657 l-11.598666549533599,-6.710666598896724 c-1.2746666537940132,-0.7373333258871226 -3.3413332995897456,-0.7386666592069909 -4.617333286703627,-0.0026666666397364295 l-125.39999873360559,72.3813326023659 c-1.2759999871138814,0.7359999925672543 -1.2759999871138814,1.9307999805011615 0,2.6666666397364294 l11.627999882570698,6.714666598856328 c1.2759999871138814,0.7358666592352676 3.343999966229482,0.7358666592352676 4.619999953343363,0 " stroke-width="0" opacity="1"/><path id="path108" style="fill:#32515c;fill-opacity:1;fill-rule:nonzero;stroke:none" d="m314.33199682561167,10.76133763784901 l-113.02266552526893,65.25333267435042 c-3.187999967804901,1.8413333147380044 -5.773333275029369,6.318666602855469 -5.773333275029369,9.999999899011609 V354.107867503781 c0,3.6827999628079953 2.585333307224468,5.174933281072514 5.773333275029369,3.3333332996705365 l113.02399885858881,-65.25186600769857 c3.1893333011247695,-1.8413333147380044 5.773333275029369,-6.3199999361753365 5.773333275029369,-9.999999899011609 l-0.0013333333198682147,-268.0946639592218 c0,-3.6813332961561405 -2.5839999739045996,-5.174666614408541 -5.773333275029369,-3.3333332996705365 " stroke-width="0" opacity="1"/><path id="path110" style="fill:#263d46;fill-opacity:1;fill-rule:nonzero;stroke:none" d="m201.30933130034276,76.01467031219948 l113.02266552526893,-65.25333267435042 c2.851999971198111,-1.6453333167173767 5.2133332806847195,-0.621333327058588 5.683999942598199,2.2453333106580735 c-0.43333332895716975,-3.4359999653003888 -2.802666638362987,-7.247999926803614 -5.683999942598199,-8.911999909999146 l-4.699999952535457,-2.7133333059318168 c-3.1893333011247695,-1.8413333147380044 -8.359999915573706,-1.8413333147380044 -11.547999883378607,0 l-113.02266552526893,65.25333267435042 c-1.5933333172425164,0.9199999907090681 -3.037333302659793,2.498666641433034 -4.082666625436473,4.309333289814069 l16.249333169233932,9.37999990527289 c1.043999989456812,-1.8093333150611672 2.4879999748740884,-3.3879999657851334 4.081333292116605,-4.309333289814069 " stroke-width="0" opacity="1"/><path id="path112" style="fill:#17272e;fill-opacity:1;fill-rule:nonzero;stroke:none" d="m179.2906648560391,344.7265342651882 c0,3.6827999628079953 2.5839999739045996,8.159866584261486 5.773333275029369,9.999999899011609 l4.701333285855324,2.7146666392516847 c2.8826666375550802,1.6639999831955319 7.371999925551358,1.8093333150611672 10.565333226635731,0.46399999531413866 c-2.721333305851026,1.0322666562419718 -4.7946666182461,-0.5010666616064751 -4.7946666182461,-3.797333294984675 V86.01467021121107 c0,-1.8413333147380044 0.646666660136084,-3.8813332941363727 1.6919999829127643,-5.69066660919754 l-16.249333169233932,-9.37999990527289 c-1.043999989456812,1.8093333150611672 -1.6906666495928961,3.8493332944595355 -1.6906666495928961,5.689333275877672 l0.0026666666397364295,268.0931972925699 " stroke-width="0" opacity="1"/><path id="path114" style="fill:#ffffff;fill-opacity:1;fill-rule:nonzero;stroke:none" d="m204.4173312689556,111.74533661802786 l106.8079989213632,-61.666666043904925 c1.914666647330756,-1.1053333221707498 3.4653332983374896,-0.2093333312193097 3.4653332983374896,1.9999999798023218 l0.0013333333198682147,198.3799979965923 c0,2.2093333110216316 -1.551999984326602,4.895999950556083 -3.4653332983374896,5.999999939406965 L204.41866460227547,318.12546786716143 c-1.913333314010888,1.1037333221869081 -3.4653332983374896,0.20786666456745467 -3.4653332983374896,-1.9999999798023218 V117.74533655743488 c0,-2.2093333110216316 1.5506666510067337,-4.895999950556083 3.4639999650176216,-5.999999939406965 " stroke-width="0" opacity="1"/><path id="path116" style="fill:#263d46;fill-opacity:1;fill-rule:nonzero;stroke:none" d="m257.82133072963717,53.558670538979015 c-1.1213333220091686,0.6479999934559523 -2.030666646159291,2.222666644220314 -2.030666646159291,3.5173332978123497 c0,1.2959999869119045 0.9093333241501224,1.819999981620113 2.030666646159291,1.1719999881641605 c1.1226666553290368,-0.646666660136084 2.031999979479159,-2.2213333109004454 2.031999979479159,-3.5173332978123497 c0,-1.2946666535920364 -0.9093333241501224,-1.819999981620113 -2.031999979479159,-1.1719999881641605 " stroke-width="0" opacity="1"/><path id="path118" style="fill:#263d46;fill-opacity:1;fill-rule:nonzero;stroke:none" d="m257.8239973962769,296.8173347490156 c-4.4293332886022085,2.5573333075072355 -8.018666585687443,8.775866578040603 -8.018666585687443,13.890533193055074 c0,5.1134666150265895 3.589333297085234,7.1869332607536505 8.018666585687443,4.629599953246415 c4.427999955282341,-2.5562666408513413 8.018666585687443,-8.774933244716694 8.018666585687443,-13.889466526399179 c0,-5.113333281694603 -3.5906666304051016,-7.186666594089677 -8.018666585687443,-4.630666619902309 " stroke-width="0" opacity="1"/><path id="path120" style="fill:#263d46;fill-opacity:1;fill-rule:nonzero;stroke:none" d="m238.63866425669318,74.19467033057936 c-2.243999977338205,1.2959999869119045 -4.061333292318582,4.445333288440628 -4.061333292318582,7.035999928944569 c0,2.5906666405039407 1.8173333149803765,3.639999963240226 4.06266662563845,2.3453333096481894 c2.242666644018337,-1.2946666535920364 4.059999958998714,-4.445333288440628 4.059999958998714,-7.035999928944569 c0,-2.5906666405039407 -1.8186666483002447,-3.639999963240226 -4.061333292318582,-2.3453333096481894 " stroke-width="0" opacity="1"/><path id="path122" style="fill:#263d46;fill-opacity:1;fill-rule:nonzero;stroke:none" d="m248.5706641563915,73.31600367278617 c0,1.7266666492293379 1.2919999869522998,2.381333309284631 2.8866666375146846,1.4599999852556949 l26.723999730118624,-15.42799984419511 c1.5933333172425164,-0.9199999907090681 2.8866666375146846,-3.0666666356968935 2.8866666375146846,-4.793333284926232 c-0.0013333333198682147,-1.7266666492293379 -1.293333320272168,-2.381333309284631 -2.887999970834553,-1.4599999852556949 l-26.722666396798754,15.42799984419511 c-1.5946666505623848,0.9199999907090681 -2.8866666375146846,3.0666666356968935 -2.8866666375146846,4.793333284926232 " stroke-width="0" opacity="1"/><path id="path124" style="fill:#263d46;fill-opacity:1;fill-rule:nonzero;stroke:none" d="m188.2786647652707,120.32933653133944 c1.7933333152227484,1.0359999895376026 3.249333300518839,3.5559999640885285 3.249333300518839,5.629333276483602 c0,2.0719999790752053 -1.4559999852960903,2.9119999705921806 -3.249333300518839,1.8746666477347098 c-1.7959999818624852,-1.0359999895376026 -3.250666633838707,-3.55466663076866 -3.250666633838707,-5.627999943163734 c0,-2.0719999790752053 1.4546666519762221,-2.9119999705921806 3.250666633838707,-1.875999981054578 " stroke-width="0" opacity="1"/><path id="path126" style="fill:#263d46;fill-opacity:1;fill-rule:nonzero;stroke:none" d="m188.2786647652707,145.364002945185 c1.7933333152227484,1.037333322857471 3.249333300518839,3.5573332974083964 3.249333300518839,5.629333276483602 c0,2.0719999790752053 -1.4559999852960903,2.9119999705921806 -3.249333300518839,1.875999981054578 c-1.7959999818624852,-1.0359999895376026 -3.250666633838707,-3.5559999640885285 -3.250666633838707,-5.627999943163734 c0,-2.0733333123950737 1.4546666519762221,-2.9119999705921806 3.250666633838707,-1.8773333143744462 " stroke-width="0" opacity="1"/><path id="path128" style="fill:#32515c;fill-opacity:1;fill-rule:nonzero;stroke:none" d="m187.27466477540995,120.83066985960988 c1.794666648542617,1.0359999895376026 3.249333300518839,3.5573332974083964 3.249333300518839,5.629333276483602 c0,2.0719999790752053 -1.4546666519762221,2.9119999705921806 -3.249333300518839,1.875999981054578 c-1.7959999818624852,-1.0359999895376026 -3.249333300518839,-3.5559999640885285 -3.249333300518839,-5.627999943163734 c0,-2.0733333123950737 1.4546666519762221,-2.913333303912049 3.249333300518839,-1.8773333143744462 " stroke-width="0" opacity="1"/><path id="path130" style="fill:#32515c;fill-opacity:1;fill-rule:nonzero;stroke:none" d="m187.27466477540995,145.86666960677536 c1.794666648542617,1.0359999895376026 3.249333300518839,3.5559999640885285 3.249333300518839,5.629333276483602 c0,2.0719999790752053 -1.4546666519762221,2.9119999705921806 -3.249333300518839,1.875999981054578 c-1.7959999818624852,-1.037333322857471 -3.249333300518839,-3.5573332974083964 -3.249333300518839,-5.629333276483602 c0,-2.0719999790752053 1.4546666519762221,-2.9119999705921806 3.249333300518839,-1.875999981054578 " stroke-width="0" opacity="1"/><path id="path132" style="fill:#ffffff;fill-opacity:1;fill-rule:nonzero;stroke:none" d="m336.3559966031949,58.35200382390519 c0,-2.2093333110216316 -1.5506666510067337,-3.103999968653204 -3.4653332983374896,-1.9999999798023218 l-12.78399987089644,7.3799999254705675 l-94.02399905046674,54.285332785114484 c-1.913333314010888,1.1053333221707498 -3.4639999650176216,3.790666628385334 -3.4639999650176216,5.999999939406965 l0.0013333333198682147,198.3799979965923 c0,2.2094666443536184 1.5506666510067337,3.104266635317177 3.4639999650176216,1.9999999798023218 l94.05599905014358,-54.305332784912515 l12.751999871219605,-7.359999925672545 c1.913333314010888,-1.1053333221707498 3.4653332983374896,-3.7919999617052023 3.4653332983374896,-5.999999939406965 l-0.0013333333198682147,-198.3799979965923 " stroke-width="0" opacity="1"/><path id="path134" style="fill:#27b6a1;fill-opacity:1;fill-rule:nonzero;stroke:none" d="m336.3559966031949,58.35200382390519 h0.6666666599341073 c-0.0013333333198682147,-0.8919999909918356 -0.22133333109812364,-1.6639999831955319 -0.6786666598129212,-2.239999977378601 c-0.45333332875519294,-0.5786666608228052 -1.1599999882853467,-0.9066666575103859 -1.9053333140916786,-0.8999999909110449 c-0.6119999938195104,0 -1.2466666540767806,0.19733333134049574 -1.8813333143340507,0.5613333276645184 l-12.78399987089644,7.381333258790436 l-94.02399905046674,54.285332785114484 c-1.0906666556521996,0.633333326937402 -2.0159999796407404,1.6613333165557955 -2.6933333061337934,2.8306666380802197 c-0.6733333265334484,1.1706666548442923 -1.1013333222111452,2.48666664155422 -1.1039999888508816,3.7466666288296833 l0.0013333333198682147,198.3799979965923 c0,0.8906666576719673 0.21999999777825544,1.6641333165275185 0.677333326493053,2.240133310710587 c0.45333332875519294,0.5786666608228052 1.161333321605215,0.9062666575144254 1.9053333140916786,0.8999999909110449 c0.6119999938195104,-0.0014666666518550365 1.2466666540767806,-0.19733333134049574 1.8799999810141825,-0.5629333276483602 l94.05733238346346,-54.30519945158052 l12.751999871219605,-7.359999925672545 c1.0893333223323314,-0.633333326937402 2.0159999796407404,-1.6613333165557955 2.6933333061337934,-2.8306666380802197 c0.6746666598533165,-1.1706666548442923 1.1013333222111452,-2.48666664155422 1.1053333221707498,-3.7466666288296833 l-0.0013333333198682147,-198.3799979965923 h-0.6666666599341073 h-0.6666666599341073 l0.0013333333198682147,198.3799979965923 c0.0026666666397364295,0.9479999904263006 -0.34533332984586756,2.079999978994415 -0.9266666573084091,3.0799999688955757 c-0.5759999941830687,1.0026666565408973 -1.3826666527033384,1.870666647775105 -2.205333311062027,2.342666643008453 l-12.751999871219605,7.359999925672545 l-94.05599905014358,54.30506611824854 c-0.478666661832689,0.27613333054470723 -0.8946666576315719,0.38439999611800624 -1.2146666543999434,0.38439999611800624 c-0.3906666627213869,-0.008266666583182931 -0.6426666601764794,-0.13226666533092687 -0.8626666579547349,-0.3989333293045698 c-0.217333331138519,-0.26773333062953747 -0.3866666627617822,-0.7317333259436762 -0.3866666627617822,-1.4078666524488477 l-0.0013333333198682147,-198.3799979965923 c-0.0026666666397364295,-0.9479999904263006 0.34533332984586756,-2.079999978994415 0.925333323988541,-3.0799999688955757 c0.5759999941830687,-1.0026666565408973 1.3826666527033384,-1.870666647775105 2.205333311062027,-2.342666643008453 l94.02399905046674,-54.285332785114484 l12.78399987089644,-7.3799999254705675 c0.478666661832689,-0.27733333053258863 0.8946666576315719,-0.385333329441914 1.2146666543999434,-0.3839999961220458 c0.3906666627213869,0.006666666599341074 0.6426666601764794,0.13199999866695325 0.8639999912746031,0.39733332932072796 c0.21599999781865079,0.26933333061337933 0.3866666627617822,0.733333325927518 0.3866666627617822,1.409333319100703 h0.6666666599341073 " stroke-width="0" opacity="1"/><path id="path136" style="fill:#27b6a1;fill-opacity:1;fill-rule:nonzero;stroke:none" d="m224.5346643991272,325.53853445896476 c-0.44399999551611546,0 -0.8613333246348666,-0.106799998921444 -1.2333333208780985,-0.3213333300882397 c-0.8693333245540759,-0.5026666615903169 -1.3479999863867649,-1.5035999848153854 -1.3479999863867649,-2.819866638189287 l-0.0013333333198682147,-198.3799979965923 c0,-2.4573333085171196 1.6679999831551364,-5.3479999459914085 3.797333294984675,-6.5773332669099025 l94.02399905046674,-54.285332785114484 l0.6666666599341073,1.1546666550058737 l-94.02399905046674,54.285332785114484 c-1.6973333161922373,0.9799999901031377 -3.130666635050568,3.4626666316977532 -3.130666635050568,5.422666611904029 l0.0013333333198682147,198.3799979965923 c0,0.8078666585081512 0.24799999749548793,1.4146666523801756 0.6813333264526577,1.6651999831834132 c0.43333332895716975,0.24946666414734295 1.08266665573299,0.16039999838014624 1.7826666486638028,-0.24279999754800188 l94.05599905014358,-54.30373278492867 l0.6666666599341073,1.1533333216860056 l-94.05733238346346,54.30413278492463 c-0.6506666600956887,0.37706666285873114 -1.2906666536324316,0.5650666609601493 -1.8813333143340507,0.5650666609601493 " stroke-width="0" opacity="1"/><path id="path138" style="fill:#27b6a1;fill-opacity:1;fill-rule:nonzero;stroke:none" d="m224.5346643991272,325.53853445896476 v-0.6666666599341073 c-0.3373333299266583,0 -0.6319999936175338,-0.07706666588838282 -0.9013333242309131,-0.2317333309930957 h0.0013333333198682147 c-0.3133333301690304,-0.18279999815393222 -0.5533333277453091,-0.44533332883598364 -0.7319999926076498,-0.8146666584394792 c-0.17733333154247255,-0.36973332959945593 -0.2826666638120615,-0.8509333247398945 -0.2826666638120615,-1.4281333189108447 l-0.0013333333198682147,-198.3799979965923 c-0.0026666666397364295,-1.0786666557733855 0.37599999620283653,-2.3199999765706933 1.0106666564601066,-3.415999965502366 c0.6319999936175338,-1.0986666555714089 1.5173333180100284,-2.046666645997709 2.4533333085575144,-2.5839999739045996 l93.44666572296381,-53.95199945514743 v0 l-93.44666572296381,53.95199945514743 c-0.9866666567024789,0.5746666608632005 -1.8253333148995856,1.5186666513298965 -2.4453333086383053,2.5879999738642043 c-0.6159999937791152,1.0719999891740444 -1.0146666564197113,2.2706666437355696 -1.018666656379316,3.411999965542761 l0.0013333333198682147,198.3799979965923 c0,0.47199999523334796 0.07066666595301538,0.9067999908423727 0.22799999769746468,1.2947999869240232 c0.1559999984245811,0.383866662790059 0.41199999583927827,0.7302666592918212 0.7866666587222466,0.9479999904263006 v0 c0.2786666638524568,0.1614666650360408 0.5919999940214873,0.2291999976853461 0.8999999909110449,0.22813333102945152 c0.5199999947486037,-0.0015999999838418578 1.0359999895376026,-0.1775999982064462 1.5479999843669972,-0.4698666619215588 l0.0013333333198682147,-0.001066666655894572 l93.47999905596053,-53.970666121625584 l0.33333332996705367,0.5759999941830687 l0.5759999941830687,-0.33333332996705367 l-0.33333332996705367,-0.5773333275029369 l-94.05599905014358,54.30386611826066 l-0.0013333333198682147,0.0014666666518550365 c-0.5706666609035959,0.33079999665930404 -1.099999988891277,0.47613332852493945 -1.5479999843669972,0.4745333285410976 v0.6666666599341073 v0.6666666599341073 c0.7346666592473862,0 1.4853333183331912,-0.2317333309930957 2.2159999776209727,-0.6546666600552934 l94.6346657109664,-54.63719944822771 l-1.3346666531880829,-2.307999976691879 l-94.63333237764652,54.63733278155969 v0 c-0.3639999963240226,0.21039999787520428 -0.6853333264122623,0.29479999702286225 -0.8826666577527581,0.2922666637151127 l-0.2346666642968058,-0.04946666616711077 h0.0013333333198682147 c-0.05866666607420145,-0.033333332996705364 -0.14399999854576717,-0.11466666550866647 -0.21999999777825544,-0.2990666636464405 c-0.07466666591262003,-0.18119999817009036 -0.1293333320272168,-0.4530666620912193 -0.1279999987073486,-0.7890666586980094 l-0.0013333333198682147,-198.3799979965923 c-0.003999999959604645,-0.8173333250792155 0.3146666634888986,-1.8413333147380044 0.8399999915169751,-2.745333305608654 c0.5199999947486037,-0.9066666575103859 1.2466666540767806,-1.6933333162326325 1.957333313566539,-2.099999978792438 l94.6013323779697,-54.617332781761675 l-1.3333333198682147,-2.3106666433316154 l-94.6013323779697,54.61866611508154 c-1.1946666546019205,0.6919999930116034 -2.206666644381895,1.8039999817816943 -2.941333303629281,3.071999968976366 c-0.7306666592877816,1.2706666538344085 -1.186666654682711,2.702666639372871 -1.1893333213224473,4.082666625436473 l0.0013333333198682147,198.3799979965923 c0,0.7386666592069909 0.13333333198682146,1.4162666523640175 0.41333332915914656,2.002666646442058 c0.27733333053258863,0.585466660754133 0.7106666594897584,1.0745333224817941 1.266666653874804,1.3947999859141393 h0.0013333333198682147 c0.47599999519295266,0.2759999972127204 1.0159999897395795,0.41199999583927827 1.566666650845152,0.4103999958554364 v-0.6666666599341073 " stroke-width="0" opacity="1"/><path id="path140" style="fill:#27b6a1;fill-opacity:1;fill-rule:nonzero;stroke:none" d="m320.4733300969247,270.66933501307994 l-0.6666666599341073,-1.1533333216860056 l12.751999871219605,-7.3613332589924125 c1.6973333161922373,-0.9813333234230059 3.131999968370436,-3.4639999650176216 3.131999968370436,-5.422666611904029 l-0.0013333333198682147,-198.3799979965923 c0,-0.8079999918401379 -0.24933333081535614,-1.4146666523801756 -0.6813333264526577,-1.6653333165154 c-0.4306666623174333,-0.24933333081535614 -1.08266665573299,-0.16266666502392219 -1.7839999819836712,0.24266666421601507 l-12.78399987089644,7.3799999254705675 l-0.6666666599341073,-1.1546666550058737 l12.78399987089644,-7.381333258790436 c1.1386666551674551,-0.6559999933751616 2.246666643977942,-0.7439999924864638 3.1173333018518856,-0.24133333089614684 c0.8679999912342077,0.5013333282704487 1.3479999863867649,1.503999984811346 1.3479999863867649,2.819999971521274 l0.0013333333198682147,198.3799979965923 c0,2.4573333085171196 -1.6679999831551364,5.346666612671541 -3.798666628304543,6.575999933590034 l-12.751999871219605,7.3613332589924125 " stroke-width="0" opacity="1"/><path id="path142" style="fill:#27b6a1;fill-opacity:1;fill-rule:nonzero;stroke:none" d="m320.4733300969247,270.66933501307994 l0.5773333275029369,-0.33333332996705367 l-0.33199999664718544,-0.5759999941830687 l12.173333210396798,-7.027999929025359 c0.9866666567024789,-0.5746666608632005 1.8253333148995856,-1.5199999846497647 2.4466666419581737,-2.5893333071840727 c0.6159999937791152,-1.0719999891740444 1.0146666564197113,-2.269333310415701 1.018666656379316,-3.4106666322228927 l-0.0013333333198682147,-198.3799979965923 c-0.0013333333198682147,-0.47333332855321614 -0.07066666595301538,-0.9079999908302542 -0.22799999769746468,-1.2946666535920364 c-0.1573333317444493,-0.3839999961220458 -0.41333332915914656,-0.7306666592877816 -0.7866666587222466,-0.9479999904263006 c-0.2786666638524568,-0.16133333170405395 -0.5933333273413555,-0.22933333101733294 -0.9013333242309131,-0.22933333101733294 c-0.5186666614287355,0.0026666666397364295 -1.0359999895376026,0.17733333154247255 -1.5493333176868656,0.47199999523334796 l-12.206666543393505,7.046666595503514 v0 l12.206666543393505,-7.046666595503514 c0.571999994223464,-0.3306666633273172 1.1013333222111452,-0.47599999519295266 1.5493333176868656,-0.47599999519295266 c0.3373333299266583,0.0013333333198682147 0.6306666602976656,0.07866666587222466 0.9013333242309131,0.23333333097693754 l0.006666666599341074,0.003999999959604645 l-0.006666666599341074,-0.003999999959604645 c0.3119999968491622,0.1813333315020772 0.5519999944254408,0.44399999551611546 0.7306666592877816,0.8146666584394792 c0.17733333154247255,0.36933332960349546 0.2839999971319297,0.8493333247560527 0.2839999971319297,1.4279999855788579 l0.0013333333198682147,198.3799979965923 c0.0013333333198682147,1.0773333224535173 -0.37599999620283653,2.3186666432508254 -1.0119999897799747,3.4146666321824974 c-0.6319999936175338,1.0986666555714089 -1.5173333180100284,2.046666645997709 -2.4533333085575144,2.5839999739045996 l-12.750666537899736,7.3613332589924125 l0.33199999664718544,0.5773333275029369 l0.5773333275029369,-0.33333332996705367 l-0.5773333275029369,0.33333332996705367 l0.33333332996705367,0.5773333275029369 l12.751999871219605,-7.3613332589924125 c1.1946666546019205,-0.6919999930116034 2.206666644381895,-1.8039999817816943 2.941333303629281,-3.071999968976366 c0.7319999926076498,-1.2706666538344085 1.187999988002579,-2.702666639372871 1.1906666546423155,-4.081333292116605 l-0.0013333333198682147,-198.3799979965923 c-0.0013333333198682147,-0.7386666592069909 -0.13466666530668966,-1.4173333190199122 -0.41333332915914656,-2.002666646442058 c-0.2786666638524568,-0.5853333274221462 -0.7119999928096266,-1.074666655813781 -1.267999987194672,-1.3946666525821525 v0 c-0.47733332851282084,-0.2759999972127204 -1.0173333230594477,-0.41333332915914656 -1.5679999841650203,-0.41199999583927827 c-0.7359999925672543,0 -1.4866666516530593,0.23333333097693754 -2.2159999776209727,0.6533333267354252 l-13.361333198399377,7.714666588757489 l1.3333333198682147,2.3106666433316154 l13.361333198399377,-7.714666588757489 c0.3639999963240226,-0.21199999785904614 0.6853333264122623,-0.2946666636908754 0.8826666577527581,-0.29333333037100723 l0.23333333097693754,0.050666666154992164 c0.05866666607420145,0.033333332996705364 0.14399999854576717,0.11466666550866647 0.21999999777825544,0.2986666636504801 c0.07466666591262003,0.1813333315020772 0.1293333320272168,0.45333332875519294 0.1293333320272168,0.789333325361983 l0.0013333333198682147,198.3799979965923 c0.0026666666397364295,0.8173333250792155 -0.3146666634888986,1.8399999814181363 -0.8399999915169751,2.7439999722887856 c-0.5213333280684719,0.9079999908302542 -1.2479999873966487,1.694666649552501 -1.9586666468864071,2.101333312112306 l-13.32933319872254,7.694666588959467 l1.3346666531880829,2.307999976691879 l0.5759999941830687,-0.33333332996705367 l-0.33333332996705367,-0.5773333275029369 " stroke-width="0" opacity="1"/><path id="path144" style="fill:#27b6a1;fill-opacity:1;fill-rule:nonzero;stroke:none" d="m279.48666384417584,104.45200335834869 c11.965333212497358,-6.90799993023722 21.66399978121875,-1.3079999867907186 21.66399978121875,12.50799987368372 c0,13.81599986047444 -9.698666568721393,30.615999690813943 -21.66399978121875,37.52399962105116 c-11.96399987917749,6.90799993023722 -21.66399978121875,1.3079999867907186 -21.66399978121875,-12.50799987368372 c0,-13.81599986047444 9.699999902041261,-30.615999690813943 21.66399978121875,-37.52399962105116 " stroke-width="0" opacity="1"/><path id="path146" style="fill:#27b6a1;fill-opacity:1;fill-rule:nonzero;stroke:none" d="m279.48666384417584,115.32533658187401 c3.8813332941363727,-2.2413333106984683 7.029333262345227,-0.42399999571809227 7.029333262345227,4.057333292358977 c0,4.482666621396937 -3.1479999682088544,9.933333233018198 -7.029333262345227,12.174666543716668 c-3.8813332941363727,2.239999977378601 -7.027999929025359,0.42399999571809227 -7.027999929025359,-4.058666625678845 c0,-4.482666621396937 3.1466666348889865,-9.93199989969833 7.027999929025359,-12.173333210396798 " stroke-width="0" opacity="1"/><path id="path148" style="fill:#27b6a1;fill-opacity:1;fill-rule:nonzero;stroke:none" d="m293.18666370582173,139.22533634051177 c0,-7.3639999256321484 -5.170666614448936,-10.349333228817082 -11.546666550058738,-6.666666599341073 l-3.9879999597258298,2.3013333100925384 c-6.375999935609802,3.6813332961561405 -11.546666550058738,12.63599987239107 -11.546666550058738,19.999999798023218 v1.9813333133241668 c3.686666629435613,1.2239999876390208 8.326666582577001,0.5613333276645184 13.381333198197401,-2.3573333095270033 c5.198666614166169,-3.001333303023351 9.966666566014904,-7.871999920501938 13.699999861645905,-13.550666529820663 v-1.707999982751183 " stroke-width="0" opacity="1"/><path id="path150" style="fill:#9cddd1;fill-opacity:1;fill-rule:nonzero;stroke:none" d="m276.347997209206,132.51600307493493 c-2.306666643372011,0 -3.8893332940555823,-1.8373333147783997 -3.8893332940555823,-5.017333282664092 c0,-4.482666621396937 3.1466666348889865,-9.93199989969833 7.027999929025359,-12.173333210396798 c1.1279999886085097,-0.651999993415557 2.1946666445030814,-0.9599999903051145 3.1399999682896453,-0.9599999903051145 c2.3053333100521427,0 3.8893332940555823,1.8386666480982679 3.8893332940555823,5.017333282664092 c0,4.482666621396937 -3.1479999682088544,9.933333233018198 -7.029333262345227,12.174666543716668 c-1.1279999886085097,0.6506666600956887 -2.1946666445030814,0.9586666569852463 -3.138666634969777,0.9586666569852463 " stroke-width="0" opacity="1"/><path id="path152" style="fill:#9cddd1;fill-opacity:1;fill-rule:nonzero;stroke:none" d="m269.8506639414882,157.4253361567129 c-1.330666653228478,0 -2.585333307224468,-0.19866666466036398 -3.745333295509815,-0.583999994102278 v-1.9813333133241668 c0,-7.3639999256321484 5.170666614448936,-16.318666501867078 11.546666550058738,-19.999999798023218 l3.9879999597258298,-2.3013333100925384 c1.85199998129695,-1.0706666558541762 3.6039999636037843,-1.5773333174040978 5.155999947930386,-1.5773333174040978 c3.7879999617455975,0 6.390666602128352,3.0199999695015056 6.390666602128352,8.243999916745171 v1.707999982751183 c-3.7333332956310006,5.678666609318726 -8.501333247479735,10.549333226797314 -13.699999861645905,13.550666529820663 c-3.4639999650176216,1.9999999798023218 -6.734666598654352,2.941333303629281 -9.635999902687587,2.941333303629281 " stroke-width="0" opacity="1"/><path id="path154" style="fill:#27b6a1;fill-opacity:1;fill-rule:nonzero;stroke:none" d="m237.56933093415887,184.9520025453922 l27.877333051804634,-16.09466650412922 c1.2759999871138814,-0.7373333258871226 2.3093333100117475,-0.13999999858616255 2.3093333100117475,1.3333333198682147 v0.9199999907090681 c0,1.473333318454377 -1.0333333228978663,3.2639999670373894 -2.3093333100117475,3.9999999596046436 l-27.877333051804634,16.09466650412922 c-1.2746666537940132,0.7373333258871226 -2.3093333100117475,0.13999999858616255 -2.3093333100117475,-1.3333333198682147 v-0.9199999907090681 c0,-1.473333318454377 1.0346666562177345,-3.2639999670373894 2.3093333100117475,-3.9999999596046436 " stroke-width="0" opacity="1"/><path id="path156" style="fill:#1db29c;fill-opacity:1;fill-rule:nonzero;stroke:none" d="m236.53733094458087,191.5213358123829 c-0.7573333256851459,0 -1.2773333204337496,-0.6039999939003012 -1.2773333204337496,-1.6493333166769812 v-0.9199999907090681 c0,-1.473333318454377 1.0346666562177345,-3.2639999670373894 2.3093333100117475,-3.9999999596046436 l27.877333051804634,-16.09466650412922 c0.3706666629233637,-0.21466666449878255 0.7213333260487041,-0.3159999968087669 1.031999989577998,-0.3159999968087669 c0.7573333256851459,0 1.2773333204337496,0.6039999939003012 1.2773333204337496,1.6493333166769812 v0.9199999907090681 c0,1.473333318454377 -1.0333333228978663,3.2639999670373894 -2.3093333100117475,3.9999999596046436 l-27.877333051804634,16.09466650412922 c-0.3706666629233637,0.21466666449878255 -0.7213333260487041,0.3159999968087669 -1.031999989577998,0.3159999968087669 " stroke-width="0" opacity="1"/><path id="path158" style="fill:#27b6a1;fill-opacity:1;fill-rule:nonzero;stroke:none" d="m236.414664279153,204.38000234919193 l84.34666581486326,-48.6973328415468 c0.6386666602168748,-0.36799999628362723 1.1546666550058737,-0.06933333263314716 1.1546666550058737,0.6666666599341073 v9.841333233947292 c0,0.7359999925672543 -0.515999994788999,1.6319999835186947 -1.1546666550058737,1.9999999798023218 l-84.34666581486326,48.6973328415468 c-0.6373333268970066,0.36799999628362723 -1.1546666550058737,0.07066666595301538 -1.1546666550058737,-0.665333326614239 v-9.842666567267159 c0,-0.7359999925672543 0.5173333281088672,-1.6306666501988265 1.1546666550058737,-1.9999999798023218 " stroke-width="0" opacity="1"/><path id="path160" style="fill:#3cbdab;fill-opacity:1;fill-rule:nonzero;stroke:none" d="m235.898664284364,217.04666888793997 c-0.37866666284257294,0 -0.6386666602168748,-0.3026666636100847 -0.6386666602168748,-0.8239999916785565 v-9.842666567267159 c0,-0.7359999925672543 0.5173333281088672,-1.6306666501988265 1.1546666550058737,-1.9999999798023218 l84.34666581486326,-48.6973328415468 c0.18533333146168185,-0.10666666558945717 0.36133332968428616,-0.1573333317444493 0.515999994788999,-0.1573333317444493 c0.3799999961624412,0 0.6386666602168748,0.3013333302902165 0.6386666602168748,0.8239999916785565 v9.841333233947292 c0,0.7359999925672543 -0.515999994788999,1.6319999835186947 -1.1546666550058737,1.9999999798023218 l-0.6039999939003012,0.3493333298054722 c-1.5799999840438341,-2.019999979600345 -2.735999972369576,-3.355999966108296 -3.782666628466125,-3.355999966108296 c-0.2906666637312708,0 -0.5733333275433322,0.10399999894972074 -0.8546666580355256,0.32399999672797614 c-0.9906666566620834,0.7786666588030373 -0.2706666639332475,2.4653333084363287 1.349333319706633,4.930666616872657 l-80.45466585416793,46.449332864248994 c-0.18533333146168185,0.10799999890932539 -0.359999996364418,0.15866666506431754 -0.515999994788999,0.15866666506431754 " stroke-width="0" opacity="1"/><path id="path162" style="fill:#27b6a1;fill-opacity:1;fill-rule:nonzero;stroke:none" d="m237.56933093415887,228.7293354366253 l27.877333051804634,-16.09466650412922 c1.2759999871138814,-0.7373333258871226 2.3093333100117475,-0.13999999858616255 2.3093333100117475,1.3333333198682147 v0.9199999907090681 c0,1.4719999851345087 -1.0333333228978663,3.2639999670373894 -2.3093333100117475,3.9999999596046436 l-27.877333051804634,16.09466650412922 c-1.2746666537940132,0.7373333258871226 -2.3093333100117475,0.13999999858616255 -2.3093333100117475,-1.3333333198682147 v-0.9199999907090681 c0,-1.473333318454377 1.0346666562177345,-3.262666633717521 2.3093333100117475,-3.9999999596046436 " stroke-width="0" opacity="1"/><path id="path164" style="fill:#1db29c;fill-opacity:1;fill-rule:nonzero;stroke:none" d="m236.53733094458087,235.29866870361596 c-0.7573333256851459,0 -1.2773333204337496,-0.6039999939003012 -1.2773333204337496,-1.6493333166769812 v-0.9199999907090681 c0,-1.473333318454377 1.0346666562177345,-3.262666633717521 2.3093333100117475,-3.9999999596046436 l27.877333051804634,-16.09466650412922 c0.3706666629233637,-0.21466666449878255 0.7213333260487041,-0.3159999968087669 1.031999989577998,-0.3159999968087669 c0.7573333256851459,0 1.2773333204337496,0.6039999939003012 1.2773333204337496,1.6493333166769812 v0.9199999907090681 c0,1.4719999851345087 -1.0333333228978663,3.2639999670373894 -2.3093333100117475,3.9999999596046436 l-27.877333051804634,16.09466650412922 c-0.3706666629233637,0.21466666449878255 -0.7213333260487041,0.3159999968087669 -1.031999989577998,0.3159999968087669 " stroke-width="0" opacity="1"/><path id="path166" style="fill:#27b6a1;fill-opacity:1;fill-rule:nonzero;stroke:none" d="m236.414664279153,248.15733524042506 l84.34666581486326,-48.6973328415468 c0.6386666602168748,-0.36799999628362723 1.1546666550058737,-0.07066666595301538 1.1546666550058737,0.6666666599341073 v9.841333233947292 c0,0.7359999925672543 -0.515999994788999,1.6319999835186947 -1.1546666550058737,1.9999999798023218 l-84.34666581486326,48.6973328415468 c-0.6373333268970066,0.36799999628362723 -1.1546666550058737,0.07066666595301538 -1.1546666550058737,-0.6666666599341073 v-9.841333233947292 c0,-0.7359999925672543 0.5173333281088672,-1.6319999835186947 1.1546666550058737,-1.9999999798023218 " stroke-width="0" opacity="1"/><path id="path168" style="fill:#3cbdab;fill-opacity:1;fill-rule:nonzero;stroke:none" d="m235.898664284364,260.8226684458532 c-0.37866666284257294,0 -0.6386666602168748,-0.3013333302902165 -0.6386666602168748,-0.8239999916785565 v-9.841333233947292 c0,-0.7359999925672543 0.5173333281088672,-1.6319999835186947 1.1546666550058737,-1.9999999798023218 l84.34666581486326,-48.6973328415468 c0.18533333146168185,-0.10666666558945717 0.36133332968428616,-0.1573333317444493 0.515999994788999,-0.1573333317444493 c0.37866666284257294,0 0.6386666602168748,0.3013333302902165 0.6386666602168748,0.8239999916785565 v9.841333233947292 c0,0.7359999925672543 -0.515999994788999,1.6319999835186947 -1.1546666550058737,1.9999999798023218 l-84.34666581486326,48.6973328415468 c-0.18533333146168185,0.10666666558945717 -0.359999996364418,0.1573333317444493 -0.515999994788999,0.1573333317444493 " stroke-width="0" opacity="1"/><path id="path170" style="fill:#27b6a1;fill-opacity:1;fill-rule:nonzero;stroke:none" d="m270.06666393930686,253.74533518399272 l33.29333299710932,-19.22133313922018 c1.2759999871138814,-0.7373333258871226 2.3093333100117475,-0.13999999858616255 2.3093333100117475,1.3333333198682147 v10.299999895981957 c0,1.473333318454377 -1.0333333228978663,3.2639999670373894 -2.3093333100117475,3.9999999596046436 l-33.29333299710932,19.22266647254005 c-1.2759999871138814,0.7359999925672543 -2.3106666433316154,0.13999999858616255 -2.3106666433316154,-1.3333333198682147 v-10.301333229301827 c0,-1.473333318454377 1.0346666562177345,-3.2639999670373894 2.3106666433316154,-3.9999999596046436 " stroke-width="0" opacity="1"/><path id="path172" style="fill:#1db29c;fill-opacity:1;fill-rule:nonzero;stroke:none" d="m269.03466394972884,269.69466835625633 c-0.7573333256851459,0 -1.2786666537536178,-0.602666660580433 -1.2786666537536178,-1.647999983357113 v-10.301333229301827 c0,-1.473333318454377 1.0346666562177345,-3.2639999670373894 2.3106666433316154,-3.9999999596046436 l33.29333299710932,-19.22133313922018 c0.3706666629233637,-0.21466666449878255 0.719999992728836,-0.3159999968087669 1.03066665625813,-0.3159999968087669 c0.7586666590050142,0 1.2786666537536178,0.6039999939003012 1.2786666537536178,1.6493333166769812 v10.299999895981957 c0,1.473333318454377 -1.0333333228978663,3.2639999670373894 -2.3093333100117475,3.9999999596046436 l-33.29333299710932,19.22266647254005 c-0.3706666629233637,0.21333333117891434 -0.7213333260487041,0.3146666634888986 -1.031999989577998,0.3146666634888986 " stroke-width="0" opacity="1"/><path id="path174" style="fill:#f6879b;fill-opacity:1;fill-rule:nonzero;stroke:none" d="m348.99732980886546,210.30533562268627 c0,0 -16.379999834581014,-22.594666438486765 -17.37866649116231,-25.283999744660953 c-0.7546666590454094,-2.026666646199686 0.05199999947486038,-5.04133328242172 0.23866666425641042,-6.442666601603213 c0.18666666478155003,-1.3999999858616252 0.4573333287147976,-4.519999954353247 0.6906666596917351,-5.387999945587454 c0.40799999587967367,-1.5146666513702918 -1.5559999842862065,-1.2039999878409977 -2.6573333064973514,0.1733333315828679 c-1.1279999886085097,1.410666652420571 -1.4893333182927957,4.163999957948434 -2.050666645957314,4.617333286703627 c-0.5599999943446502,0.45333332875519294 -4.9373332834719985,-5.905333273696322 -7.22133326040625,-8.847999910645472 c-2.2826666436143834,-2.9426666369491494 -3.710666629193241,-4.715999952373875 -5.098666615176053,-3.6253332967216756 c-0.9999999899011609,0.7866666587222466 -0.2559999974146972,2.4999999747529023 1.398666652541757,5.006666616105146 c1.6559999832763226,2.505333308032375 2.389333309203841,3.6666666296375903 2.6386666400191965,4.203999957544481 c0.24933333081535614,0.5386666612267587 -1.1119999887700909,0.5813333274625416 -1.8466666480174772,1.7119999827107875 c-0.5733333275433322,0.8826666577527581 -0.03866666627617823,2.3119999766514843 -0.7973333252811924,2.9919999697842736 c-0.7613333256447505,0.6826666597725258 -1.4693333184947723,1.9079999807314152 -0.6359999935771383,3.287999966795017 c1.0613333226150987,1.759999982226043 3.1906666344446375,4.273333290177628 5.638666609722679,5.970666606369865 c2.44933330859791,1.6973333161922373 3.44266663189973,2.293333310173329 4.886666617317006,4.601333286865208 c1.4453333187371447,2.307999976691879 14.495999853607229,25.871999738722835 15.371999844760646,27.28533305778314 c0.8746666578335488,1.4133333190603075 2.5759999739853905,4.2946666232955195 5.1506666146509135,4.3759999558074805 c2.5759999739853905,0.08266666583182931 23.63733309462371,-18.053333151015625 24.722666416996432,-18.957333141886277 c3.4719999649368307,-2.894666637433894 4.566666620548635,-3.3199999664718542 5.165333281169463,-0.7119999928096266 c0.18799999810141826,0.8159999917593473 0.310666663529294,1.746666649027361 0.44133332887637905,2.797333305083514 c0.41733332911875115,3.3013332999936993 2.6653333064165605,15.117333180665817 2.6653333064165605,15.117333180665817 c0,0 10.653333225747035,5.162666614529726 19.425333137160017,2.617333306901305 c8.771999911412985,-2.5439999743085533 11.713333215042264,-6.207999937306408 11.713333215042264,-6.207999937306408 l-4.387999955686293,-7.151999927773103 c1.1946666546019205,-2.9519999701882274 6.711999932216592,-14.89066651628822 8.443999914725403,-23.257333098461267 l-27.46666638928522,-4.434666621881681 c-0.5639999943042548,-0.12266666542787574 -1.4639999852152996,-0.34799999648560404 -2.613333306941701,-0.6506666600956887 c-1.5079999847709507,-0.39733332932072796 -5.298666613156285,-1.7293333158690745 -8.22266658362728,0.8133333251196109 c-9.451999904545772,8.22133325030741 -28.21466638173129,25.387999743610674 -28.21466638173129,25.387999743610674 " stroke-width="0" opacity="1"/><path id="path176" style="fill:#263d46;fill-opacity:1;fill-rule:nonzero;stroke:none" d="m403.45199592560317,348.8890675564848 l-4.923999950273316,6.842666597563677 c0,0 2.279999976974647,1.337599986491793 7.151999927773103,1.521333317969633 c4.405333288844581,0.16826666496736867 5.617333276604788,-1.278533320421631 5.77999994162871,-1.624933316923393 c0.7426666591665956,-1.5963999838782135 -0.41733332911875115,-4.4750666214736885 -0.7359999925672543,-6.94786659650128 l-7.271999926561242,0.20879999789136242 " stroke-width="0" opacity="1"/><path id="path178" style="fill:#263d46;fill-opacity:1;fill-rule:nonzero;stroke:none" d="m398.8053293058625,352.44693418722113 c0,0 -5.96666660641026,-0.38026666282641486 -10.093333231402385,-0.8999999909110449 c-4.126666624992124,-0.5203999947445641 -7.390666592029513,1.4931999849204134 -6.418666601845585,3.1931999677523875 c0.9693333235441919,1.6973333161922373 3.2386666339598933,3.110399968588571 6.774666598250398,4.29839995659115 c3.0293333027405835,1.0202666563631577 6.659999932741732,1.7614666488778983 9.822666567469136,2.708399972648304 c3.2413333005996297,0.9691999902122052 5.315999946314571,2.0795999789984543 7.151999927773103,1.4478666520448942 c2.046666645997709,-0.705733326206246 2.926666637110731,-1.5229333179534748 2.751999972207995,-3.0135999695661386 c-0.1733333315828679,-1.490533318280677 -1.6573333165961908,-6.29053326980625 -1.6573333165961908,-6.29053326980625 l-8.331999915856473,-1.4437333187533026 " stroke-width="0" opacity="1"/><path id="path180" style="fill:#f47084;fill-opacity:1;fill-rule:nonzero;stroke:none" d="m411.4599958447317,342.0145342925763 c0,0 -0.7466666591262001,6.214666603905748 -0.8039999918805334,7.549466590425818 c-0.057333332754333236,1.3333333198682147 -6.065333272080508,1.7614666488778983 -7.203999927247963,-0.6749333265172902 l-0.18666666478155003,-7.5983999232649815 l8.194666583910047,0.7238666593564538 " stroke-width="0" opacity="1"/><path id="path182" style="fill:#f6879b;fill-opacity:1;fill-rule:nonzero;stroke:none" d="M405.4013292392505,345.8385342539583 L407.5506625508781,355.26666749207845 c0,0 0.20266666461996863,1.1505333217142824 -4.709333285774534,1.8811999810020639 c-4.911999950394503,0.733333325927518 -12.611999872633442,-2.567599974070221 -13.923999859383766,-3.2385333006279065 c-1.310666653430455,-0.6718666598815933 -1.466666651855036,-2.006666646401663 3.355999966108296,-1.7399999824280201 c4.822666617963332,0.268133330625498 6.531999934034383,0.27759999719656225 6.531999934034383,0.27759999719656225 l-1.565333317525284,-4.180266624450827 l8.16133325091334,-2.428133308812005 " stroke-width="0" opacity="1"/><path id="path184" style="fill:#f47084;fill-opacity:1;fill-rule:nonzero;stroke:none" d="m415.51466247045096,189.18933583593338 l3.3946666323844745,-0.9373333238673549 c0,0 7.113333261496925,22.489333106217174 7.898666586899304,24.654666417683156 c0.7866666587222466,2.1666666447858485 1.6733333164346094,4.475999954797596 0.14399999854576717,7.155999927732708 c-1.8226666482598493,3.1893333011247695 -11.437333217829545,16.030666504775546 -11.437333217829545,16.030666504775546 l-6.102666605036818,-5.9719999396897325 l6.922666596755771,-12.685333205226193 l-6.12399993815471,-12.407999874693605 l5.3039999464357575,-15.838666506714521 " stroke-width="0" opacity="1"/><path id="path186" style="fill:#263d46;fill-opacity:1;fill-rule:nonzero;stroke:none" d="m380.55732949014606,159.9573361311426 c0,0 -2.7226666391708942,-4.3573332893293255 0.14399999854576717,-9.693333235441921 c3.3799999658659243,-6.286666603178632 10.934666556239229,-9.353333238875527 19.925333132110598,-8.17733325075176 c4.1533332913894885,0.5439999945062316 9.055999908544914,3.953333293409256 11.743999881399233,9.159999907494635 c2.9546666368279637,5.717333275594904 3.2306666340406838,17.241333159215884 3.963999959968202,21.59866644854521 l-35.7773329720238,-12.887999869846162 " stroke-width="0" opacity="1"/><path id="path188" style="fill:#f6879b;fill-opacity:1;fill-rule:nonzero;stroke:none" d="m380.3533294922062,162.4173361062995 c0,0 -2.1359999784288797,4.067999958917923 -1.7666666488253844,4.437333288521418 c0.3706666629233637,0.36933332960349546 1.794666648542617,0.6693333265738437 1.794666648542617,0.6693333265738437 l-0.027999999717232507,-5.1066666150952615 " stroke-width="0" opacity="1"/><path id="path190" style="fill:#f6879b;fill-opacity:1;fill-rule:nonzero;stroke:none" d="m386.8346627600857,149.56000290281025 c-2.32266664321043,1.5146666513702918 -6.321333269495205,4.283999956736574 -6.497333267717809,13.422666531113316 c-0.179999998182209,9.381333238592758 1.1453333217667963,12.40533320805387 2.5319999744297395,13.491999863746463 c0.9359999905474866,0.733333325927518 6.411999935246245,0.3626666630041544 8.763999911493775,-0.1906666647411547 c2.350666642927662,-0.5519999944254408 9.113333241299246,-3.8919999606953186 11.546666550058738,-8.970666576073349 c2.8613333044371885,-5.975999939649338 2.2826666436143834,-14.725333184624562 -1.9773333133645623,-17.26399982565364 c-5.993333272807625,-3.5759999638865514 -12.401333208094265,-1.770666648784989 -14.367999854899882,-0.48933332839163474 " stroke-width="0" opacity="1"/><path id="path192" style="fill:#27b6a1;fill-opacity:1;fill-rule:nonzero;stroke:none" d="m411.45866251141183,219.59866886216776 c4.111999958473573,6.398666602047562 8.01999991900731,12.034666545130506 8.853333243924945,19.225333139179785 c1.7613333155459117,15.186666513298965 -4.015999959443063,32.54799967130299 -5.2413332804019515,43.77733289123309 c0,0 3.879999960816505,5.0439999490614555 3.8759999608569,10.971999889195539 c-0.0026666666397364295,4.639999953141387 -7.4866665910600245,48.44119951080012 -7.4866665910600245,48.44119951080012 c0,0 -5.44399994502192,1.6589333165800326 -8.194666583910047,-0.7238666593564538 l-5.1439999480515715,-80.57866585291568 l2.709333305972212,-9.809333234270454 l10.627999892669537,-31.303999683865943 " stroke-width="0" opacity="1"/><path id="path194" style="fill:#13af96;fill-opacity:1;fill-rule:nonzero;stroke:none" d="m407.53199588439986,342.5760009535728 c-0.9093333241501224,0 -1.8626666478558958,-0.10666666558945717 -2.729333305770235,-0.41346666249113334 c-0.5506666611055726,-3.352133299480678 -1.4239999856192531,-8.63333324614669 -2.3959999758031816,-14.31559985542906 l-4.285333290056442,-67.13226598870871 l2.1479999783076935,33.647999660194266 l0.3573333297246815,-28.85733304190777 l4.146666624790147,-12.610666539313574 c7.961333252933109,-2.7679999720464137 10.741333224858337,-7.8159999210674735 10.741333224858337,-7.8159999210674735 v0 v0 c-7.171999927571126,4.007999959523853 -14.683999851708647,5.823999941184361 -14.683999851708647,5.823999941184361 c11.766666547836994,-3.4986666313341948 15.613333175656791,-8.523999913917496 16.969333161962766,-15.673333175050862 c0.10399999894972074,-0.5533333277453091 0.15333333178484465,-1.1079999888104863 0.15333333178484465,-1.6639999831955319 c0.0013333333198682147,-2.07599997903481 -0.6719999932135802,-4.149333291429884 -1.6133333170405395,-6.099999938397081 c1.9813333133241668,3.5653332973276055 3.4906666314149857,7.202666593928096 3.971999959887411,11.35866655195732 c0.23066666433720112,1.987999979923508 0.33199999664718544,4.0119999594834574 0.33199999664718544,6.054666605521562 c-0.005333333279472859,13.570666529618688 -4.509333287794302,27.962666384276197 -5.573333277049136,37.722666285711526 v0 v0 c0,0 3.879999960816505,5.0439999490614555 3.8759999608569,10.971999889195539 c-0.0026666666397364295,4.639999953141387 -7.4866665910600245,48.44119951080012 -7.4866665910600245,48.44119951080012 c0,0 -1.8439999813777408,0.5614666609965052 -3.92799996033176,0.5614666609965052 m4.646666619740728,-121.85999876935547 c-0.2639999973339065,-0.3946666626809915 -0.5066666615499215,-0.7679999922440915 -0.719999992728836,-1.1173333220495638 v0 c0.23999999757627863,0.3746666628829683 0.4813333284724255,0.7466666591262001 0.719999992728836,1.1173333220495638 " stroke-width="0" opacity="1"/><path id="path196" style="fill:#27b6a1;fill-opacity:1;fill-rule:nonzero;stroke:none" d="m398.12132931277006,260.71200178030415 l2.709333305972212,-9.809333234270454 c0,0 7.5119999241375215,-1.8159999816605084 14.683999851708647,-5.823999941184361 c0,0 -2.7799999719252275,5.04799994902106 -10.741333224858337,7.8159999210674735 l-4.146666624790147,12.610666539313574 l-0.3573333297246815,28.85733304190777 l-2.1479999783076935,-33.650666326834 " stroke-width="0" opacity="1"/><path id="path198" style="fill:#09a189;fill-opacity:1;fill-rule:nonzero;stroke:none" d="m400.2693292910777,294.3626681071381 l-2.1479999783076935,-33.647999660194266 l2.709333305972212,-9.811999900910191 v0 c0,0 7.5119999241375215,-1.8159999816605084 14.683999851708647,-5.823999941184361 c0,0 -2.7799999719252275,5.04799994902106 -10.741333224858337,7.8159999210674735 l-4.146666624790147,12.610666539313574 l-0.3573333297246815,28.85733304190777 " stroke-width="0" opacity="1"/><path id="path200" style="fill:#27b6a1;fill-opacity:1;fill-rule:nonzero;stroke:none" d="m411.45866251141183,219.59866886216776 c2.199999977782554,3.5906666304051016 7.457333258022924,9.730666568398231 6.341333269293229,15.63066650881508 c-1.3559999863059742,7.149333261133366 -5.202666614125774,12.174666543716668 -16.969333161962766,15.673333175050862 l-11.035999888549211,39.96666626304973 c0,0 5.746666608632005,5.378666612348378 7.503999924218312,10.493333227362848 c1.7546666489465703,5.114399948350497 8.10266658483914,44.47586621751205 8.10266658483914,44.47586621751205 c0,0 -1.9626666468460119,3.204133300975306 -8.16133325091334,2.428133308812005 c0,0 -21.613333115063757,-49.365332834800775 -23.14133309963273,-52.5439994693666 c-1.5253333179292374,-3.1786666345658237 -2.515999974591321,-5.554666610570981 -1.8293333148591904,-10.731999891619258 c0.6879999930519988,-5.175999947728409 8.05066658536428,-61.801332709211614 8.05066658536428,-61.801332709211614 l31.138666352202282,-3.5906666304051016 " stroke-width="0" opacity="1"/><path id="path202" style="fill:#13af96;fill-opacity:1;fill-rule:nonzero;stroke:none" d="m399.1026626361931,348.3880008948783 c-0.5733333275433322,0 -1.193333321282052,-0.037466666288296833 -1.8626666478558958,-0.12133333210800754 c0,0 -21.613333115063757,-49.365332834800775 -23.14133309963273,-52.5439994693666 c-1.1893333213224473,-2.4773333083151425 -2.0519999792771824,-4.4666666215585185 -2.050666645957314,-7.674666589161443 c0,-0.9079999908302542 0.07066666595301538,-1.914666647330756 0.22133333109812364,-3.057333302457816 c0.6879999930519988,-5.175999947728409 8.05066658536428,-61.801332709211614 8.05066658536428,-61.801332709211614 v0 c0,0 6.858666597402095,3.322666633111591 14.0986665242865,3.322666633111591 c1.7853333153035393,0 3.5919999637249704,-0.2013333313001004 5.326666612873518,-0.7053333262102855 c8.771999911412985,-2.5439999743085533 11.713333215042264,-6.207999937306408 11.713333215042264,-6.207999937306408 v0 v0 c1.9933333132029807,3.2533333004784435 6.498666601037678,8.601333246469853 6.494666601078073,13.966666525619548 c0,0.5559999943850454 -0.04933333283512394,1.1106666554502227 -0.15333333178484465,1.6639999831955319 c-1.3559999863059742,7.149333261133366 -5.202666614125774,12.174666543716668 -16.969333161962766,15.673333175050862 v0 l-2.709333305972212,9.811999900910191 l-8.326666582577001,30.15466636213954 v0 c0,0 5.746666608632005,5.378666612348378 7.503999924218312,10.493333227362848 c1.7546666489465703,5.114399948350497 8.10266658483914,44.47586621751205 8.10266658483914,44.47586621751205 c0,0 -1.5613333175656794,2.549466640920013 -6.298666603057446,2.549466640920013 " stroke-width="0" opacity="1"/><path id="path204" style="fill:#27b6a1;fill-opacity:1;fill-rule:nonzero;stroke:none" d="m415.51466247045096,189.18933583593338 l-27.46666638928522,-4.434666621881681 c-0.5626666609843866,-0.12266666542787574 -1.4693333184947723,-0.3506666631253404 -2.617333306901305,-0.651999993415557 l-0.0026666666397364295,-0.0013333333198682147 c0,0 -1.1706666548442923,17.22133315941786 -8.21466658370807,21.173333119507248 h-0.0013333333198682147 c0.16666666498352684,0.8213333250388202 0.3119999968491622,1.7453333157074928 0.4426666621962473,2.797333305083514 c0.41733332911875115,3.3013332999936993 2.6653333064165605,15.117333180665817 2.6653333064165605,15.117333180665817 c0,0 10.653333225747035,5.162666614529726 19.425333137160017,2.617333306901305 c8.771999911412985,-2.5439999743085533 11.713333215042264,-6.207999937306408 11.713333215042264,-6.207999937306408 l-4.387999955686293,-7.151999927773103 c1.1946666546019205,-2.9519999701882274 6.711999932216592,-14.89066651628822 8.443999914725403,-23.257333098461267 " stroke-width="0" opacity="1"/><path id="path206" style="fill:#fbcad2;fill-opacity:1;fill-rule:nonzero;stroke:none" d="m410.21066252401516,205.0280023426479 v0 c1.9813333133241668,-4.825333284603068 4.290666623335914,-10.943999889478304 5.3039999464357575,-15.838666506714521 v0 c-1.013333323099843,4.894666617236216 -3.322666633111591,11.013333222111452 -5.3039999464357575,15.838666506714521 " stroke-width="0" opacity="1"/><path id="path208" style="fill:#9cddd1;fill-opacity:1;fill-rule:nonzero;stroke:none" d="m394.418662683496,226.51200212568443 c-7.239999926884405,0 -14.0986665242865,-3.322666633111591 -14.0986665242865,-3.322666633111591 c0,0 -2.24799997729781,-11.815999880672118 -2.6653333064165605,-15.117333180665817 c-0.13066666534708501,-1.0519999893760215 -0.2759999972127204,-1.9759999800446941 -0.4426666621962473,-2.797333305083514 h0.0013333333198682147 c7.043999928863777,-3.9519999600893883 8.21466658370807,-21.173333119507248 8.21466658370807,-21.173333119507248 l0.0026666666397364295,0.0013333333198682147 c1.1479999884065326,0.3013333302902165 2.0546666459169187,0.5293333279876812 2.617333306901305,0.651999993415557 l27.46666638928522,4.434666621881681 c-1.013333323099843,4.894666617236216 -3.322666633111591,11.013333222111452 -5.3039999464357575,15.838666506714521 c-1.4039999858212298,3.422666632101707 -2.643999973298669,6.193333270787857 -3.1399999682896453,7.418666591746746 v0 v0 l4.387999955686293,7.151999927773103 c0,0 -2.941333303629281,3.663999962997854 -11.713333215042264,6.207999937306408 c-1.7346666491485472,0.5039999949101851 -3.541333297569978,0.7053333262102855 -5.326666612873518,0.7053333262102855 " stroke-width="0" opacity="1"/><path id="path210" style="fill:#27b6a1;fill-opacity:1;fill-rule:nonzero;stroke:none" d="m408.2679958769672,209.63466896279257 c-0.11199999886893003,0.2586666640544336 -8.829333244167318,4.929333283552789 -11.41866655135139,5.643999943002152 c4.082666625436473,-0.2013333313001004 7.475999924501079,-1.161333321605215 10.221333230109732,-2.8319999714000876 l1.1973333212416568,-2.8119999716020647 " stroke-width="0" opacity="1"/><path id="path212" style="fill:#263d46;fill-opacity:1;fill-rule:nonzero;stroke:none" d="m386.14932943367336,150.02133623148467 c0,0 -1.279999987073486,8.670666579102999 1.821333314939981,13.75599986108037 c0,0 1.1639999882449514,-3.451999965138808 4.095999958635155,-2.7919999718040414 c2.9519999701882274,0.6639999932943709 3.0746666356161025,4.497333287915487 1.025333322978657,6.670666599300677 c-2.050666645957314,2.17333331138519 -4.331999956251829,1.3879999859828114 -4.331999956251829,1.3879999859828114 c0,0 -0.45999999535453406,6.266666603380608 -0.707999992850022,11.519999883661376 c-0.23866666425641042,5.063999948859479 -1.6506666499968496,16.70533316462886 4.261333290298814,21.38533311736629 c5.913333273615532,4.681333286057301 20.73199979063087,6.261333270101136 27.6773330538244,-3.4479999651792026 c3.8653332942979537,-5.401333278786137 -1.2693333205145403,-14.949333182362423 -3.6559999630786444,-25.655999740904182 c-2.1959999778229493,-9.843999900587027 -3.430666632020916,-24.431999753265163 -13.875999859868509,-26.77199972963388 c-10.443999894527725,-2.3399999763687167 -16.309333168628,3.9479999601297835 -16.309333168628,3.9479999601297835 " stroke-width="0" opacity="1"/><path id="path214" style="fill:#e7e7e5;fill-opacity:1;fill-rule:nonzero;stroke:none" d="m424.4653290467262,31.600004094069334 l-2.2026666444222904,1.2719999871542766 c0.17599999822260434,-0.8106666584798745 0.3013333302902165,-1.6146666503604077 0.3013333302902165,-2.389333309203841 c0,-4.461333288279046 -3.131999968370436,-6.267999936700477 -6.994666596028654,-4.0373332925609535 c-1.123999988648905,0.6479999934559523 -2.169333311425585,1.5853333173233073 -3.1106666352525445,2.671999973015902 l0.0013333333198682147,-0.03199999967683715 c0,-6.005333272686438 -4.214666624103426,-8.439999914765798 -9.415999904909333,-5.437333278422579 c-5.199999947486037,3.002666636343219 -9.415999904909333,10.303999895941562 -9.415999904909333,16.309333168628 c0,0.3066666635696893 0.01733333315828679,0.5959999939810919 0.03999999959604644,0.8826666577527581 c-1.099999988891277,-0.19599999802062754 -2.4133333089614686,0.07466666591262003 -3.825333294701908,0.8893333243520991 c-3.8639999609780857,2.230666644139523 -6.994666596028654,7.653333256043552 -6.994666596028654,12.114666544322597 c0,0.614666660459247 0.06533333267354252,1.1719999881641605 0.17733333154247255,1.6826666496736868 l-1.173333321484029,0.6759999931731848 c-3.1893333011247695,1.8413333147380044 -5.773333275029369,5.433333278462975 -5.773333275029369,8.023999918966915 c0,2.5906666405039407 2.5839999739045996,3.1973333010439786 5.773333275029369,1.3573333196258424 l42.61333290298814,-24.602666418208297 c3.187999967804901,-1.8413333147380044 5.773333275029369,-5.433333278462975 5.773333275029369,-8.023999918966915 c0,-2.5906666405039407 -2.585333307224468,-3.1986666343638466 -5.773333275029369,-1.3573333196258424 " stroke-width="0" opacity="1"/></g></g><rect fill="#ffffff" stroke-dashoffset="" fill-rule="nonzero" id="svg_4" x="0" y="-1.3076692164613632" width="473" height="437.6153382113416" style="color: rgb(0, 0, 0);" class="selected" opacity="0.82" fill-opacity="1"/></g></svg>