<?xml version="1.0" encoding="UTF-8" standalone="no"?>
<svg
   xmlns:dc="http://purl.org/dc/elements/1.1/"
   xmlns:cc="http://creativecommons.org/ns#"
   xmlns:rdf="http://www.w3.org/1999/02/22-rdf-syntax-ns#"
   xmlns:svg="http://www.w3.org/2000/svg"
   xmlns="http://www.w3.org/2000/svg"
   viewBox="0 0 628.29333 609.26666"
   height="609.26666"
   width="628.29333"
   xml:space="preserve"
   id="svg2"
   version="1.1"><metadata
     id="metadata8"><rdf:RDF><cc:Work
         rdf:about=""><dc:format>image/svg+xml</dc:format><dc:type
           rdf:resource="http://purl.org/dc/dcmitype/StillImage" /></cc:Work></rdf:RDF></metadata><defs
     id="defs6"><clipPath
       id="clipPath176"
       clipPathUnits="userSpaceOnUse"><path
         id="path174"
         d="m 2188.63,3255.77 c -0.23,0.14 -0.46,0.27 -0.69,0.4 l -24.53,14.22 25.22,-14.62" /></clipPath></defs><g
     transform="matrix(1.3333333,0,0,-1.3333333,0,609.26667)"
     id="g10"><g
       transform="scale(0.1)"
       id="g12"><path
         id="path14"
         style="fill:#ededeb;fill-opacity:1;fill-rule:nonzero;stroke:none"
         d="m 4022.09,2322.16 c 920.11,-531.22 920.11,-1392.512 -0.01,-1923.738 -920.11,-531.223 -2411.9,-531.231 -3332.002,0 -920.109,531.219 -920.105,1392.508 0.008,1923.728 920.114,531.23 2411.904,531.23 3332.004,0.01" /><path
         id="path16"
         style="fill:#dadbd8;fill-opacity:1;fill-rule:nonzero;stroke:none"
         d="m 3709.24,888.289 c -154.51,89.199 -154.51,233.821 0,323.021 154.49,89.19 404.98,89.19 559.47,-0.01 154.5,-89.2 154.5,-233.812 0,-323.011 -154.49,-89.199 -404.98,-89.199 -559.47,0" /><path
         id="path18"
         style="fill:#dadbd8;fill-opacity:1;fill-rule:nonzero;stroke:none"
         d="m 566.793,875.91 -406.402,234.64 c -22.918,13.23 -22.918,34.68 0,47.9 l 2363.889,1364.8 c 22.91,13.23 60.05,13.23 82.97,0 l 406.42,-234.63 c 22.91,-13.23 22.91,-34.68 0,-47.9 L 649.766,875.91 c -22.914,-13.23 -60.059,-13.23 -82.973,0" /><path
         id="path20"
         style="fill:#26b6a6;fill-opacity:1;fill-rule:nonzero;stroke:none"
         d="m 2027.61,1294.09 349.37,202.01 c 36.01,20.79 54.02,48.04 54.02,75.29 0,27.26 0.15,48.6 0.15,48.6 l -362.49,204.4 c -19.21,11.09 -34.78,38.05 -34.78,60.24 v 430.74 L 1423.66,1962.75 1423.63,1532 c 0,-22.17 15.57,-49.14 34.78,-60.23 l 308.36,-177.69 c 72.03,-41.58 188.8,-41.57 260.84,0.01" /><path
         id="path22"
         style="fill:#0b584b;fill-opacity:1;fill-rule:nonzero;stroke:none"
         d="m 1897.18,1262.9 c -47.2,0 -94.4,10.4 -130.41,31.18 l -196.62,113.3 v 48.35 l -35.94,20.83 35.91,-20.74 0.08,0.05 196.52,-113.2 c 36.02,-20.8 83.24,-31.2 130.45,-31.2 2,0 3.99,0.02 5.98,0.06 v -48.29 0 c 45.17,0.81 89.95,10.85 124.49,30.93 l 136.46,78.84 -136.49,-78.92 c -36.02,-20.79 -83.22,-31.19 -130.43,-31.19 m 34.11,50.4 c 35.28,3.81 68.99,13.59 96.28,29.34 l 237.36,137.16 -237.29,-137.24 c -27.33,-15.73 -61.07,-25.55 -96.35,-29.26 m 499.79,294.12 c 0,4.1 0,7.36 0,9.52 0.03,0.58 0.05,1.17 0.06,1.75 -0.01,-1.9 -0.03,-5.84 -0.06,-11.27" /><path
         id="path24"
         style="fill:#0b584b;fill-opacity:1;fill-rule:nonzero;stroke:none"
         d="m 1488.03,1505.87 c -7.24,7.36 -13.29,16.76 -17.26,26.6 3.98,-9.82 10.04,-19.23 17.26,-26.6" /><path
         id="path26"
         style="fill:#8f9192;fill-opacity:1;fill-rule:nonzero;stroke:none"
         d="m 1570.15,1407.35 -111.84,64.44 c -19.07,11.05 -34.74,37.95 -34.74,60.24 v 53.84 l 0.06,0.03 v -53.9 0 c 0,-22.17 15.57,-49.14 34.78,-60.23 l 111.74,-64.39 v -0.03" /><path
         id="path28"
         style="fill:#09362e;fill-opacity:1;fill-rule:nonzero;stroke:none"
         d="m 1570.15,1407.38 -111.74,64.39 c -19.21,11.09 -34.78,38.06 -34.78,60.23 v 53.9 l 42.09,24.3 v -53.95 c 0,-7.64 1.85,-15.85 5.05,-23.78 3.97,-9.84 10.02,-19.24 17.26,-26.6 3.87,-3.95 8.08,-7.32 12.47,-9.86 l 33.71,-19.45 35.94,-20.83 v -48.35" /><path
         id="path30"
         style="fill:#26b6a6;fill-opacity:1;fill-rule:nonzero;stroke:none"
         d="m 1465.73,1556.25 c 0,-22.18 15.56,-49.15 34.77,-60.24 l 266.22,-153.34 c 72.03,-41.59 188.81,-41.6 260.85,-0.03 l 349.55,201.99 c 72.04,41.57 72.05,108.98 0.02,150.56 l -266.39,153.46 c -19.21,11.09 -34.78,38.06 -34.78,60.23 v 336.58 l -610.24,-352.63 v -336.58" /><path
         id="path32"
         style="fill:#06ab91;fill-opacity:1;fill-rule:nonzero;stroke:none"
         d="m 1897.17,1311.47 c -47.21,0 -94.43,10.4 -130.45,31.2 l -196.52,113.2 611.38,351.83 v 0.05 l -70.83,40.9 c -19.21,11.09 -34.78,38.06 -34.78,60.23 v 0 c 0,-22.17 15.57,-49.14 34.78,-60.23 l 266.39,-153.46 c 36.01,-20.79 54.02,-48.04 54.01,-75.28 0,-1 -0.02,-1.98 -0.07,-2.97 0,1.95 0,3.01 0,3.01 v 0 0 c 0,-27.31 -18.07,-54.62 -54.01,-75.29 l -112.14,-64.86 -237.36,-137.16 c -27.29,-15.75 -61,-25.53 -96.28,-29.34 -9.3,-0.98 -18.71,-1.54 -28.14,-1.66 v -0.11 c -1.99,-0.04 -3.98,-0.06 -5.98,-0.06" /><path
         id="path34"
         style="fill:#07211e;fill-opacity:1;fill-rule:nonzero;stroke:none"
         d="m 1570.12,1455.82 -35.91,20.74 -13.91,8.05 49.9,-28.74 -0.08,-0.05" /><path
         id="path36"
         style="fill:#07211e;fill-opacity:1;fill-rule:nonzero;stroke:none"
         d="m 1488.18,1505.72 c -0.05,0.05 -0.1,0.1 -0.15,0.15 -7.22,7.37 -13.28,16.78 -17.26,26.6 -0.28,0.72 -0.56,1.44 -0.83,2.16 3.96,-10.67 10.43,-20.98 18.24,-28.91" /><path
         id="path38"
         style="fill:#061513;fill-opacity:1;fill-rule:nonzero;stroke:none"
         d="m 1534.21,1476.56 -33.71,19.45 c -4.39,2.54 -8.6,5.91 -12.47,9.86 0.05,-0.05 0.1,-0.1 0.15,-0.15 3.83,-3.89 7.98,-7.2 12.32,-9.71 l 19.8,-11.4 13.91,-8.05 m -63.44,55.91 c -3.2,7.93 -5.05,16.14 -5.05,23.78 v 53.95 h 0.01 v -53.95 0 c 0,-6.95 1.52,-14.36 4.21,-21.62 0.27,-0.72 0.55,-1.44 0.83,-2.16" /><path
         id="path40"
         style="fill:#616466;fill-opacity:1;fill-rule:nonzero;stroke:none"
         d="m 2075.97,1908.88 v 0 53.64 -53.64" /><path
         id="path42"
         style="fill:#0a483e;fill-opacity:1;fill-rule:nonzero;stroke:none"
         d="m 1570.2,1455.87 -49.9,28.74 -19.8,11.4 c -4.34,2.51 -8.49,5.82 -12.32,9.71 -7.81,7.93 -14.28,18.24 -18.24,28.91 -2.69,7.26 -4.21,14.67 -4.21,21.62 v 53.95 l 610.24,352.32 v -53.64 0 c 0,-22.17 15.57,-49.14 34.78,-60.23 l 70.83,-40.9 v -0.05 L 1570.2,1455.87" /><path
         id="path44"
         style="fill:#26b6a6;fill-opacity:1;fill-rule:nonzero;stroke:none"
         d="m 2431.08,1619.95 c 0,0 0,-21.28 0,-48.59 0,-27.3 -18.07,-54.41 -54.01,-75.3 l -349.43,-201.89 c -34.54,-20.08 -79.32,-30.12 -124.49,-30.93 v 48.4 c 45.17,0.6 89.95,11.04 124.49,30.92 l 349.43,202.1 c 35.94,20.67 54.01,47.98 54.01,75.29" /><path
         id="path46"
         style="fill:#0b7465;fill-opacity:1;fill-rule:nonzero;stroke:none"
         d="m 1903.15,1263.24 v 48.4 c 45.17,0.6 89.95,11.04 124.49,30.92 l 349.43,202.1 c 35.94,20.67 54.01,47.98 54.01,75.29 0,0 0,-21.28 0,-48.59 0,-27.3 -18.07,-54.41 -54.01,-75.3 l -349.43,-201.89 c -34.54,-20.08 -79.32,-30.12 -124.49,-30.93" /><path
         id="path48"
         style="fill:#26b6a6;fill-opacity:1;fill-rule:nonzero;stroke:none"
         d="m 485.91,1137.9 c 22.52,-12.99 60.246,-12.3 84.254,1.56 300.016,173.21 2059.996,1189.32 2359.976,1362.5 24,13.86 43.45,47.56 43.45,75.29 v 1909.14 c 0,27.72 -18.25,60.74 -40.77,73.74 -22.53,13 -60.24,12.3 -84.26,-1.56 L 488.633,3196.07 c -24.012,-13.86 -43.473,-47.57 -43.473,-75.3 l -0.027,-1909.13 c 0,-27.72 18.254,-60.73 40.777,-73.74" /><path
         id="path50"
         style="fill:#26b6a6;fill-opacity:1;fill-rule:nonzero;stroke:none"
         d="M 570.18,1139.51 2930.14,2502 c 24.01,13.87 43.47,47.58 43.47,75.3 v 1909.15 c 0,27.72 -19.46,38.95 -43.47,25.09 L 570.207,3149.04 c -24.008,-13.86 -43.469,-47.57 -43.469,-75.3 l -0.031,-1909.13 c 0,-27.72 19.465,-38.96 43.473,-25.1" /><path
         id="path52"
         style="fill:#0b7465;fill-opacity:1;fill-rule:nonzero;stroke:none"
         d="m 526.711,1292.4 0.027,1781.34 c 0,3.55 0.317,7.19 0.922,10.87 1.016,6.01 2.762,12.15 5.117,18.17 4.536,11.45 11.348,22.48 19.504,31.46 5.481,6.01 11.539,11.08 17.922,14.76 l 826.407,477.16 1533.53,885.38 c 6.98,4.03 13.57,5.94 19.41,5.94 0.33,0 0.65,-0.01 0.97,-0.02 1.91,-0.07 3.74,-0.35 5.46,-0.83 0.02,0 0.04,-0.01 0.06,-0.01 l 0.01,-0.01 c 10.66,-2.99 17.56,-13.66 17.56,-30.16 v -290.02 l -81.61,-47.13 -0.01,215.89 c 0,11.8 -5.87,18.62 -14.43,18.62 -3.51,0 -7.47,-1.15 -11.65,-3.56 L 634.348,3091.85 c -14.403,-8.31 -26.082,-28.54 -26.082,-45.18 l -0.02,-1536.55 v 0 c 0,-11.8 5.875,-18.62 14.438,-18.62 3.504,0 7.461,1.14 11.644,3.56 l 186.656,107.76 V 1462.3 L 526.707,1292.4" /><path
         id="path54"
         style="fill:#26b6a6;fill-opacity:1;fill-rule:nonzero;stroke:none"
         d="m 563.777,1089.89 c -24.089,-10.64 -57.422,-10.24 -77.906,1.61 -22.488,13.05 -40.762,45.98 -40.762,73.89 v 173.83 l 81.524,-47.19 V 1118.2 c 0,-25.3 16.066,-36.74 37.144,-28.31" /><path
         id="path56"
         style="fill:#0b7465;fill-opacity:1;fill-rule:nonzero;stroke:none"
         d="m 525.34,1082.24 c -14.563,0 -28.766,3.07 -39.469,9.26 -22.488,13.05 -40.762,45.98 -40.762,73.89 v 173.83 l 81.524,-47.19 v -173.83 0 c 0,-19.75 9.789,-31.05 24.109,-31.05 4.028,0 8.41,0.89 13.035,2.74 -11.504,-5.08 -25.121,-7.65 -38.437,-7.65" /><path
         id="path58"
         style="fill:#26b6a6;fill-opacity:1;fill-rule:nonzero;stroke:none"
         d="m 526.633,1292.03 0.074,-173.76 c 0,-27.72 19.465,-38.96 43.473,-25.1 l 2359.96,1362.49 c 24.01,13.86 43.47,47.58 43.47,75.3 V 2705.1 L 526.633,1292.03" /><path
         id="path60"
         style="fill:#06ab91;fill-opacity:1;fill-rule:nonzero;stroke:none"
         d="m 526.707,1292.08 v 0.32 l 0.004,-0.32 -0.078,-0.05" /><path
         id="path62"
         style="fill:#0a483e;fill-opacity:1;fill-rule:nonzero;stroke:none"
         d="m 526.711,1292.08 v 0.32 l 294.273,169.9 v -0.29 L 526.711,1292.08" /><path
         id="path64"
         style="fill:#06ab91;fill-opacity:1;fill-rule:nonzero;stroke:none"
         d="m 550.766,1087.23 c -14.262,0.01 -24.059,11.38 -24.059,31.04 v 173.81 h 0.004 l 294.273,169.93 v -70.92 c 0,-11.79 5.079,-22.33 12.836,-26.44 0.575,-0.31 1.758,-0.96 3.379,-1.87 8.739,-4.94 28.758,-16.55 35.5,-20.18 2.336,-1.27 4.918,-1.98 7.68,-1.98 3.148,0 6.531,0.91 10.059,2.95 l 2006.502,1159.11 24.57,-52 -845.54,-488.16 -610.24,-352.32 h -0.01 l -42.09,-24.3 -0.06,-0.03 -853.39,-492.7 c -6.981,-4.03 -13.571,-5.94 -19.414,-5.94" /><path
         id="path66"
         style="fill:#26b6a6;fill-opacity:1;fill-rule:nonzero;stroke:none"
         d="m 608.246,1510.12 0.02,1536.55 c 0,16.64 11.679,36.87 26.082,45.18 l 2231.562,1288.4 c 14.41,8.31 26.08,1.57 26.08,-15.06 l 0.08,-1536.59 c 0,-16.63 -11.68,-36.86 -26.09,-45.18 L 634.328,1495.06 c -14.402,-8.31 -26.082,-1.57 -26.082,15.06" /><path
         id="path68"
         style="fill:#17282f;fill-opacity:1;fill-rule:nonzero;stroke:none"
         d="m 608.246,1510.12 0.02,1536.55 c 0,16.64 11.679,36.87 26.082,45.18 l 2231.562,1288.4 c 14.41,8.31 26.08,1.57 26.08,-15.06 l 0.08,-1536.59 c 0,-16.63 -11.68,-36.86 -26.09,-45.18 L 634.328,1495.06 c -14.402,-8.31 -26.082,-1.57 -26.082,15.06" /><path
         id="path70"
         style="fill:#26b6a6;fill-opacity:1;fill-rule:nonzero;stroke:none"
         d="m 1750.13,1943.26 c -22.53,-13 -40.8,-44.63 -40.8,-70.65 0,-26.01 18.27,-36.55 40.8,-23.54 22.53,13.01 40.79,44.64 40.79,70.65 0,26.01 -18.27,36.55 -40.79,23.54" /><path
         id="path72"
         style="fill:#3e3f42;fill-opacity:1;fill-rule:nonzero;stroke:none"
         d="m 445.133,2156.32 0.027,964.45 -0.015,-964.44 -0.012,-0.01" /><path
         id="path74"
         style="fill:#393a3c;fill-opacity:1;fill-rule:nonzero;stroke:none"
         d="m 445.133,1339.21 -0.024,0.01 0.024,817.1 0.012,0.01 -0.012,-817.12" /><path
         id="path76"
         style="fill:#093b33;fill-opacity:1;fill-rule:nonzero;stroke:none"
         d="m 526.633,1292.03 v 0 l -81.5,47.18 0.012,817.12 0.015,964.44 c 0,13.86 4.977,29.31 12.801,42.97 l 46.805,-26.98 34.703,-20.04 c 0.004,0.01 0.011,0.02 0.015,0.03 v 0 c -2.582,-4.5 -4.836,-9.2 -6.707,-13.97 -2.379,-6.02 -4.129,-12.15 -5.117,-18.17 -0.625,-3.67 -0.972,-7.3 -1.027,-10.83 V 1292.03" /><path
         id="path78"
         style="fill:#071715;fill-opacity:1;fill-rule:nonzero;stroke:none"
         d="m 527.66,3084.61 c 0.988,6.02 2.738,12.15 5.117,18.17 -2.355,-6.02 -4.101,-12.16 -5.117,-18.17" /><path
         id="path80"
         style="fill:#a7a9a8;fill-opacity:1;fill-rule:nonzero;stroke:none"
         d="m 457.984,3163.78 -0.046,0.03 c 2.855,4.86 6.089,9.51 9.617,13.81 -3.52,-4.29 -6.739,-8.95 -9.571,-13.84 m 16.493,21.4 c 0.019,0.02 0.039,0.04 0.058,0.05 -0.019,-0.01 -0.039,-0.03 -0.058,-0.05 m 0.089,0.09 c 2.918,2.83 5.973,5.4 9.137,7.64 -3.156,-2.24 -6.219,-4.81 -9.137,-7.64 M 2955.63,4538.38 c -6.45,9.09 -14.22,16.73 -22.59,21.62 8.37,-4.86 16.14,-12.51 22.59,-21.62 m -38.2,27.99 c -7.58,2.05 -15.87,3.07 -24.26,3.07 -6.88,0 -13.82,-0.68 -20.5,-2.05 6.68,1.37 13.62,2.06 20.5,2.06 8.39,0 16.67,-1.02 24.26,-3.08" /><path
         id="path82"
         style="fill:#06ab91;fill-opacity:1;fill-rule:nonzero;stroke:none"
         d="m 539.484,3116.75 -34.718,20.01 -46.782,27.02 c 2.832,4.89 6.051,9.55 9.571,13.84 2.199,2.67 4.511,5.21 6.922,7.56 0.019,0.02 0.039,0.04 0.058,0.05 0.012,0.02 0.024,0.03 0.031,0.04 2.918,2.83 5.981,5.4 9.137,7.64 1.633,1.15 3.293,2.21 4.977,3.18 l 2359.88,1362.47 c 7.1,4.1 15.38,7.05 24.11,8.83 6.68,1.37 13.62,2.05 20.5,2.05 8.39,0 16.68,-1.02 24.26,-3.07 5.6,-1.52 10.83,-3.61 15.43,-6.26 0.06,-0.04 0.12,-0.07 0.18,-0.11 8.37,-4.89 16.14,-12.53 22.59,-21.62 9.33,-13.2 15.9,-29.46 17.53,-44.79 -1.71,12.45 -8.06,20.48 -17.11,23.02 l -0.01,0.01 c -0.02,0 -0.04,0.01 -0.06,0.01 -1.72,0.48 -3.55,0.76 -5.46,0.83 -0.33,0.01 -0.66,0.02 -0.99,0.02 -5.85,0 -12.45,-1.9 -19.44,-5.9 L 1396.61,3626.16 570.207,3149.04 c -6.391,-3.69 -12.461,-8.79 -17.926,-14.8 -4.754,-5.22 -9.074,-11.14 -12.797,-17.49" /><path
         id="path84"
         style="fill:#0a483e;fill-opacity:1;fill-rule:nonzero;stroke:none"
         d="m 552.281,3134.24 c 5.465,6.01 11.535,11.11 17.926,14.8 L 1396.61,3626.16 570.203,3149 c -6.383,-3.68 -12.441,-8.75 -17.922,-14.76 m 2403.769,1382.37 -0.01,0.01 0.01,-0.01 m -0.07,0.02 c -1.72,0.48 -3.55,0.76 -5.46,0.83 1.91,-0.07 3.74,-0.35 5.46,-0.83" /><path
         id="path86"
         style="fill:#072420;fill-opacity:1;fill-rule:nonzero;stroke:none"
         d="m 539.469,3116.72 -34.703,20.04 34.718,-20.01 c -0.004,-0.01 -0.011,-0.02 -0.015,-0.03" /><path
         id="path88"
         style="fill:#26b6a6;fill-opacity:1;fill-rule:nonzero;stroke:none"
         d="m 3100.53,4258.66 c -5.69,3.41 -13.44,3.29 -22.18,-1.75 L 851.473,2971.04 c -16.825,-9.72 -30.469,-33.32 -30.469,-52.75 l 0.023,-1527.18 c 0,-11.84 5.071,-22.3 12.84,-26.48 4.985,-2.67 31.153,-17.9 38.918,-22.08 4.988,-2.67 11.074,-2.77 17.653,1.02 L 3117.24,2629.94 c 16.84,9.69 30.49,33.29 30.49,52.72 v 1534.59 c 0,10.02 -3.63,16.96 -9.44,20.01 -5.47,2.87 -32.16,18.04 -37.76,21.4" /><path
         id="path90"
         style="fill:#fafaf9;fill-opacity:1;fill-rule:nonzero;stroke:none"
         d="m 880.375,1345.62 c -8.508,0 -15.426,10.5 -15.426,23.41 v 1527.18 c 0,17.5 12.805,39.68 27.961,48.44 l 2226.85,1285.86 c 3.96,2.29 7.8,3.49 11.11,3.49 7.43,0 11.86,-6.26 11.86,-16.75 V 2682.66 c 0,-17.5 -12.81,-39.66 -27.98,-48.39 L 887.938,1347.9 c -2.622,-1.51 -5.168,-2.28 -7.563,-2.28" /><path
         id="path92"
         style="fill:#dadbd8;fill-opacity:1;fill-rule:nonzero;stroke:none"
         d="m 3130.88,4239 c -4.1,0 -8.72,-1.34 -13.62,-4.16 L 890.41,2948.98 c -16.824,-9.72 -30.461,-33.34 -30.461,-52.77 V 1369.03 c 0,-15.37 8.531,-28.41 20.43,-28.41 3.148,0 6.531,0.91 10.059,2.95 L 3117.24,2629.94 c 16.84,9.69 30.49,33.29 30.49,52.72 v 1534.59 c 0,13.79 -6.86,21.75 -16.85,21.75 m 0,-10 c 5.95,0 6.85,-7.36 6.85,-11.75 V 2682.66 c 0,-15.93 -11.67,-36.1 -25.5,-44.06 L 885.453,1352.23 c -1.859,-1.07 -3.566,-1.61 -5.074,-1.61 -5.559,0 -10.43,8.6 -10.43,18.41 v 1527.18 c 0,15.94 11.66,36.14 25.457,44.11 L 3122.26,4226.18 c 4.05,2.33 6.92,2.82 8.62,2.82" /><path
         id="path94"
         style="fill:#ededeb;fill-opacity:1;fill-rule:nonzero;stroke:none"
         d="m 833.82,1364.65 c 3.305,-1.76 26.989,-15.27 37.371,-21.18 -7.003,4.98 -10.699,13.56 -11.211,25.58 v 1427.51 l -38.996,22.82 V 1391.09 c 0,-11.79 5.079,-22.33 12.836,-26.44" /><path
         id="path96"
         style="fill:#26b6a6;fill-opacity:1;fill-rule:nonzero;stroke:none"
         d="m 3147.71,4217.48 c -0.12,19.25 -13.69,27.03 -30.45,17.36 L 890.41,2948.98 c -16.824,-9.72 -30.461,-33.34 -30.461,-52.77 l 0.031,-99.65 2287.73,1320.94 v 99.98" /><path
         id="path98"
         style="fill:#ffffff;fill-opacity:1;fill-rule:nonzero;stroke:none"
         d="m 3078.35,4256.91 c 4.85,2.82 9.41,4.1 13.47,4.1 3.24,0 6.16,-0.81 8.67,-2.3 0.59,-0.36 1.41,-0.85 2.41,-1.44 -0.99,0.57 -1.79,1.05 -2.37,1.39 -2.53,1.52 -5.46,2.34 -8.7,2.34 -4.07,0 -8.62,-1.29 -13.48,-4.09" /><path
         id="path100"
         style="fill:#6c7a7f;fill-opacity:1;fill-rule:nonzero;stroke:none"
         d="m 837.383,2958.93 c 4.211,5 9.008,9.22 14.09,12.11 -5.082,-2.94 -9.875,-7.14 -14.09,-12.11" /><path
         id="path102"
         style="fill:#5cc8bc;fill-opacity:1;fill-rule:nonzero;stroke:none"
         d="m 869.023,2926.5 -38.746,22.29 c 2.094,3.6 4.485,7.02 7.106,10.14 4.215,4.97 9.008,9.17 14.09,12.11 v 0 L 3078.35,4256.91 v 0 c 4.86,2.8 9.41,4.09 13.48,4.09 3.24,0 6.17,-0.82 8.7,-2.34 0.58,-0.34 1.38,-0.82 2.37,-1.39 8.12,-4.79 28.22,-16.19 34.4,-19.54 -0.93,0.4 -1.91,0.71 -2.93,0.92 -1.11,0.24 -2.28,0.36 -3.5,0.36 -4.09,0 -8.72,-1.35 -13.62,-4.16 L 1869.42,3514.29 890.41,2948.98 c -8.336,-4.82 -15.887,-13.04 -21.387,-22.48" /><path
         id="path104"
         style="fill:#e8e9e6;fill-opacity:1;fill-rule:nonzero;stroke:none"
         d="m 869.023,2926.5 v 0 c 5.5,9.44 13.051,17.66 21.387,22.48 l 979.01,565.31 -979.01,-565.31 c -8.336,-4.82 -15.887,-13.04 -21.387,-22.48 M 3137.45,4237.65 c -0.46,0.21 -0.94,0.39 -1.43,0.55 -0.53,0.18 -1.09,0.34 -1.65,0.45 1.02,-0.21 2,-0.52 2.93,-0.92 0.05,-0.03 0.1,-0.05 0.15,-0.08" /><path
         id="path106"
         style="fill:#5cc8bc;fill-opacity:1;fill-rule:nonzero;stroke:none"
         d="m 869.047,2926.49 -0.024,0.01 c 5.5,9.44 13.051,17.66 21.387,22.48 l 979.01,565.31 -978.975,-565.3 c -8.304,-4.87 -15.937,-13.07 -21.398,-22.5 M 3137.66,4237.54 c -0.53,0.25 -1.07,0.48 -1.64,0.66 0.49,-0.16 0.97,-0.34 1.43,-0.55 0.07,-0.04 0.14,-0.08 0.21,-0.11" /><path
         id="path108"
         style="fill:#122026;fill-opacity:1;fill-rule:nonzero;stroke:none"
         d="m 821.008,2819.37 -0.024,0.01 0.02,98.95 c 0,0.93 0.031,1.87 0.094,2.81 -0.063,-0.96 -0.094,-1.91 -0.094,-2.85 l 0.004,-98.92" /><path
         id="path110"
         style="fill:#19b19d;fill-opacity:1;fill-rule:nonzero;stroke:none"
         d="m 859.949,2796.58 -38.941,22.79 -0.004,98.92 c 0,0.94 0.031,1.89 0.094,2.85 0.605,9.1 4.058,18.89 9.179,27.65 v 0 l 38.684,-22.4 c -5.566,-9.59 -9.012,-20.41 -9.012,-30.18 v -99.63" /><path
         id="path112"
         style="fill:#b4b6b4;fill-opacity:1;fill-rule:nonzero;stroke:none"
         d="m 859.98,2796.56 -0.031,0.02 v 99.63 c 0,9.77 3.446,20.59 9.012,30.18 v 0 c -5.566,-9.59 -9.012,-20.41 -9.012,-30.18 l 0.031,-99.65" /><path
         id="path114"
         style="fill:#c3c5c2;fill-opacity:1;fill-rule:nonzero;stroke:none"
         d="m 859.98,2796.56 -38.996,22.72 v 0.1 l 0.024,-0.01 38.941,-22.79 0.031,-0.02" /><path
         id="path116"
         style="fill:#19b19d;fill-opacity:1;fill-rule:nonzero;stroke:none"
         d="m 859.98,2796.56 v 0 l -0.031,99.65 c 0,9.77 3.446,20.59 9.012,30.18 l 0.019,-0.02 c 0.024,0.04 0.047,0.08 0.067,0.12 l 0.031,-0.02 c -5.652,-9.58 -9.098,-20.41 -9.098,-30.28 v -99.63" /><path
         id="path118"
         style="fill:#4ac2ad;fill-opacity:1;fill-rule:nonzero;stroke:none"
         d="m 868.961,2926.39 -38.684,22.4 38.746,-22.29 c -0.019,-0.04 -0.043,-0.08 -0.062,-0.11" /><path
         id="path120"
         style="fill:#c0c1bf;fill-opacity:1;fill-rule:nonzero;stroke:none"
         d="m 868.961,2926.39 v 0 c 0.019,0.03 0.043,0.07 0.062,0.11 v 0 c -0.019,-0.04 -0.043,-0.08 -0.062,-0.11" /><path
         id="path122"
         style="fill:#4ac2ad;fill-opacity:1;fill-rule:nonzero;stroke:none"
         d="m 868.98,2926.37 -0.019,0.02 c 0.019,0.03 0.043,0.07 0.062,0.11 l 0.024,-0.01 c -0.02,-0.04 -0.043,-0.08 -0.067,-0.12" /><path
         id="path124"
         style="fill:#26b6a6;fill-opacity:1;fill-rule:nonzero;stroke:none"
         d="M 2678.1,3066.3 1344.36,2296.26 c -12.29,-7.1 -22.26,-24.36 -22.26,-38.55 v -382.36 c 0,-14.19 9.97,-31.44 22.28,-38.52 l 38.96,-22.42 c 12.31,-7.08 32.24,-7.06 44.54,0.03 l 1333.55,769.93 c 12.3,7.1 22.27,24.36 22.28,38.55 l 0.16,382.47 c 0.01,14.19 -9.97,31.44 -22.27,38.52 l -38.96,22.42 c -12.31,7.08 -32.24,7.07 -44.54,-0.03" /><path
         id="path126"
         style="fill:#fefefe;fill-opacity:1;fill-rule:nonzero;stroke:none"
         d="m 1328.71,2279.79 -0.01,0.01 c 4.01,6.89 9.56,12.96 15.62,16.45 l 317.98,183.58 -317.94,-183.57 c -6.1,-3.52 -11.63,-9.55 -15.65,-16.47 M 2783.69,3009 c -0.04,0.28 -0.08,0.56 -0.13,0.84 -1.75,13.17 -10.92,27.71 -21.96,34.07 l -38.96,22.42 c -6.15,3.53 -14.19,5.3 -22.23,5.3 -0.04,0 -0.08,0 -0.12,0 0.07,0 0.15,0 0.22,0 8,0 15.99,-1.75 22.12,-5.27 l 38.96,-22.41 c 11.31,-6.48 20.66,-21.59 22.1,-34.95" /><path
         id="path128"
         style="fill:#70cec3;fill-opacity:1;fill-rule:nonzero;stroke:none"
         d="m 1412.18,2231.59 -83.47,48.2 c 4.02,6.92 9.55,12.95 15.65,16.47 l 317.94,183.57 1015.81,586.43 c 6.11,3.54 14.14,5.34 22.18,5.37 0.04,0 0.08,0 0.12,0 8.04,0 16.08,-1.77 22.23,-5.3 l 38.96,-22.42 c 11.04,-6.36 20.21,-20.9 21.96,-34.07 -1.25,7.31 -5.82,11.45 -12,11.45 -3.01,0 -6.39,-0.97 -9.97,-3.04 L 1427.9,2248.24 c -6.16,-3.49 -11.72,-9.66 -15.72,-16.65" /><path
         id="path130"
         style="fill:#17282f;fill-opacity:1;fill-rule:nonzero;stroke:none"
         d="m 1424.1,1812.66 c -12.34,-5.25 -29.61,-4.63 -40.71,1.75 l -38.96,22.41 c -12.34,7.09 -22.31,24.36 -22.31,38.55 v 382.33 c 0,7.19 2.57,15.11 6.57,22.1 l 83.49,-48.21 c -4.12,-6.99 -6.59,-14.81 -6.59,-21.9 v -382.43 c 0,-12.75 8.02,-18.61 18.51,-14.6" /><path
         id="path132"
         style="fill:#26b6a6;fill-opacity:1;fill-rule:nonzero;stroke:none"
         d="m 1427.88,2248.21 1333.74,770.03 c 12.29,7.09 22.26,1.34 22.25,-12.85 l -0.16,-382.47 c -0.01,-14.19 -9.98,-31.45 -22.28,-38.55 L 1427.88,1814.44 c -12.3,-7.09 -22.26,-1.34 -22.26,12.85 v 382.36 c 0,14.2 9.96,31.46 22.26,38.56" /><path
         id="path134"
         style="fill:#33535f;fill-opacity:1;fill-rule:nonzero;stroke:none"
         d="m 2324.55,2862.15 -980.23,-565.9 c -6.06,-3.49 -11.61,-9.56 -15.63,-16.45 l 83.49,-48.21 c 4,6.99 9.56,13.16 15.72,16.65 l 979.98,565.79 -83.33,48.12" /><path
         id="path136"
         style="fill:#273e47;fill-opacity:1;fill-rule:nonzero;stroke:none"
         d="m 2407.88,2814.01 -980,-565.8 c -12.3,-7.1 -22.26,-24.36 -22.26,-38.56 v -382.36 c 0,-14.19 9.96,-19.94 22.26,-12.85 l 980,565.8 v 433.77" /><path
         id="path138"
         style="fill:#26b6a6;fill-opacity:1;fill-rule:nonzero;stroke:none"
         d="m 1653.89,2294.78 505.67,291.96 c 20.97,12.11 37.96,3.51 37.96,-19.21 0,-22.71 -17,-50.95 -37.97,-63.05 l -505.63,-291.93 c -20.96,-12.11 -37.97,-3.51 -37.98,19.2 -0.01,22.7 16.98,50.92 37.95,63.03" /><path
         id="path140"
         style="fill:#fafaf9;fill-opacity:1;fill-rule:nonzero;stroke:none"
         d="m 1757.51,2198.16 1.48,-0.27 c 0.42,-0.5 0.63,-1.24 0.63,-2.26 v -56.95 c 0,-5.74 -0.47,-11.18 -1.41,-16.36 -0.93,-5.16 -2.33,-9.96 -4.22,-14.38 -1.87,-4.42 -4.22,-8.33 -7.02,-11.77 -2.82,-3.42 -6.07,-6.2 -9.76,-8.33 -3.76,-2.17 -7.03,-3.15 -9.81,-2.97 -2.8,0.2 -5.13,1.43 -6.99,3.67 -1.88,2.25 -3.27,5.45 -4.19,9.54 -0.9,4.1 -1.36,9.02 -1.36,14.76 v 56.94 c 0,1.03 0.21,2.01 0.63,3 0.41,0.98 0.9,1.64 1.48,1.96 l 6.33,3.66 1.48,-0.25 c 0.42,-0.51 0.63,-1.26 0.63,-2.27 v -56.25 c 0,-3.8 0.29,-6.87 0.86,-9.22 0.56,-2.37 1.37,-4.09 2.41,-5.2 1.05,-1.13 2.3,-1.65 3.75,-1.6 1.46,0.06 3.06,0.6 4.78,1.58 1.71,0.99 3.31,2.31 4.8,3.95 1.48,1.65 2.74,3.62 3.79,5.95 1.04,2.31 1.85,4.98 2.46,8.01 0.6,3.03 0.89,6.44 0.89,10.24 v 56.24 c 0,1.03 0.21,2.01 0.62,3 0.42,0.98 0.92,1.64 1.5,1.97 l 6.24,3.61" /><path
         id="path142"
         style="fill:#fafaf9;fill-opacity:1;fill-rule:nonzero;stroke:none"
         d="m 1796.73,2144.28 c 0,1.01 -0.18,1.74 -0.55,2.18 -0.37,0.44 -1.01,0.68 -1.91,0.71 -0.91,0.02 -2.13,-0.12 -3.64,-0.44 -1.51,-0.32 -3.44,-0.69 -5.78,-1.12 -2.3,-0.4 -4.18,-0.32 -5.7,0.18 -1.51,0.52 -2.72,1.44 -3.63,2.77 -0.92,1.33 -1.55,3.05 -1.92,5.22 -0.36,2.15 -0.54,4.61 -0.54,7.38 0,2.78 0.36,5.72 1.09,8.83 0.73,3.11 1.78,6.1 3.16,8.98 1.39,2.88 3.06,5.54 5.04,7.98 1.98,2.43 4.25,4.39 6.8,5.86 2.55,1.47 4.83,2.29 6.83,2.41 2.01,0.15 3.71,-0.21 5.13,-1.06 1.39,-0.86 2.49,-2.15 3.27,-3.87 0.78,-1.73 1.22,-3.67 1.34,-5.83 0.05,-0.99 -0.16,-1.99 -0.6,-2.98 -0.44,-0.99 -0.95,-1.66 -1.52,-1.98 l -6.02,-3.47 -1.76,-0.26 -1.28,1 -1.88,0.64 c -0.77,0.06 -1.94,-0.36 -3.51,-1.26 -1.57,-0.9 -2.95,-2.11 -4.14,-3.63 -1.2,-1.53 -1.8,-3.37 -1.8,-5.5 0,-1.01 0.15,-1.77 0.44,-2.32 l 1.62,-0.92 c 0.82,-0.1 1.94,-0.02 3.38,0.2 1.42,0.22 3.28,0.58 5.58,1.07 4.63,0.92 7.9,0.05 9.8,-2.6 1.9,-2.64 2.86,-6.76 2.86,-12.3 0,-2.79 -0.39,-5.71 -1.17,-8.81 -0.79,-3.09 -1.92,-6.1 -3.41,-9.04 -1.49,-2.95 -3.3,-5.67 -5.47,-8.17 -2.16,-2.5 -4.6,-4.52 -7.3,-6.08 -2.77,-1.6 -5.19,-2.42 -7.31,-2.48 -2.1,-0.06 -3.89,0.41 -5.34,1.42 -1.47,1.01 -2.58,2.45 -3.36,4.31 -0.79,1.86 -1.21,3.89 -1.26,6.08 -0.05,0.99 0.16,1.98 0.59,2.98 0.45,0.99 0.95,1.65 1.52,2 l 6.02,3.47 1.76,0.04 1.32,-1.45 2.08,-1.04 c 0.88,-0.13 2.2,0.31 3.98,1.33 l 2.42,1.68 2.31,2.23 c 0.69,0.83 1.29,1.72 1.75,2.68 0.48,0.97 0.71,1.96 0.71,2.98" /><path
         id="path144"
         style="fill:#fafaf9;fill-opacity:1;fill-rule:nonzero;stroke:none"
         d="m 1836.25,2203.36 c -1.51,-0.89 -2.79,-2.03 -3.86,-3.43 -1.07,-1.41 -1.97,-2.94 -2.7,-4.61 -0.74,-1.67 -1.29,-3.38 -1.68,-5.14 -0.39,-1.75 -0.64,-3.35 -0.75,-4.8 l 17.66,10.19 c -0.1,1.33 -0.3,2.66 -0.59,4.05 -0.27,1.36 -0.75,2.47 -1.4,3.36 -0.65,0.86 -1.52,1.38 -2.58,1.55 -1.07,0.17 -2.44,-0.22 -4.1,-1.17 z m -19.14,-31.89 c 0,5.18 0.44,10.31 1.33,15.41 0.89,5.09 2.16,9.81 3.83,14.16 1.66,4.33 3.69,8.16 6.05,11.47 2.37,3.31 5.01,5.8 7.93,7.49 2.91,1.69 5.56,2.27 7.94,1.75 2.36,-0.55 4.37,-1.93 6.05,-4.16 1.66,-2.23 2.95,-5.24 3.86,-9 0.91,-3.79 1.37,-8.05 1.37,-12.76 v -6.25 c 0,-1.02 -0.21,-2.02 -0.63,-2.99 -0.41,-0.98 -0.91,-1.65 -1.49,-1.98 l -26.09,-15.07 c 0,-2.13 0.26,-3.85 0.75,-5.18 0.49,-1.34 1.16,-2.33 1.99,-2.95 0.83,-0.63 1.8,-0.91 2.89,-0.83 1.1,0.07 2.22,0.45 3.36,1.11 1.66,0.95 3.02,2.03 4.06,3.24 1.05,1.2 1.9,2.46 2.58,3.78 0.58,1.06 1.04,1.85 1.41,2.34 l 1.48,1.26 6.25,3.62 1.52,-0.22 c 0.44,-0.5 0.64,-1.27 0.58,-2.31 -0.04,-1.33 -0.45,-3.23 -1.2,-5.7 -0.75,-2.47 -1.89,-5.11 -3.41,-7.94 -1.5,-2.82 -3.36,-5.56 -5.58,-8.22 -2.2,-2.66 -4.78,-4.84 -7.69,-6.51 -2.92,-1.69 -5.56,-2.31 -7.93,-1.89 -2.36,0.44 -4.39,1.85 -6.05,4.22 -1.67,2.36 -2.94,5.59 -3.83,9.66 -0.89,4.07 -1.33,8.89 -1.33,14.45" /><path
         id="path146"
         style="fill:#fafaf9;fill-opacity:1;fill-rule:nonzero;stroke:none"
         d="m 1886.87,2231.18 c -3.12,-1.8 -5.37,-4.33 -6.75,-7.57 -1.39,-3.27 -2.07,-7.67 -2.07,-13.22 v -36.11 c 0,-1.01 -0.21,-2.02 -0.62,-2.99 -0.42,-0.98 -0.92,-1.65 -1.5,-1.97 l -5.92,-3.43 -1.49,0.26 c -0.42,0.49 -0.63,1.25 -0.63,2.27 v 64.72 c 0,1.02 0.21,2.02 0.63,3 0.41,0.98 0.92,1.63 1.49,1.97 l 5.92,3.42 1.5,-0.25 c 0.41,-0.5 0.62,-1.26 0.62,-2.27 v -3.21 c 1.35,3.02 2.8,5.55 4.34,7.65 1.52,2.09 3.54,3.86 6.05,5.3 l 3.51,2.03 1.49,-0.26 c 0.41,-0.49 0.62,-1.25 0.62,-2.27 v -9.17 c 0,-1.02 -0.21,-2.01 -0.62,-2.99 -0.42,-0.99 -0.91,-1.65 -1.49,-1.97 l -5.08,-2.94" /><path
         id="path148"
         style="fill:#fafaf9;fill-opacity:1;fill-rule:nonzero;stroke:none"
         d="m 1961.48,2236.07 1.48,-0.27 c 0.42,-0.49 0.63,-1.25 0.63,-2.27 v -9.87 c 0,-1.01 -0.21,-2.01 -0.63,-2.99 -0.42,-0.98 -0.91,-1.63 -1.48,-1.96 l -34.22,-19.76 -1.49,0.26 c -0.41,0.49 -0.62,1.26 -0.62,2.27 v 89.72 c 0,1.01 0.21,2.01 0.62,2.99 0.43,0.99 0.91,1.64 1.49,1.97 l 6.33,3.66 1.48,-0.27 c 0.43,-0.49 0.64,-1.24 0.64,-2.26 v -76.11 l 25.77,14.89" /><path
         id="path150"
         style="fill:#fafaf9;fill-opacity:1;fill-rule:nonzero;stroke:none"
         d="m 2001.63,2284.25 c -0.16,2.77 -0.54,4.93 -1.14,6.49 -0.6,1.55 -1.34,2.63 -2.22,3.23 -0.89,0.6 -1.85,0.81 -2.89,0.63 -1.04,-0.18 -2.11,-0.6 -3.21,-1.23 -1.09,-0.62 -2.15,-1.45 -3.19,-2.48 -1.05,-1.01 -2.01,-2.34 -2.89,-3.95 -0.89,-1.63 -1.64,-3.57 -2.23,-5.81 -0.59,-2.24 -0.98,-4.85 -1.14,-7.8 -0.05,-0.78 -0.09,-1.73 -0.11,-2.85 -0.03,-1.12 -0.05,-2.29 -0.05,-3.5 0,-1.2 0.02,-2.36 0.05,-3.51 0.02,-1.14 0.06,-2.03 0.11,-2.65 0.16,-2.77 0.55,-4.94 1.14,-6.48 0.59,-1.56 1.34,-2.63 2.23,-3.23 0.88,-0.61 1.84,-0.82 2.89,-0.63 1.04,0.18 2.1,0.6 3.19,1.23 1.1,0.63 2.17,1.44 3.21,2.47 1.04,1.02 2,2.33 2.89,3.95 0.88,1.63 1.62,3.57 2.22,5.8 0.6,2.25 0.98,4.85 1.14,7.82 0.05,0.66 0.08,1.58 0.08,2.74 0,1.17 0,2.36 0,3.56 0,1.19 0,2.35 0,3.45 0,1.13 -0.03,2.03 -0.08,2.75 z m -9.46,25.78 c 2.87,1.65 5.46,2.36 7.78,2.13 2.32,-0.24 4.33,-1.25 6.02,-3.06 1.69,-1.79 3.05,-4.24 4.05,-7.37 1.02,-3.12 1.61,-6.76 1.77,-10.93 0.04,-0.8 0.07,-1.85 0.07,-3.15 0,-1.29 0,-2.59 0,-3.88 0,-1.3 0,-2.57 0,-3.83 0,-1.25 -0.03,-2.3 -0.07,-3.17 -0.21,-4.37 -0.81,-8.7 -1.8,-12.98 -1,-4.27 -2.33,-8.27 -4.02,-11.97 -1.69,-3.71 -3.7,-7.02 -6.02,-9.93 -2.32,-2.91 -4.91,-5.19 -7.78,-6.85 -2.86,-1.64 -5.45,-2.37 -7.77,-2.13 -2.31,0.24 -4.32,1.23 -6.01,3 -1.69,1.74 -3.04,4.19 -4.02,7.32 -0.99,3.12 -1.6,6.77 -1.81,10.91 -0.05,0.8 -0.08,1.82 -0.11,3.05 -0.02,1.24 -0.04,2.49 -0.04,3.79 0,1.31 0.02,2.61 0.04,3.92 0.03,1.3 0.06,2.39 0.11,3.25 0.16,4.36 0.75,8.67 1.76,12.97 1.02,4.29 2.38,8.32 4.07,12.07 1.69,3.76 3.7,7.08 6.01,9.99 2.32,2.92 4.91,5.19 7.77,6.85" /><path
         id="path152"
         style="fill:#fafaf9;fill-opacity:1;fill-rule:nonzero;stroke:none"
         d="m 2033.03,2300.02 c -0.16,-2.69 -0.16,-5.29 0,-7.8 0.31,-5.82 1.35,-9.55 3.13,-11.16 1.76,-1.62 3.93,-1.68 6.48,-0.22 2.55,1.48 4.7,4.05 6.44,7.75 1.75,3.69 2.75,8.11 3.01,13.26 0.11,1.45 0.16,3.24 0.16,5.37 0,2.13 -0.05,3.86 -0.16,5.18 -0.26,4.67 -1.26,7.89 -3.01,9.66 -1.74,1.77 -3.89,1.92 -6.44,0.44 -2.55,-1.46 -4.72,-4.04 -6.48,-7.71 -1.78,-3.65 -2.82,-8.59 -3.13,-14.77 z m 9.37,-48.47 c 1.1,0.62 2.21,1.57 3.37,2.84 1.14,1.26 2.18,2.8 3.11,4.65 0.95,1.82 1.71,3.91 2.31,6.25 0.61,2.34 0.9,4.85 0.9,7.54 v 5.14 c -0.42,-1.07 -0.96,-2.29 -1.64,-3.66 -0.68,-1.36 -1.5,-2.75 -2.46,-4.13 -0.97,-1.39 -2.09,-2.73 -3.35,-4.02 -1.28,-1.3 -2.74,-2.41 -4.34,-3.33 -2.61,-1.5 -4.97,-1.97 -7.07,-1.39 -2.12,0.59 -3.91,1.97 -5.39,4.12 -1.49,2.15 -2.66,4.94 -3.52,8.38 -0.86,3.45 -1.34,7.26 -1.45,11.46 -0.05,1.37 -0.07,2.96 -0.07,4.82 0,1.85 0.02,3.47 0.07,4.9 0.11,4.32 0.59,8.69 1.45,13.13 0.86,4.43 2.03,8.57 3.52,12.44 1.48,3.86 3.27,7.32 5.39,10.34 2.1,3.02 4.46,5.27 7.07,6.78 1.6,0.93 3.06,1.5 4.34,1.67 1.26,0.18 2.38,0.13 3.35,-0.14 0.96,-0.27 1.78,-0.71 2.46,-1.3 l 1.64,-1.75 v 3.2 c 0,1.02 0.2,2.01 0.63,2.99 0.41,0.99 0.9,1.64 1.48,1.97 l 5.94,3.43 1.48,-0.26 c 0.42,-0.49 0.63,-1.25 0.63,-2.27 v -65.13 c 0,-11.2 -1.76,-20.66 -5.27,-28.39 -3.52,-7.73 -8.38,-13.38 -14.58,-16.95 -2.66,-1.54 -5.12,-2.33 -7.38,-2.4 -2.26,-0.05 -4.23,0.48 -5.9,1.59 -1.66,1.13 -2.99,2.73 -3.98,4.79 -0.99,2.07 -1.54,4.47 -1.64,7.18 -0.06,0.99 0.14,1.98 0.6,2.98 0.42,1 0.94,1.66 1.51,1.99 l 5.31,3.06 1.87,-0.23 1.33,-1.67 c 0.68,-1.19 1.6,-1.95 2.77,-2.28 1.18,-0.35 3.02,0.21 5.51,1.66" /><path
         id="path154"
         style="fill:#fafaf9;fill-opacity:1;fill-rule:nonzero;stroke:none"
         d="m 2087.09,2294.98 c 0,-1.03 -0.21,-2.03 -0.63,-3 -0.41,-0.98 -0.91,-1.64 -1.49,-1.97 l -5.92,-3.43 -1.48,0.26 c -0.43,0.49 -0.64,1.25 -0.64,2.27 v 64.72 c 0,1.02 0.21,2.03 0.64,2.99 0.41,0.99 0.91,1.64 1.48,1.98 l 5.92,3.42 1.49,-0.26 c 0.42,-0.48 0.63,-1.24 0.63,-2.27 z m -1.73,93.85 1.49,-0.24 c 0.42,-0.51 0.63,-1.27 0.63,-2.28 v -10.83 c 0,-1.03 -0.21,-2.03 -0.63,-3.01 -0.41,-0.98 -0.91,-1.63 -1.49,-1.97 l -6.7,-3.88 -1.49,0.26 c -0.42,0.5 -0.63,1.26 -0.63,2.28 v 10.83 c 0,1.01 0.21,2.02 0.63,3.01 0.42,0.97 0.92,1.63 1.49,1.95 l 6.7,3.88" /><path
         id="path156"
         style="fill:#fafaf9;fill-opacity:1;fill-rule:nonzero;stroke:none"
         d="m 2139.89,2325.46 c 0,-1.02 -0.21,-2.02 -0.61,-3 -0.42,-0.98 -0.92,-1.63 -1.49,-1.96 l -5.94,-3.44 -1.49,0.27 c -0.42,0.48 -0.62,1.25 -0.62,2.26 v 35.28 c 0,5.55 -0.72,9.58 -2.19,12.07 -1.45,2.49 -3.69,2.87 -6.72,1.12 -2.76,-1.58 -4.92,-4.51 -6.52,-8.76 -1.59,-4.24 -2.38,-9.16 -2.38,-14.71 v -35.28 c 0,-1.01 -0.21,-2.02 -0.62,-2.99 -0.42,-0.98 -0.92,-1.64 -1.49,-1.97 l -5.93,-3.43 -1.49,0.26 c -0.42,0.49 -0.63,1.25 -0.63,2.27 v 64.73 c 0,1.01 0.21,2.01 0.63,2.98 0.42,0.99 0.91,1.65 1.49,1.99 l 5.93,3.41 1.49,-0.25 c 0.41,-0.5 0.62,-1.26 0.62,-2.27 v -3.2 c 1.35,3.19 2.94,6.09 4.77,8.72 1.81,2.63 3.98,4.66 6.49,6.1 3.17,1.84 5.83,2.5 7.96,1.97 2.13,-0.53 3.85,-1.9 5.15,-4.1 1.3,-2.21 2.22,-5.14 2.78,-8.75 0.54,-3.63 0.81,-7.61 0.81,-11.96 v -37.36" /><path
         id="path158"
         style="fill:#33535f;fill-opacity:1;fill-rule:nonzero;stroke:none"
         d="m 2644.35,2616.51 -97.13,-56.08 15.04,136.24 c -11.61,6.14 -19.01,21.25 -19.01,42.96 0,38.69 23.52,83.63 52.54,100.39 29.01,16.75 52.54,-1.04 52.54,-39.72 0,-21.71 -7.41,-45.38 -19.02,-64.93 l 15.04,-118.86" /><path
         id="path160"
         style="fill:#273e47;fill-opacity:1;fill-rule:nonzero;stroke:none"
         d="m 2644.35,2616.51 -85.48,49.35 -11.65,-105.43 z" /><path
         id="path162"
         style="fill:#273e47;fill-opacity:1;fill-rule:nonzero;stroke:none"
         d="m 2595.79,2840.02 c -18.98,-10.96 -35.57,-34.01 -44.81,-59.46 l 78.33,-45.22 v 0.03 c 11.62,19.55 19.02,43.22 19.02,64.93 0,38.68 -23.53,56.47 -52.54,39.72" /><path
         id="path164"
         style="fill:#26b6a6;fill-opacity:1;fill-rule:nonzero;stroke:none"
         d="m 2123.57,3293.49 c -33.22,19.23 -79.13,16.5 -129.86,-12.79 -101.39,-58.54 -183.58,-200.92 -183.56,-317.99 0,-58.75 20.72,-99.94 54.16,-119.02 8.71,-4.97 55.92,-32.44 64.69,-37.51 33.22,-19.21 79.1,-16.47 129.8,12.81 101.38,58.54 183.56,200.91 183.56,317.99 0,58.52 -20.54,99.6 -53.73,118.79 l -65.06,37.72" /><path
         id="path166"
         style="fill:#26b6a6;fill-opacity:1;fill-rule:nonzero;stroke:none"
         d="m 2058.77,3242.98 c -101.37,-58.57 -183.57,-200.92 -183.56,-317.99 0.01,-117.08 82.21,-164.54 183.59,-106 101.38,58.54 183.66,200.91 183.56,317.99 -0.1,117.07 -82.29,164.53 -183.59,106" /><path
         id="path168"
         style="fill:#26b6a6;fill-opacity:1;fill-rule:nonzero;stroke:none"
         d="m 2160.14,2983.22 v -13.36 c -26.14,-44.62 -61.92,-83.47 -101.35,-106.18 -39.51,-22.78 -75.22,-25.27 -101.36,-10.74 v 27.68 c 0,53.45 36.29,116.33 82.59,143.13 l 26.65,15.33 c 23.66,13.66 46.59,15.41 64.63,4.97 18.4,-10.59 28.84,-32.72 28.84,-60.83" /><g
         id="g170"><g
           clip-path="url(#clipPath176)"
           id="g172"><path
             id="path178"
             style="fill:#fcfdfc;fill-opacity:1;fill-rule:nonzero;stroke:none"
             d="m 2163.41,3255.77 h 25.2188 v 14.6211 H 2163.41 Z" /></g></g><path
         id="path180"
         style="fill:#5cc8bc;fill-opacity:1;fill-rule:nonzero;stroke:none"
         d="m 1901.98,3050.74 -65.05,37.73 c 32.24,79.59 90.37,153.89 156.79,192.24 29.46,16.99 57.29,25.04 81.95,25.04 17.81,0 33.96,-4.2 47.89,-12.27 l 39.85,-23.09 24.53,-14.22 c -13.79,7.81 -29.72,11.88 -47.26,11.88 -24.65,0 -52.46,-8.05 -81.89,-25.06 -1.26,-0.73 -2.52,-1.47 -3.77,-2.22 -0.03,-0.02 -0.07,-0.04 -0.11,-0.07 h -0.01 c -64.78,-38.98 -121.31,-111.92 -152.92,-189.96" /><path
         id="path182"
         style="fill:#5cc8bc;fill-opacity:1;fill-rule:nonzero;stroke:none"
         d="m 1902,3050.73 -0.02,0.01 c 31.61,78.04 88.14,150.98 152.92,189.96 -64.76,-38.99 -121.29,-111.94 -152.9,-189.97 m 152.91,189.97 c 0.04,0.03 0.08,0.05 0.11,0.07 -0.04,-0.02 -0.07,-0.04 -0.11,-0.07" /><path
         id="path184"
         style="fill:#bfc0be;fill-opacity:1;fill-rule:nonzero;stroke:none"
         d="m 1914.69,2814.48 c -5.82,3.38 -12.76,7.42 -19.63,11.41 6.83,-3.97 13.75,-7.99 19.63,-11.41 m -70.11,44.54 c -21.67,22.27 -34.44,57.57 -34.44,103.68 h 0.01 c 0.01,-46.11 12.77,-81.4 34.43,-103.68" /><path
         id="path186"
         style="fill:#14b099;fill-opacity:1;fill-rule:nonzero;stroke:none"
         d="m 1926.3,2807.76 c -2.62,1.51 -6.72,3.89 -11.61,6.72 -5.88,3.42 -12.8,7.44 -19.63,11.41 -13.45,7.81 -26.65,15.47 -30.76,17.81 -7.19,4.1 -13.79,9.22 -19.72,15.32 -21.66,22.28 -34.42,57.57 -34.43,103.68 l 65.06,-37.75 c 0,-4.35 0.12,-8.61 0.34,-12.77 2.72,-50.22 21.54,-86.12 50.75,-104.42" /><path
         id="path188"
         style="fill:#14b099;fill-opacity:1;fill-rule:nonzero;stroke:none"
         d="m 1926.56,2807.61 c -0.09,0.04 -0.18,0.09 -0.26,0.15 -29.21,18.3 -48.03,54.2 -50.75,104.42 2.75,-50.35 21.67,-86.33 51.01,-104.57" /><path
         id="path190"
         style="fill:#dbdcd9;fill-opacity:1;fill-rule:nonzero;stroke:none"
         d="m 1810.15,2962.7 h -0.01 c 0,7.64 0.36,15.39 1.04,23.21 -0.68,-7.82 -1.03,-15.56 -1.03,-23.2 0,-0.01 0,-0.01 0,-0.01 m 1.05,23.41 c 0,0.04 0,0.09 0.01,0.13 -0.01,-0.04 -0.01,-0.09 -0.01,-0.13" /><path
         id="path192"
         style="fill:#1db3a0;fill-opacity:1;fill-rule:nonzero;stroke:none"
         d="m 1875.21,2924.95 v 0 l -65.06,37.75 c 0,0 0,0 0,0.01 0,7.64 0.35,15.38 1.03,23.2 0,0.07 0.01,0.13 0.02,0.2 0,0.04 0,0.09 0.01,0.13 2.96,33.47 12,68.35 25.72,102.23 l 65.05,-37.73 c -12,-29.63 -20.41,-59.99 -24.31,-89.5 -0.01,-0.08 -0.01,-0.15 -0.02,-0.22 -0.01,-0.04 -0.01,-0.08 -0.02,-0.12 -1.59,-12.15 -2.42,-24.16 -2.42,-35.91 v -0.04" /><path
         id="path194"
         style="fill:#1db3a0;fill-opacity:1;fill-rule:nonzero;stroke:none"
         d="m 1877.63,2960.9 c 0.01,0.04 0.01,0.08 0.02,0.12 -0.01,-0.04 -0.01,-0.08 -0.02,-0.12 m 0.04,0.34 c 3.9,29.51 12.31,59.87 24.31,89.5 l 0.02,-0.01 c -12.02,-29.63 -20.42,-59.99 -24.33,-89.49" /><path
         id="path196"
         style="fill:#ffffff;fill-opacity:1;fill-rule:nonzero;stroke:none"
         d="m 2035.71,3045.32 c -6.36,0 -12.29,1.53 -17.66,4.61 -12.37,7.14 -19.18,21.3 -19.18,39.83 0,33.92 23.02,73.81 52.43,90.79 v 0.03 c 15.99,9.27 31.61,10.42 44.07,3.27 12.37,-7.14 19.18,-21.29 19.18,-39.82 0,-33.93 -23.02,-73.82 -52.4,-90.8 -9.12,-5.25 -18.11,-7.91 -26.44,-7.91" /><path
         id="path198"
         style="fill:#ffffff;fill-opacity:1;fill-rule:nonzero;stroke:none"
         d="m 2131.3,3044.05 c -18.04,10.44 -40.97,8.69 -64.63,-4.97 l -26.65,-15.33 c -46.3,-26.8 -82.59,-89.68 -82.59,-143.13 v -27.68 c 26.14,-14.53 61.85,-12.04 101.36,10.74 39.43,22.71 75.21,61.56 101.35,106.18 v 13.36 c 0,28.11 -10.44,50.24 -28.84,60.83" /><path
         id="path200"
         style="fill:#26b6a6;fill-opacity:1;fill-rule:nonzero;stroke:none"
         d="m 4187.15,1314.05 c 0,0 13.28,116.79 71.37,207.43 58.1,90.64 137.92,147.21 212.41,153.11 74.47,5.89 134.63,-62.64 54.94,-109.69 -79.7,-47.07 -221.28,-95.08 -286.44,-271.09 l -52.28,20.24" /><path
         id="path202"
         style="fill:#1db3a0;fill-opacity:1;fill-rule:nonzero;stroke:none"
         d="m 4239.43,1293.81 -5.41,2.1 c 2.08,68.71 4.53,143.21 6.8,194.67 5.38,10.5 11.26,20.86 17.7,30.9 58.1,90.64 137.92,147.21 212.41,153.11 3.02,0.24 6.03,0.35 8.99,0.35 45.62,0 83.67,-27.45 83.67,-59.07 0.01,-17 -10.99,-35.19 -37.72,-50.97 -79.7,-47.07 -221.28,-95.08 -286.44,-271.09" /><path
         id="path204"
         style="fill:#ffffff;fill-opacity:1;fill-rule:nonzero;stroke:none"
         d="m 4208.98,1344.38 -0.78,0.23 c -2.04,0.83 -3.03,3.15 -2.19,5.18 78.6,193.57 228.23,274.4 296.37,290.09 2.13,0.51 4.27,-0.84 4.78,-2.98 0.49,-2.15 -0.85,-4.28 -2.99,-4.77 -66.75,-15.37 -213.43,-94.8 -290.79,-285.33 -0.72,-1.78 -2.58,-2.75 -4.4,-2.42" /><path
         id="path206"
         style="fill:#26b6a6;fill-opacity:1;fill-rule:nonzero;stroke:none"
         d="m 4606.84,1342.09 c -6.74,-15.2 -23.34,-23.12 -38.78,-29.34 -15.37,-6.17 -32.2,-12.9 -40.54,-27.27 -16.82,-29.04 10.78,-69.87 -7.26,-98.14 -7.58,-11.85 -21.66,-18.1 -35.51,-20.59 -11.51,-2.15 -23.22,-2.13 -34.89,-3.11 -5.61,0.11 -11.17,0.52 -16.59,1.28 -16.01,2.33 -33.38,3.08 -48.05,-5.11 -23.07,-12.98 -30.16,-42.12 -44.18,-64.59 -16.8,-26.9 -46.51,-44.51 -77.73,-48.76 -10.38,-1.37 -29.67,-3.24 -40.24,2.65 l -2.17,1.39 -0.2,0.19 c -1.44,1.64 -3.27,3.72 -4.05,4.85 l -0.41,0.69 c -4.09,15.06 2.59,30.73 2.85,46.28 0.03,0.98 0.04,1.89 -0.02,2.82 -0.64,18.08 -1.15,36.05 -1.57,54.09 -0.84,33.18 -1.22,66.44 -1,99.65 0.24,21.58 -2.36,45.19 6.76,65.51 10.12,22.35 35.24,22.84 44.75,44.77 3.8,8.73 5.82,18.1 9.5,26.94 10.98,25.92 37.62,44.56 65.8,45.93 43.87,2.24 83.24,-33.29 127.06,-30.06 11.35,0.89 22.41,4.34 33.59,6.4 35.54,6.65 76.61,-3.46 96.6,-33.53 8.35,-12.57 12.39,-29.14 6.28,-42.94" /><path
         id="path208"
         style="fill:#ffffff;fill-opacity:1;fill-rule:nonzero;stroke:none"
         d="m 4212.65,1125.34 -0.31,0.07 c -1.98,0.53 -3.18,2.58 -2.64,4.58 60.62,227.44 300.26,260.32 356.32,256.26 2.04,-0.16 3.61,-1.94 3.47,-4 -0.15,-2.06 -1.94,-3.61 -4,-3.46 -54.85,3.96 -289.24,-28.2 -348.57,-250.74 -0.5,-1.9 -2.38,-3.06 -4.27,-2.71" /><path
         id="path210"
         style="fill:#ffffff;fill-opacity:1;fill-rule:nonzero;stroke:none"
         d="m 4478.91,1240.59 -1.99,1.05 c -0.59,0.6 -61.71,60.86 -163.07,45.94 -2.04,-0.28 -3.96,1.1 -4.26,3.15 -0.3,2.05 1.12,3.95 3.16,4.25 105.28,15.48 168.86,-47.44 169.49,-48.08 1.46,-1.47 1.44,-3.83 -0.02,-5.29 -0.9,-0.89 -2.15,-1.23 -3.31,-1.02" /><path
         id="path212"
         style="fill:#e2e2e0;fill-opacity:1;fill-rule:nonzero;stroke:none"
         d="m 3636.76,4060.47 31.82,-12.24 v 70.11 c 0,55.58 44.33,68.9 92.46,41.12 48.13,-27.79 87.15,-95.37 87.15,-150.95 v -10.18 c 10.92,4.35 25.02,2.66 40.44,-6.24 34.64,-20 62.72,-68.63 62.72,-108.62 v -4.63 l 44.37,-25.61 c 22.81,-13.18 41.3,-45.2 41.3,-71.54 0,-26.33 -18.49,-37.01 -41.3,-23.84 l -358.96,207.24 c -22.82,13.18 -41.3,45.2 -41.3,71.54 0,26.33 18.48,37.01 41.3,23.84" /><path
         id="path214"
         style="fill:#e2e2e0;fill-opacity:1;fill-rule:nonzero;stroke:none"
         d="m 4062.66,4115.89 57.7,-33.31 c -0.29,2.58 -0.49,5.14 -0.49,7.64 v 16.71 c 0,29.75 20.88,41.8 46.64,26.93 10.43,-6.02 20.03,-15.57 27.8,-26.73 4.21,37.4 33.56,51.33 69.2,30.75 38.54,-22.24 69.78,-76.35 69.78,-120.85 v -25.01 c 0,-11.52 -2.13,-21.23 -5.91,-28.96 l 47.92,-27.67 c 14.29,-8.25 25.87,-28.31 25.87,-44.81 0,-16.49 -11.58,-23.19 -25.87,-14.93 l -312.64,180.49 c -14.28,8.25 -25.86,28.32 -25.86,44.81 0,16.5 11.58,23.19 25.86,14.94" /><path
         id="path216"
         style="fill:#f6879f;fill-opacity:1;fill-rule:nonzero;stroke:none"
         d="m 3839.29,2598.21 c -42.01,-71.01 -82.42,-132.7 -110.79,-162.27 -53.87,-25.06 -180.45,-63.57 -229.98,-70.02 -8.78,-1.15 -17.6,1.09 -24.85,5.85 -19.47,12.76 -34.53,14.83 -55.06,21.93 -16.08,5.57 -22.89,13.24 -25.91,10.32 -3.87,-3.75 -8.1,-14.42 1.68,-25.46 4.92,-5.56 13.89,-11.62 25.44,-19.04 0,0 -35.42,-9.44 -67.05,-1.14 -42.86,11.25 -63.1,-9.36 -34.11,-55.91 10.38,-16.67 51.25,-43.36 134.09,-36.15 23.87,2.07 58.31,4.07 88.02,10.41 79.45,16.95 167.77,33.38 222.08,49.61 13.7,4.09 38.17,19.94 52.74,36.55 91.34,104.11 121.59,178.29 161.64,245.72 l -3.47,110.17 c -64.72,2 -99.34,-61.15 -134.47,-120.57" /><path
         id="path218"
         style="fill:#33535f;fill-opacity:1;fill-rule:nonzero;stroke:none"
         d="m 3984.94,2720.78 c 0,0 -56.52,12.02 -99.01,-42.34 -44.47,-56.89 -123.07,-193.52 -123.07,-193.52 0,0 25.79,-68.51 95.18,-79.77 l 111.47,150.57 c 0,0 52.79,104.24 15.43,165.06" /><path
         id="path220"
         style="fill:#f6879f;fill-opacity:1;fill-rule:nonzero;stroke:none"
         d="m 4225.97,1055.59 h -72.67 v 129.58 h 72.67 v -129.58" /><path
         id="path222"
         style="fill:#f6879f;fill-opacity:1;fill-rule:nonzero;stroke:none"
         d="m 3973.99,1192.08 -72.62,-2.6 -3.65,137.13 76.27,2.6 v -137.13" /><path
         id="path224"
         style="fill:#273e47;fill-opacity:1;fill-rule:nonzero;stroke:none"
         d="m 4236.2,2307.06 c 0,-72.28 -10.64,-653.98 -10.64,-653.98 1.69,-20.8 20.41,-59.14 16.36,-139.02 -5.51,-108.52 -12.84,-393.68 -12.84,-393.68 0,0 -35.28,-21.47 -80.92,-1.67 0,0 -58.91,399.61 -71.94,507.15 -11.37,93.85 -40.47,405.2 -40.47,405.2 l -39.39,-367.42 c 0,0 13.39,-55.97 9,-120.29 -3.4,-49.74 -26.77,-308.79 -26.77,-308.79 0,0 -34.21,-24.18 -83.9,-6.69 0,0 -41.34,390.14 -42.19,435.78 -0.96,52.03 24.17,644.18 24.17,644.18 l 359.53,-0.77" /><path
         id="path226"
         style="fill:#17282f;fill-opacity:1;fill-rule:nonzero;stroke:none"
         d="m 4153.3,1092.95 v 10.83 c -6.96,-3.16 -23.12,-67.36 -51.95,-94.75 -22.92,-21.78 -54.19,-46.928 -62.15,-71.21 -8.27,-25.25 43.55,-39.191 64.97,-35.238 24.88,4.59 68.01,22.84 78.84,39.758 10.83,16.91 15.9,41.871 24.69,54.269 8.8,12.401 29.09,26.241 33.84,40.591 2.61,7.88 -0.49,25.15 -4.16,39.74 -3.37,13.38 -7.02,28.1 -11.41,26.84 -0.01,-1.63 0,-8.25 0,-8.25 -5.28,-6.09 -19.88,-12.13 -36.33,-12.8 -10.64,-0.42 -36.43,1.77 -36.34,10.22" /><path
         id="path228"
         style="fill:#17282f;fill-opacity:1;fill-rule:nonzero;stroke:none"
         d="m 3900.59,1212.82 c -3.77,-0.13 -6.84,-5.68 -15.17,-15.06 -10.06,-11.34 -26.51,-23.57 -42.75,-32.04 -27.21,-14.18 -80.12,-36.02 -104.06,-47.25 -14.96,-7.02 -14.26,-25.84 1.2,-36.54 15.46,-10.72 52.8,-18.43 97.62,-7.99 24.42,5.69 56.21,29.18 76.33,27.91 20.13,-1.27 57.77,-0.96 72.63,9.7 14.85,10.66 8.9,33.43 4.7,53 -4.58,21.36 -10.31,54.66 -17.1,53.2 v -7.37 c -8.73,-13.78 -53.82,-19.38 -73.01,-9.24 l -0.39,11.68" /><path
         id="path230"
         style="fill:#17282f;fill-opacity:1;fill-rule:nonzero;stroke:none"
         d="m 4035.75,2031.06 c 0,0 -58.09,17.04 -101.2,60.43 0,0 19.53,-38.08 77.6,-73.52 l -12.42,-328.1 36.02,341.19" /><path
         id="path232"
         style="fill:#26b6a6;fill-opacity:1;fill-rule:nonzero;stroke:none"
         d="m 4195.51,2709.94 c 0,0 59.75,-13.82 55.71,-122.17 l -12.56,-172.58 0.34,-259 c -53.44,-60.55 -290.36,-56.12 -371.47,4.85 0,0 9.19,306.5 14.67,424.44 3.89,83.85 23.18,126.06 105.59,135.3 l 101.34,-4.46 106.38,-6.38" /><path
         id="path234"
         style="fill:#17282f;fill-opacity:1;fill-rule:nonzero;stroke:none"
         d="m 4119.16,2935.18 c 0,-62.24 -48.45,-112.69 -108.19,-112.69 -59.76,0 -95.13,51.84 -108.21,112.69 -23.91,111.29 48.45,112.69 108.21,112.69 59.74,0 108.19,-50.46 108.19,-112.69" /><path
         id="path236"
         style="fill:#17282f;fill-opacity:1;fill-rule:nonzero;stroke:none"
         d="m 4174.35,2889.59 c 0,0 -16.59,-81.2 -23.24,-94.54 -6.66,-13.35 -20.41,-17.14 -20.41,-17.14 l 1.16,57.13 42.49,54.55" /><path
         id="path238"
         style="fill:#17282f;fill-opacity:1;fill-rule:nonzero;stroke:none"
         d="m 4153.53,3005.92 c 0,0 11.9,2.98 24.54,-16.77 10.84,-16.93 13.3,-54.96 -3.72,-99.56 l -31.26,-3.74 10.44,120.07" /><path
         id="path240"
         style="fill:#17282f;fill-opacity:1;fill-rule:nonzero;stroke:none"
         d="m 4165.04,2989.48 38.32,-0.71 c 0.94,10.99 -6.89,20.07 -17.46,20.26 -10.59,0.2 -19.92,-8.55 -20.86,-19.55" /><path
         id="path242"
         style="fill:#17282f;fill-opacity:1;fill-rule:nonzero;stroke:none"
         d="m 4169.73,2998.56 28.39,27.32 c -7.01,8.12 -19.05,8.59 -26.89,1.05 -7.84,-7.54 -8.52,-20.24 -1.5,-28.37" /><path
         id="path244"
         style="fill:#f6879f;fill-opacity:1;fill-rule:nonzero;stroke:none"
         d="m 4133.72,2885.83 c 6.27,-3.9 15.21,8.64 22.95,17.06 7.72,8.43 32,16.38 44.59,-11.24 12.82,-28.16 -8.87,-54.93 -26.91,-63.89 -32.24,-16.03 -42.49,7.28 -42.49,7.28 l -2.61,-128.63 c -45.45,-70.3 -148.4,-67.77 -111.39,3.4 l 0.1,39.15 c 0,0 -31.02,-4.91 -46.15,-2.47 -25.18,4.05 -41.02,24.75 -48.66,53.13 -12.26,45.59 -16.92,82.4 -6.52,172.07 11.42,98.28 121.16,99.3 180.43,60.45 59.27,-38.85 36.66,-146.31 36.66,-146.31" /><path
         id="path246"
         style="fill:#17282f;fill-opacity:1;fill-rule:nonzero;stroke:none"
         d="m 3996.91,2987.04 c 26.22,2.62 52.14,7.96 78.42,9.9 5.68,0.41 11.49,0.66 17,-0.83 20.13,-5.43 17.53,-28.84 20.73,-45.18 5.5,-28.16 10.07,-75.87 20.66,-76.09 3.15,-0.06 15.15,20.66 22.95,28.05 5.05,4.79 5.91,15.12 7,21.51 1.99,11.66 3.08,23.49 3.98,35.28 0.75,9.99 1.75,20.15 1.71,30.17 -0.04,11.23 0.17,22.68 -2.62,33.65 -2.54,9.97 -7.21,17.43 -14.03,25.2 l -2,2.23 c -12.93,13.94 -29.42,24.38 -46.93,31.61 -25.13,10.36 -52.37,14.49 -79.4,17.26 -27.04,2.77 -54.29,4.27 -80.92,9.74 -1.56,0.32 -3.21,0.65 -4.69,0.08 -2.32,-0.89 -3.33,-3.58 -3.79,-6.01 -2.35,-12.35 3.2,-25.84 13.56,-32.95 -18.11,-1.44 -38.92,8 -56.38,12.73 -2.94,0.79 -6.27,1.54 -8.89,-0.03 -1.8,-1.09 -2.86,-3.08 -3.5,-5.09 -1.48,-4.64 -1.15,-9.65 -0.49,-14.48 1.95,-14.28 6.81,-28.37 15.61,-39.77 12.66,-16.42 33.5,-31.22 54.04,-35.33 16.24,-3.26 31.4,-3.3 47.98,-1.65" /><path
         id="path248"
         style="fill:#f47089;fill-opacity:1;fill-rule:nonzero;stroke:none"
         d="m 4017.96,2748.96 c 0,0 56.2,11.79 75.85,22.67 13.15,7.28 23.98,19.9 27.17,27.99 0,0 -3.69,-17.37 -15.43,-33.02 -14.38,-19.13 -87.59,-33.22 -87.59,-33.22 v 15.58" /><path
         id="path250"
         style="fill:#17282f;fill-opacity:1;fill-rule:nonzero;stroke:none"
         d="m 4031.46,2900.46 c 0,-6.73 5.05,-12.17 11.26,-12.15 6.23,0.01 11.27,5.49 11.27,12.21 0,6.74 -5.04,12.18 -11.27,12.16 -6.21,-0.02 -11.26,-5.49 -11.26,-12.22" /><path
         id="path252"
         style="fill:#17282f;fill-opacity:1;fill-rule:nonzero;stroke:none"
         d="m 4049.55,2949.03 24.1,-13.85 c 3.55,7.21 1.04,16.15 -5.61,19.98 -6.66,3.82 -14.94,1.08 -18.49,-6.13" /><path
         id="path254"
         style="fill:#f47089;fill-opacity:1;fill-rule:nonzero;stroke:none"
         d="m 4023.05,2819.43 -25.72,-10.05 c 2.55,-7.68 10.37,-11.65 17.47,-8.87 7.1,2.77 10.79,11.24 8.25,18.92" /><path
         id="path256"
         style="fill:#17282f;fill-opacity:1;fill-rule:nonzero;stroke:none"
         d="m 3928.14,2938.7 21.98,17.63 c -4.49,6.55 -13.04,7.92 -19.11,3.05 -6.06,-4.87 -7.35,-14.12 -2.87,-20.68" /><path
         id="path258"
         style="fill:#17282f;fill-opacity:1;fill-rule:nonzero;stroke:none"
         d="m 3937.79,2903.8 c 0,-6.73 5.05,-12.17 11.27,-12.15 6.22,0.01 11.26,5.48 11.26,12.21 0,6.74 -5.04,12.18 -11.26,12.16 -6.22,-0.02 -11.27,-5.49 -11.27,-12.22" /><path
         id="path260"
         style="fill:#f47089;fill-opacity:1;fill-rule:nonzero;stroke:none"
         d="m 3998.07,2913.22 -1.31,-71.14 -40.37,9.26 z" /><path
         id="path262"
         style="fill:#26b6a6;fill-opacity:1;fill-rule:nonzero;stroke:none"
         d="m 3038.74,2317.77 62.65,36.16 24.82,30.07 -62.64,-36.17 -24.83,-30.06" /><path
         id="path264"
         style="fill:#08917e;fill-opacity:1;fill-rule:nonzero;stroke:none"
         d="m 3038.75,2317.78 8.81,10.67 16.01,19.38 0.02,0.02 13.39,-8.01 -38.23,-22.06" /><path
         id="path266"
         style="fill:#26b6a6;fill-opacity:1;fill-rule:nonzero;stroke:none"
         d="m 3209.22,2219.35 62.63,36.16 52.36,46.34 -62.64,-36.16 -52.35,-46.34" /><path
         id="path268"
         style="fill:#08917e;fill-opacity:1;fill-rule:nonzero;stroke:none"
         d="m 3209.22,2219.35 0.01,0.01 h 0.01 l -0.02,-0.01 m 0.11,0.06 40.82,36.17 11.42,10.11 0.02,0.01 13.18,-7.61 -2.92,-2.58 -62.52,-36.1" /><path
         id="path270"
         style="fill:#26b6a6;fill-opacity:1;fill-rule:nonzero;stroke:none"
         d="m 3887.46,2092.49 c -21.08,143.51 -98.17,285.49 -190.09,338.53 -44.1,25.5 -84.91,26.42 -117.61,7.3 -9.56,-5.55 -45.02,-26.01 -59,-34.03 -1.13,-0.62 -2.27,-1.23 -3.29,-1.95 -2.57,-1.44 -5.15,-3.09 -7.61,-4.83 -4.73,-3.29 -9.26,-6.99 -13.57,-11.21 l -1.96,-1.85 c -1.84,-1.85 -3.7,-3.91 -5.45,-5.96 -2.15,-2.47 -4.31,-5.04 -6.26,-7.71 -4.12,-5.45 -8.02,-11.31 -11.52,-17.68 -1.75,-3.09 -3.49,-6.38 -5.14,-9.77 l -515.15,297.41 -62.61,-36.08 v -39.89 l 5.34,-3.08 4.94,-2.88 v -8.43 l -10.28,-5.96 v -23.24 l 75.67,-160.17 74.84,-43.28 24.87,30.12 66.01,-39.47 37.93,-64.98 41.74,-24.05 52.32,46.36 64.26,-37.11 21.59,-89.03 107.64,-62.09 c 5.45,-22.82 12.33,-45.13 20.35,-66.93 0.72,-2.26 1.54,-4.52 2.47,-6.99 35.77,-94.06 92.72,-174.56 156.87,-211.67 8.24,-4.73 16.25,-8.64 24.16,-11.62 4.53,-1.85 9.06,-3.29 13.47,-4.53 4.02,-1.13 8.02,-2.05 12.03,-2.67 13.26,-2.36 26.12,-2.26 38.15,0.1 1.74,0.42 3.49,0.83 5.23,1.24 2.47,0.51 4.94,1.23 7.31,2.15 1.84,0.73 3.7,1.44 5.54,2.16 1.96,0.73 3.91,1.65 5.76,2.68 1.85,0.82 3.6,1.75 5.35,2.77 0.92,0.52 1.85,1.03 2.67,1.55 l 1.23,0.72 c 14.3,8.22 49.55,28.58 59.12,34.02 47.59,27.55 78.44,97.36 78.44,196.05 0,25.09 -1.95,50.58 -5.76,75.98 m -145.63,1.89 c 13.74,-17.47 23.75,-43.13 25.89,-68.17 -13.73,17.47 -23.74,43.13 -25.89,68.17" /><path
         id="path272"
         style="fill:#26b6a6;fill-opacity:1;fill-rule:nonzero;stroke:none"
         d="m 3824.85,2056.4 c -21.07,143.41 -98.17,285.39 -190.09,338.44 -42.55,24.57 -81.93,26.42 -114,9.45 -1.13,-0.62 -2.27,-1.23 -3.29,-1.95 -2.57,-1.44 -5.15,-3.09 -7.61,-4.83 -4.73,-3.29 -9.26,-6.99 -13.57,-11.21 l -1.96,-1.85 c -1.84,-1.85 -3.7,-3.91 -5.45,-5.96 -2.15,-2.47 -4.31,-5.04 -6.26,-7.71 -4.12,-5.45 -8.02,-11.31 -11.52,-17.68 -1.75,-3.09 -3.49,-6.38 -5.14,-9.77 -8.53,-17.48 -15.32,-37.83 -19.84,-60.86 l -557.92,322.19 v -39.89 l 5.34,-3.08 4.94,-2.88 v -8.43 l -10.28,-5.96 v -23.24 l 75.67,-160.17 74.84,-43.28 24.87,30.12 66.01,-39.47 37.93,-64.98 41.74,-24.05 52.32,46.36 64.26,-37.11 21.59,-89.03 107.64,-62.09 c 5.45,-22.82 12.33,-45.13 20.35,-66.93 0.72,-2.26 1.54,-4.52 2.47,-6.99 35.77,-94.06 92.72,-174.56 156.87,-211.67 8.24,-4.73 16.25,-8.64 24.16,-11.62 4.53,-1.85 9.06,-3.29 13.47,-4.53 4.02,-1.13 8.02,-2.05 12.03,-2.67 13.26,-2.36 26.12,-2.26 38.15,0.1 1.74,0.42 3.49,0.83 5.23,1.24 2.47,0.51 4.94,1.23 7.31,2.15 1.84,0.73 3.7,1.44 5.54,2.16 1.96,0.73 3.91,1.65 5.76,2.68 1.85,0.82 3.6,1.75 5.35,2.77 0.92,0.52 1.85,1.03 2.67,1.55 l 1.23,0.72 c 45.65,28.78 74.95,97.56 74.95,193.88 0,25.09 -2.06,50.59 -5.76,76.08 m -101.39,-83.08 c -24.71,14.27 -44.75,56.68 -44.75,94.73 0,38.05 20.04,57.33 44.75,43.06 24.71,-14.27 44.75,-56.68 44.75,-94.74 0,-38.04 -20.04,-57.32 -44.75,-43.05" /><path
         id="path274"
         style="fill:#08917e;fill-opacity:1;fill-rule:nonzero;stroke:none"
         d="m 3739.17,1968.62 c -4.88,0 -10.17,1.52 -15.68,4.71 -6.83,3.94 -13.29,10 -19.08,17.51 -15.18,19.79 -25.7,49.64 -25.7,77.21 0,22.15 6.79,37.94 17.34,44.45 3.52,2.17 7.45,3.3 11.69,3.3 4.9,0 10.2,-1.51 15.75,-4.71 0.66,-0.38 1.33,-0.79 1.99,-1.21 3.34,-2.16 6.58,-4.83 9.69,-7.92 2.31,-2.31 4.52,-4.86 6.62,-7.63 2.15,-24.98 12.23,-50.68 25.9,-68.15 0.18,-1.44 0.3,-2.88 0.38,-4.3 0.09,-1.84 0.14,-3.67 0.14,-5.49 0,-29.52 -12.09,-47.77 -29.04,-47.77" /><path
         id="path276"
         style="fill:#08917e;fill-opacity:1;fill-rule:nonzero;stroke:none"
         d="m 3704.41,1990.84 c -15.22,19.78 -25.75,49.61 -25.75,77.18 0,22.16 6.81,37.97 17.39,44.48 -10.55,-6.51 -17.34,-22.3 -17.34,-44.45 0,-27.57 10.52,-57.42 25.7,-77.21 m 63.8,25.55 c 0,1.82 -0.05,3.65 -0.14,5.49 0.11,-1.85 0.14,-3.68 0.14,-5.47 0,-0.01 0,-0.01 0,-0.02 m -33.04,85.57 c -3.11,3.09 -6.35,5.76 -9.69,7.92 3.35,-2.16 6.6,-4.82 9.69,-7.92" /><path
         id="path278"
         style="fill:#f4f4f2;fill-opacity:1;fill-rule:nonzero;stroke:none"
         d="m 3696.59,2431.48 c -0.06,0.03 -0.12,0.06 -0.17,0.09 0.05,-0.03 0.11,-0.06 0.17,-0.09 m -1.01,0.57 c -23.42,13.21 -45.9,19.48 -66.69,19.5 20.79,-0.02 43.26,-6.29 66.69,-19.5 m -115.59,6.4 c 0.06,0.04 0.12,0.07 0.17,0.11 -0.05,-0.04 -0.11,-0.07 -0.17,-0.11 m 48.8,13.1 c 0.01,0 0.03,0 0.03,0 v 0 c 0,0 -0.02,0 -0.03,0" /><path
         id="path280"
         style="fill:#5cc8bc;fill-opacity:1;fill-rule:nonzero;stroke:none"
         d="m 3830.48,1991.38 c -0.51,21.51 -2.47,43.26 -5.63,65.02 -21.07,143.41 -98.17,285.39 -190.09,338.44 -24.19,13.96 -47.36,20.59 -68.74,20.59 -16.22,0 -31.42,-3.82 -45.26,-11.14 13.98,8.02 49.44,28.48 59,34.03 0.08,0.05 0.15,0.09 0.23,0.13 0.06,0.04 0.12,0.07 0.17,0.11 14.72,8.51 31.08,12.98 48.63,12.99 0.01,0 0.03,0 0.03,0 0.03,0 0.05,0 0.07,0 20.79,-0.02 43.27,-6.29 66.69,-19.5 0.28,-0.16 0.56,-0.32 0.84,-0.48 0.05,-0.03 0.11,-0.06 0.17,-0.09 0.26,-0.15 0.52,-0.31 0.78,-0.46 91.92,-53.04 169.01,-195.02 190.09,-338.53 3.81,-25.4 5.76,-50.89 5.76,-75.98 v 0 c 0,3.64 -0.14,7.31 -0.21,10.97 -21.47,-12.39 -43.2,-24.93 -62.53,-36.1" /><path
         id="path282"
         style="fill:#26b6a6;fill-opacity:1;fill-rule:nonzero;stroke:none"
         d="m 3830.61,1980.32 c 0,-96.32 -29.3,-165.1 -74.95,-193.88 14.3,8.22 49.55,28.58 59.12,34.02 47.59,27.55 78.44,97.36 78.44,196.05 0,3.64 -0.14,7.31 -0.21,10.97 -21.51,-12.41 -43.27,-24.97 -62.62,-36.15 0.09,-3.67 0.22,-7.35 0.22,-11.01" /><path
         id="path284"
         style="fill:#1db3a0;fill-opacity:1;fill-rule:nonzero;stroke:none"
         d="m 3755.66,1786.44 c 45.65,28.78 74.95,97.56 74.95,193.88 v 0 0 0 c 0,3.66 -0.13,7.34 -0.22,11.01 19.35,11.18 41.11,23.74 62.62,36.15 0.07,-3.66 0.21,-7.33 0.21,-10.97 0,-63.38 -12.72,-114.85 -34.43,-150.86 -12.1,-20.07 -26.98,-35.33 -44.01,-45.19 -9.57,-5.44 -44.82,-25.8 -59.12,-34.02" /><path
         id="path286"
         style="fill:#19b19d;fill-opacity:1;fill-rule:nonzero;stroke:none"
         d="m 3448.38,2232.92 -549.9,317.56 v -0.1 l -10.28,-5.96 10.28,5.96 v 8.43 l 549.9,-317.46 v -8.43" /><path
         id="path288"
         style="fill:#0aac94;fill-opacity:1;fill-rule:nonzero;stroke:none"
         d="m 3448.38,2220.99 -560.18,323.43 10.28,5.96 v 0.1 l 549.9,-317.56 v -11.93" /><path
         id="path290"
         style="fill:#19b19d;fill-opacity:1;fill-rule:nonzero;stroke:none"
         d="m 3692.16,1820.23 c -0.05,0 -0.1,0 -0.15,0 -18.86,0 -39.01,5.83 -59.76,17.81 -46.35,26.82 -87.48,79.2 -117.32,142.3 -29.81,63.11 -48.23,137.03 -48.24,207.23 v 0 0 0 c 0.01,54.5 11.09,98.87 30.48,130.04 19.28,31.1 47.45,49.02 80.18,49.02 0.05,0 0.11,0 0.16,0 18.85,0 39,-5.84 59.74,-17.82 46.36,-26.81 87.49,-79.2 117.33,-142.29 29.8,-63.12 48.23,-137.04 48.24,-207.24 -0.01,-54.5 -11.09,-98.87 -30.48,-130.04 -19.28,-31.09 -47.45,-49.01 -80.18,-49.01 m -215.47,367.34 c -0.01,-68.45 18.07,-141.14 47.28,-202.96 29.18,-61.84 69.58,-112.73 113.28,-137.91 19.55,-11.29 37.99,-16.48 54.76,-16.47 29.02,0.05 53.69,15.33 71.84,44.3 18.06,28.95 28.99,71.6 28.97,124.75 0.01,68.45 -18.07,141.14 -47.28,202.96 -29.18,61.85 -69.58,112.74 -113.29,137.92 -19.54,11.28 -37.97,16.47 -54.74,16.47 -29.03,-0.06 -53.7,-15.34 -71.85,-44.31 -18.06,-28.95 -28.99,-71.6 -28.97,-124.75" /><path
         id="path292"
         style="fill:#5cc8bc;fill-opacity:1;fill-rule:nonzero;stroke:none"
         d="m 3446.12,2282.47 -557.92,322.19 62.61,36.08 515.15,-297.41 c -8.53,-17.48 -15.32,-37.83 -19.84,-60.86" /><path
         id="path294"
         style="fill:#f6879f;fill-opacity:1;fill-rule:nonzero;stroke:none"
         d="m 4190.66,2312 c 29.27,55.33 62.61,179.53 79.22,242.21 23.6,89.03 -14.59,145.05 -57.93,147.31 -27.18,-4.14 -116.41,-328.9 -116.41,-328.9 -9.9,-7.91 -145.73,-76.74 -189.37,-94.04 -7.72,-3.07 -16.35,-2.95 -24.16,-0.1 -20.96,7.66 -35.22,6.2 -55.74,8.27 -16.07,1.61 -24.19,7.31 -26.22,3.88 -2.6,-4.43 -3.81,-15.45 7.88,-23.67 5.89,-4.14 15.58,-7.83 27.98,-12.22 0,0 -23.2,-8.04 -54.14,-7.35 -41.95,0.92 -57.05,-17.3 -24.52,-59.83 20.4,-26.64 53.18,-35.04 127.01,-9.5 21.28,7.35 50.09,21.65 76.91,31.4 55.46,20.15 69.7,22.32 112.27,36.66 61.43,20.68 104.23,41.33 117.22,65.88" /><path
         id="path296"
         style="fill:#33535f;fill-opacity:1;fill-rule:nonzero;stroke:none"
         d="m 4195.51,2709.94 c 25.52,-3.49 50.26,-9.26 65.1,-29.87 14.85,-20.62 27.22,-49.7 12.38,-129.59 -14.85,-79.88 -45.37,-164.75 -45.37,-164.75 0,0 -59.37,-25.37 -122.51,39 l 43.35,167.8 c 0,0 7.42,108.99 47.05,117.41" /></g></g></svg>